# This file uses centimeters as units for non-parametric coordinates.

g default
v -0.333333 -1.000000 0.333333
v 0.333333 -1.000000 0.333333
v -0.333333 -1.000000 -0.333333
v 0.333333 -1.000000 -0.333333
v -0.179826 1.000000 -0.281082
v -0.281082 1.000000 -0.179825
v -0.333333 1.000000 -0.056694
v -0.056695 1.000000 -0.333333
v -0.333333 0.000000 -0.056694
v -0.281082 0.000000 -0.179825
v -0.179826 0.000000 -0.281082
v -0.056695 0.000000 -0.333333
v -0.333333 -0.195613 -0.333333
v 0.281082 1.000000 -0.179825
v 0.179825 1.000000 -0.281082
v 0.056694 1.000000 -0.333333
v 0.333333 1.000000 -0.056694
v 0.056694 0.000000 -0.333333
v 0.179825 0.000000 -0.281082
v 0.281082 0.000000 -0.179825
v 0.333333 0.000000 -0.056694
v 0.333333 -0.195613 -0.333333
v -0.281082 1.000000 0.179825
v -0.179826 1.000000 0.281082
v -0.056695 1.000000 0.333333
v -0.333333 1.000000 0.056694
v -0.333333 0.000000 0.056694
v -0.333333 -0.195613 0.333333
v -0.056695 0.000000 0.333333
v -0.179826 0.000000 0.281082
v -0.281082 0.000000 0.179825
v 0.179825 1.000000 0.281082
v 0.281082 1.000000 0.179825
v 0.333333 1.000000 0.056694
v 0.056694 1.000000 0.333333
v 0.333333 0.000000 0.056694
v 0.281082 0.000000 0.179825
v 0.179825 0.000000 0.281082
v 0.056694 0.000000 0.333333
v 0.333333 -0.195613 0.333333
vt 0.450876 0.975015
vt 0.445140 0.980751
vt 0.450876 0.980751
vt 0.450876 0.972708
vt 0.445140 0.975015
vt 0.439405 0.957808
vt 0.439405 0.960115
vt 0.450876 0.957808
vt 0.456611 0.957808
vt 0.445140 0.957808
vt 0.442760 0.963544
vt 0.454231 0.963544
vt 0.441784 0.963544
vt 0.447520 0.972147
vt 0.448496 0.969279
vt 0.454231 0.960676
vt 0.447520 0.963544
vt 0.442760 0.960676
vt 0.453256 0.963544
vt 0.448496 0.960676
vt 0.441784 0.960676
vt 0.445140 0.972708
vt 0.448496 0.972147
vt 0.456611 0.960115
vt 0.447520 0.960676
vt 0.445140 0.960115
vt 0.450876 0.965924
vt 0.450876 0.966899
vt 0.447520 0.969279
vt 0.445140 0.966899
vt 0.445140 0.965924
vt 0.448496 0.963544
vt 0.453256 0.960676
vt 0.450876 0.960115
vt 0.446371 0.969279
vt 0.445140 0.969279
vt 0.439405 0.963544
vt 0.445140 0.972147
vt 0.439405 0.960676
vt 0.446343 0.972148
vt 0.450876 0.969279
vt 0.456611 0.963544
vt 0.449645 0.969279
vt 0.456611 0.960739
vt 0.450876 0.972085
vt 0.456611 0.961090
vt 0.450876 0.971733
vt 0.445140 0.963544
vt 0.446371 0.963544
vt 0.445996 0.960675
vt 0.444312 0.960675
vt 0.449645 0.963544
vt 0.450876 0.963544
vt 0.451703 0.960675
vt 0.450019 0.960675
vn -0.215715 0.000000 0.976456
vn -0.089680 0.010440 0.995916
vn 0.215715 0.000000 0.976456
vn 0.118383 0.013781 0.992872
vn -0.118383 0.013781 -0.992872
vn -0.215715 0.000000 -0.976456
vn 0.089680 0.010440 -0.995916
vn 0.215716 0.000000 -0.976456
vn 0.000000 -1.000000 0.000000
vn 0.000000 -1.000000 0.000000
vn 0.000000 -1.000000 0.000000
vn 0.000000 -1.000000 0.000000
vn 0.976456 0.000000 0.215715
vn 0.995916 0.010440 0.089680
vn 0.976456 0.000000 -0.215715
vn 0.992872 0.013781 -0.118383
vn -0.976456 0.000000 -0.215715
vn -0.995916 0.010440 -0.089680
vn -0.976456 0.000000 0.215715
vn -0.992872 0.013781 0.118383
vn 0.000000 0.000000 1.000000
vn 0.000000 0.000000 1.000000
vn 0.000000 0.000000 1.000000
vn 0.000000 0.000000 1.000000
vn 1.000000 0.000000 0.000000
vn 1.000000 0.000000 0.000000
vn 1.000000 0.000000 0.000000
vn 1.000000 0.000000 0.000000
vn -1.000000 0.000000 0.000000
vn -1.000000 0.000000 0.000000
vn -1.000000 0.000000 0.000000
vn -1.000000 0.000000 0.000000
vn 0.000000 0.000000 -1.000000
vn 0.000000 0.000000 -1.000000
vn 0.000000 0.000000 -1.000000
vn 0.000000 0.000000 -1.000000
vn -0.825343 0.000000 -0.564632
vn -0.824772 0.109240 -0.554812
vn -0.564633 0.000000 -0.825342
vn -0.554813 0.109240 -0.824772
vn 0.564633 0.000000 -0.825342
vn 0.554813 0.109240 -0.824772
vn 0.825342 0.000000 -0.564633
vn 0.824772 0.109240 -0.554813
vn -0.564633 0.000000 0.825342
vn -0.554813 0.109240 0.824772
vn -0.825343 0.000000 0.564632
vn -0.824773 0.109240 0.554812
vn 0.825342 0.000000 0.564633
vn 0.824772 0.109240 0.554813
vn 0.564633 0.000000 0.825342
vn 0.554813 0.109240 0.824772
vn -0.588219 0.554974 -0.588219
vn 0.588219 0.554974 -0.588219
vn -0.588219 0.554974 0.588219
vn 0.000000 1.000000 0.000000
vn 0.000000 1.000000 0.000000
vn 0.000000 1.000000 0.000000
vn 0.000000 1.000000 0.000000
vn 0.000000 1.000000 0.000000
vn 0.000000 1.000000 0.000000
vn 0.000000 1.000000 0.000000
vn 0.000000 1.000000 0.000000
vn 0.000000 1.000000 0.000000
vn 0.000000 1.000000 0.000000
vn 0.000000 1.000000 0.000000
vn 0.000000 1.000000 0.000000
vn 0.000000 1.000000 0.000000
vn 0.000000 1.000000 0.000000
vn 0.000000 1.000000 0.000000
vn 0.000000 1.000000 0.000000
vn 0.588219 0.554974 0.588219
s 1
g Bar09
f 25/17/1 29/25/2 35/32/3
f 35/32/3 29/25/2 39/20/4
f 12/14/5 8/29/6 18/23/7
f 18/23/7 8/29/6 16/15/8
s 3
f 3/5/9 4/1/10 1/2/11
f 1/2/11 4/1/10 2/3/12
s 1
f 34/19/13 36/33/14 17/12/15
f 17/12/15 36/33/14 21/16/16
f 7/13/17 9/21/18 26/11/19
f 26/11/19 9/21/18 27/18/20
f 1/10/21 2/8/22 28/26/23
f 28/26/23 2/8/22 29/25/2
f 29/25/2 2/8/22 39/20/4
f 2/8/22 40/34/24 39/20/4
f 2/8/25 4/9/26 40/34/27
f 40/34/27 4/9/26 36/33/14
f 36/33/14 4/9/26 21/16/16
f 4/9/26 22/24/28 21/16/16
f 3/6/29 1/10/30 13/7/31
f 13/7/31 1/10/30 9/21/18
f 9/21/18 1/10/30 27/18/20
f 1/10/30 28/26/32 27/18/20
f 4/1/33 3/5/34 22/4/35
f 22/4/35 3/5/34 18/23/7
f 18/23/7 3/5/34 12/14/5
f 13/22/36 12/14/5 3/5/34
f 7/13/17 6/37/37 9/21/18
f 9/21/18 6/37/37 10/39/38
f 6/36/37 5/35/39 10/38/38
f 10/38/38 5/35/39 11/40/40
f 5/35/39 8/29/6 11/40/40
f 11/40/40 8/29/6 12/14/5
f 16/15/8 15/43/41 18/23/7
f 18/23/7 15/43/41 19/45/42
f 15/43/41 14/41/43 19/45/42
f 19/45/42 14/41/43 20/47/44
f 14/42/43 17/12/15 20/46/44
f 20/46/44 17/12/15 21/16/16
f 25/17/1 24/49/45 29/25/2
f 29/25/2 24/49/45 30/50/46
f 24/49/45 23/48/47 30/50/46
f 30/50/46 23/48/47 31/51/48
f 23/48/47 26/11/19 31/51/48
f 31/51/48 26/11/19 27/18/20
f 34/19/13 33/53/49 36/33/14
f 36/33/14 33/53/49 37/54/50
f 33/53/49 32/52/51 37/54/50
f 37/54/50 32/52/51 38/55/52
f 32/52/51 35/32/3 38/55/52
f 38/55/52 35/32/3 39/20/4
f 13/7/53 9/21/18 10/39/38
f 13/22/53 10/38/38 11/40/40
f 13/22/53 11/40/40 12/14/5
f 22/4/54 18/23/7 19/45/42
f 22/24/54 19/44/42 20/46/44
f 22/24/54 20/46/44 21/16/16
f 28/26/55 29/25/2 30/50/46
f 28/26/55 30/50/46 31/51/48
f 28/26/55 31/51/48 27/18/20
s 10
f 32/52/56 33/53/57 35/32/58
f 33/53/57 34/27/59 35/32/58
f 34/27/59 17/28/60 35/32/58
f 17/28/60 14/41/61 35/32/58
f 14/41/61 15/43/62 35/32/58
f 15/43/62 16/15/63 35/32/58
f 16/15/63 8/29/64 35/32/58
f 8/29/64 5/35/65 35/32/58
f 5/35/65 6/36/66 35/32/58
f 6/36/66 7/30/67 35/32/58
f 7/30/67 26/31/68 35/32/58
f 26/31/68 23/48/69 35/32/58
f 35/32/58 23/48/69 25/17/70
f 23/48/69 24/49/71 25/17/70
s 1
f 40/34/72 36/33/14 37/54/50
f 40/34/72 37/54/50 38/55/52
f 40/34/72 38/55/52 39/20/4
