# This file uses centimeters as units for non-parametric coordinates.

g default
v -0.333333 -1.000000 0.333333
v 0.333333 -1.000000 0.333333
v -0.333333 1.000000 0.333333
v 0.333333 1.000000 0.333333
v -0.333333 1.000000 -0.333333
v 0.333333 1.000000 -0.333333
v -0.333333 -1.000000 -0.333333
v 0.333333 -1.000000 -0.333333
vt 0.445140 0.957808
vt 0.450876 0.957808
vt 0.445140 0.963544
vt 0.450876 0.963544
vt 0.445140 0.969279
vt 0.450876 0.969279
vt 0.445140 0.975015
vt 0.450876 0.975015
vt 0.445140 0.980751
vt 0.450876 0.980751
vt 0.456611 0.957808
vt 0.456611 0.963544
vt 0.439405 0.957808
vt 0.439405 0.963544
vn 0.000000 0.000000 1.000000
vn 0.000000 0.000000 1.000000
vn 0.000000 0.000000 1.000000
vn 0.000000 0.000000 1.000000
vn 0.000000 1.000000 0.000000
vn 0.000000 1.000000 0.000000
vn 0.000000 1.000000 0.000000
vn 0.000000 1.000000 0.000000
vn 0.000000 0.000000 -1.000000
vn 0.000000 0.000000 -1.000000
vn 0.000000 0.000000 -1.000000
vn 0.000000 0.000000 -1.000000
vn 0.000000 -1.000000 0.000000
vn 0.000000 -1.000000 0.000000
vn 0.000000 -1.000000 0.000000
vn 0.000000 -1.000000 0.000000
vn 1.000000 0.000000 0.000000
vn 1.000000 0.000000 0.000000
vn 1.000000 0.000000 0.000000
vn 1.000000 0.000000 0.000000
vn -1.000000 0.000000 0.000000
vn -1.000000 0.000000 0.000000
vn -1.000000 0.000000 0.000000
vn -1.000000 0.000000 0.000000
s 1
g Bar01
f 1/1/1 2/2/2 3/3/3
f 3/3/3 2/2/2 4/4/4
s 2
f 3/3/5 4/4/6 5/5/7
f 5/5/7 4/4/6 6/6/8
s 3
f 5/5/9 6/6/10 7/7/11
f 7/7/11 6/6/10 8/8/12
s 4
f 7/7/13 8/8/14 1/9/15
f 1/9/15 8/8/14 2/10/16
s 5
f 2/2/17 8/11/18 4/4/19
f 4/4/19 8/11/18 6/12/20
s 6
f 7/13/21 1/1/22 5/14/23
f 5/14/23 1/1/22 3/3/24
