# This file uses centimeters as units for non-parametric coordinates.

g default
v -0.333333 -1.000000 0.333333
v 0.333333 -1.000000 0.333333
v -0.333333 -1.000000 -0.333333
v 0.333333 -1.000000 -0.333333
v -0.179826 1.000000 -0.281082
v -0.281082 1.000000 -0.179825
v -0.333333 1.000000 -0.056694
v -0.056695 1.000000 -0.333333
v -0.333333 0.000000 -0.056694
v -0.281082 0.000000 -0.179825
v -0.179826 0.000000 -0.281082
v -0.056695 0.000000 -0.333333
v -0.333333 -0.195613 -0.333333
v 0.281082 1.000000 -0.179825
v 0.179825 1.000000 -0.281082
v 0.056694 1.000000 -0.333333
v 0.333333 1.000000 -0.056694
v 0.056694 0.000000 -0.333333
v 0.179825 0.000000 -0.281082
v 0.281082 0.000000 -0.179825
v 0.333333 0.000000 -0.056694
v 0.333333 -0.195613 -0.333333
v -0.281082 1.000000 0.179825
v -0.179826 1.000000 0.281082
v -0.056695 1.000000 0.333333
v -0.333333 1.000000 0.056694
v -0.333333 0.000000 0.056694
v -0.333333 -0.195613 0.333333
v -0.056695 0.000000 0.333333
v -0.179826 0.000000 0.281082
v -0.281082 0.000000 0.179825
v 0.179825 1.000000 0.281082
v 0.281082 1.000000 0.179825
v 0.333333 1.000000 0.056694
v 0.056694 1.000000 0.333333
v 0.333333 0.000000 0.056694
v 0.281082 0.000000 0.179825
v 0.179825 0.000000 0.281082
v 0.056694 0.000000 0.333333
v 0.333333 -0.195613 0.333333
vt 0.450876 0.975015
vt 0.445140 0.980751
vt 0.450876 0.980751
vt 0.450876 0.972708
vt 0.445140 0.975015
vt 0.439405 0.957808
vt 0.439405 0.960115
vt 0.450876 0.957808
vt 0.456611 0.957808
vt 0.445140 0.957808
vt 0.442760 0.963544
vt 0.454231 0.963544
vt 0.441784 0.963544
vt 0.447520 0.972147
vt 0.448496 0.969279
vt 0.454231 0.960676
vt 0.447520 0.963544
vt 0.442760 0.960676
vt 0.453256 0.963544
vt 0.448496 0.960676
vt 0.441784 0.960676
vt 0.445140 0.972708
vt 0.448496 0.972147
vt 0.456611 0.960115
vt 0.447520 0.960676
vt 0.445140 0.960115
vt 0.450876 0.965924
vt 0.450876 0.966899
vt 0.447520 0.969279
vt 0.445140 0.966899
vt 0.445140 0.965924
vt 0.448496 0.963544
vt 0.453256 0.960676
vt 0.450876 0.960115
vt 0.446371 0.969279
vt 0.445140 0.969279
vt 0.439405 0.963544
vt 0.445140 0.972147
vt 0.439405 0.960676
vt 0.446343 0.972148
vt 0.450876 0.969279
vt 0.456611 0.963544
vt 0.449645 0.969279
vt 0.456611 0.960739
vt 0.450876 0.972085
vt 0.456611 0.961090
vt 0.450876 0.971733
vt 0.445140 0.963544
vt 0.446371 0.963544
vt 0.445996 0.960675
vt 0.444312 0.960675
vt 0.449645 0.963544
vt 0.450876 0.963544
vt 0.451703 0.960675
vt 0.450019 0.960675
vn -0.215715 0.000000 0.976456
vn -0.044445 0.002698 0.999008
vn 0.044445 0.002698 0.999008
vn 0.215715 0.000000 0.976456
vn -0.044445 0.002698 -0.999008
vn -0.215715 0.000000 -0.976456
vn 0.215716 0.000000 -0.976456
vn 0.044445 0.002698 -0.999008
vn 0.000000 -1.000000 0.000000
vn 0.000000 -1.000000 0.000000
vn 0.000000 -1.000000 0.000000
vn 0.000000 -1.000000 0.000000
vn 0.976456 0.000000 0.215715
vn 0.999008 0.002698 0.044445
vn 0.999008 0.002698 -0.044445
vn 0.976456 0.000000 -0.215715
vn -0.976456 0.000000 -0.215715
vn -0.999008 0.002698 -0.044445
vn -0.999008 0.002698 0.044445
vn -0.976456 0.000000 0.215715
vn 0.000000 0.000000 1.000000
vn 0.000000 0.000000 1.000000
vn 0.000000 0.000000 1.000000
vn 0.000000 0.000000 1.000000
vn 1.000000 0.000000 0.000000
vn 1.000000 0.000000 0.000000
vn 1.000000 0.000000 0.000000
vn 1.000000 0.000000 0.000000
vn -1.000000 0.000000 0.000000
vn -1.000000 0.000000 0.000000
vn -1.000000 0.000000 0.000000
vn -1.000000 0.000000 0.000000
vn 0.000000 0.000000 -1.000000
vn 0.000000 0.000000 -1.000000
vn 0.000000 0.000000 -1.000000
vn 0.000000 0.000000 -1.000000
vn -0.825343 0.000000 -0.564632
vn -0.826262 0.059995 -0.560082
vn -0.564633 0.000000 -0.825342
vn -0.560083 0.059995 -0.826262
vn 0.564633 0.000000 -0.825342
vn 0.560083 0.059996 -0.826262
vn 0.825342 0.000000 -0.564633
vn 0.826262 0.059995 -0.560082
vn -0.564633 0.000000 0.825342
vn -0.560083 0.059995 0.826262
vn -0.825343 0.000000 0.564632
vn -0.826262 0.059995 0.560082
vn 0.825342 0.000000 0.564633
vn 0.826262 0.059995 0.560083
vn 0.564633 0.000000 0.825342
vn 0.560083 0.059995 0.826262
vn -0.588219 0.554974 -0.588219
vn 0.588219 0.554974 -0.588219
vn -0.588219 0.554974 0.588219
vn 0.000000 1.000000 0.000000
vn 0.000000 1.000000 0.000000
vn 0.000000 1.000000 0.000000
vn 0.000000 1.000000 0.000000
vn 0.000000 1.000000 0.000000
vn 0.000000 1.000000 0.000000
vn 0.000000 1.000000 0.000000
vn 0.000000 1.000000 0.000000
vn 0.000000 1.000000 0.000000
vn 0.000000 1.000000 0.000000
vn 0.000000 1.000000 0.000000
vn 0.000000 1.000000 0.000000
vn 0.000000 1.000000 0.000000
vn 0.000000 1.000000 0.000000
vn 0.000000 1.000000 0.000000
vn 0.000000 1.000000 0.000000
vn 0.588219 0.554974 0.588219
s 1
g Bar09
f 25/17/1 29/25/2 39/20/3 35/32/4
f 12/14/5 8/29/6 16/15/7 18/23/8
s off
f 3/5/9 4/1/10 2/3/11 1/2/12
s 1
f 34/19/13 36/33/14 21/16/15 17/12/16
f 7/13/17 9/21/18 27/18/19 26/11/20
f 1/10/21 2/8/22 40/34/23 39/20/3 29/25/2 28/26/24
f 2/8/25 4/9/26 22/24/27 21/16/15 36/33/14 40/34/28
f 3/6/29 1/10/30 28/26/31 27/18/19 9/21/18 13/7/32
f 13/22/33 12/14/5 18/23/8 22/4/34 4/1/35 3/5/36
f 7/13/17 6/37/37 10/39/38 9/21/18
f 6/36/37 5/35/39 11/40/40 10/38/38
f 5/35/39 8/29/6 12/14/5 11/40/40
f 16/15/7 15/43/41 19/45/42 18/23/8
f 15/43/41 14/41/43 20/47/44 19/45/42
f 14/42/43 17/12/16 21/16/15 20/46/44
f 25/17/1 24/49/45 30/50/46 29/25/2
f 24/49/45 23/48/47 31/51/48 30/50/46
f 23/48/47 26/11/20 27/18/19 31/51/48
f 34/19/13 33/53/49 37/54/50 36/33/14
f 33/53/49 32/52/51 38/55/52 37/54/50
f 32/52/51 35/32/4 39/20/3 38/55/52
f 13/7/53 9/21/18 10/39/38
f 13/22/53 10/38/38 11/40/40
f 13/22/53 11/40/40 12/14/5
f 22/4/54 18/23/8 19/45/42
f 22/24/54 19/44/42 20/46/44
f 22/24/54 20/46/44 21/16/15
f 28/26/55 29/25/2 30/50/46
f 28/26/55 30/50/46 31/51/48
f 28/26/55 31/51/48 27/18/19
s off
f 32/52/56 33/53/57 34/27/58 17/28/59 14/41/60 15/43/61 16/15/62 8/29/63 5/35/64 6/36/65 7/30/66 26/31/67 23/48/68 24/49/69 25/17/70 35/32/71
s 1
f 40/34/72 36/33/14 37/54/50
f 40/34/72 37/54/50 38/55/52
f 40/34/72 38/55/52 39/20/3
