# This file uses centimeters as units for non-parametric coordinates.

g default
v 0.333333 0.333333 -0.333332
v 0.333333 0.333333 0.333332
v -0.333333 0.333333 0.333332
v 0.333333 -0.333333 0.333332
v -0.333333 0.333333 -0.333332
v 0.333333 -0.333333 -0.333332
v -0.333333 -0.333333 0.333332
v 0.333333 0.333333 -1.000000
v -0.333333 0.333333 -1.000000
v 0.333333 -0.333333 -1.000000
v -0.333333 -0.333333 -0.333332
v 0.333333 -1.000000 0.333332
v 0.333333 -1.000000 -0.333332
v -0.333333 -1.000000 0.333332
v -0.333333 -1.000000 -0.333332
v -0.333333 -0.333333 -1.000000
vt 0.456611 0.961632
vt 0.450876 0.961632
vt 0.453743 0.966412
vt 0.450876 0.959720
vt 0.445140 0.961632
vt 0.439405 0.961632
vt 0.450876 0.975015
vt 0.445140 0.975015
vt 0.442272 0.966412
vt 0.450876 0.957808
vt 0.456611 0.957808
vt 0.445140 0.959720
vt 0.450876 0.957808
vt 0.456611 0.957808
vt 0.456611 0.959720
vt 0.450876 0.959720
vt 0.445140 0.957808
vt 0.445140 0.959720
vt 0.450876 0.973103
vt 0.450876 0.975015
vt 0.445140 0.975015
vt 0.445140 0.973103
vt 0.439405 0.957808
vt 0.445140 0.957808
vt 0.450876 0.980751
vt 0.445140 0.980751
vt 0.439405 0.957808
vt 0.439405 0.959720
vt 0.450876 0.980751
vt 0.445140 0.980751
vn 1.000000 0.000000 0.000000
vn 1.000000 0.000000 0.000000
vn 1.000000 0.000000 0.000000
vn 1.000000 0.000000 0.000000
vn 0.000000 1.000000 0.000000
vn 0.000000 1.000000 0.000000
vn 0.000000 1.000000 0.000000
vn 0.000000 1.000000 0.000000
vn 1.000000 0.000000 0.000000
vn 1.000000 0.000000 0.000000
vn -1.000000 0.000000 0.000000
vn -1.000000 0.000000 0.000000
vn -1.000000 0.000000 0.000000
vn -1.000000 0.000000 0.000000
vn 1.000000 0.000000 0.000000
vn 1.000000 0.000000 0.000000
vn 0.000000 0.000000 1.000000
vn 0.000000 0.000000 1.000000
vn 0.000000 0.000000 1.000000
vn 0.000000 0.000000 1.000000
vn 0.000000 0.000000 -1.000000
vn 0.000000 0.000000 -1.000000
vn 0.000000 0.000000 -1.000000
vn 0.000000 0.000000 -1.000000
vn -1.000000 0.000000 0.000000
vn -1.000000 0.000000 0.000000
vn 0.000000 -1.000000 0.000000
vn 0.000000 -1.000000 0.000000
vn 0.000000 -1.000000 0.000000
vn 0.000000 -1.000000 0.000000
vn 0.000000 0.000000 -1.000000
vn 0.000000 0.000000 -1.000000
vn 0.000000 0.000000 -1.000000
vn 0.000000 0.000000 -1.000000
vn -1.000000 0.000000 0.000000
vn -1.000000 0.000000 0.000000
vn 0.000000 -1.000000 0.000000
vn 0.000000 -1.000000 0.000000
vn 0.000000 -1.000000 0.000000
vn 0.000000 -1.000000 0.000000
vn 0.000000 1.000000 0.000000
vn 0.000000 1.000000 0.000000
vn 0.000000 0.000000 1.000000
vn 0.000000 0.000000 1.000000
s 1
g Bar04
f 1/3/1 2/1/2 6/4/3
f 6/4/3 2/1/2 4/2/4
s 2
f 1/3/5 8/7/6 5/9/7
f 5/9/7 8/7/6 9/8/8
s 1
f 10/10/9 8/11/10 6/4/3
f 6/4/3 8/11/10 1/3/1
s 3
f 11/12/11 7/5/12 5/9/13
f 5/9/13 7/5/12 3/6/14
s 1
f 12/13/15 13/14/16 4/16/4
f 4/16/4 13/14/16 6/15/3
s 4
f 14/17/17 12/13/18 7/18/19
f 7/18/19 12/13/18 4/16/20
s 5
f 6/19/21 13/20/22 11/22/23
f 11/22/23 13/20/22 15/21/24
s 3
f 9/23/25 16/24/26 5/9/13
f 5/9/13 16/24/26 11/12/11
s 6
f 16/24/27 10/10/28 11/12/29
f 11/12/29 10/10/28 6/4/30
s 7
f 9/8/31 8/7/32 16/26/33
f 16/26/33 8/7/32 10/25/34
s 3
f 15/27/35 14/17/36 11/28/11
f 11/28/11 14/17/36 7/18/12
s 8
f 15/21/37 13/20/38 14/30/39
f 14/30/39 13/20/38 12/29/40
s 2
f 2/1/41 1/3/5 3/6/42
f 3/6/42 1/3/5 5/9/7
s 4
f 7/18/19 4/2/20 3/6/43
f 3/6/43 4/2/20 2/1/44
