# This file uses centimeters as units for non-parametric coordinates.

g default
v -1.000000 -1.000000 1.000000
v 1.000000 -1.000000 1.000000
v -1.000000 1.000000 -1.000000
v 1.000000 1.000000 -1.000000
v -1.000000 -1.000000 -1.000000
v 1.000000 -1.000000 -1.000000
v -1.000000 1.000000 0.000099
v -1.000000 0.000100 1.000000
v -1.000000 0.049039 0.691013
v -1.000000 0.191064 0.412273
v -1.000000 0.412274 0.191063
v -1.000000 0.691014 0.049038
v 1.000000 1.000000 0.000099
v 1.000000 0.691014 0.049038
v 1.000000 0.412274 0.191063
v 1.000000 0.191064 0.412273
v 1.000000 0.049039 0.691013
v 1.000000 0.000100 1.000000
vt 0.450876 0.969279
vt 0.445140 0.975015
vt 0.450876 0.975015
vt 0.445140 0.980751
vt 0.450876 0.980751
vt 0.450876 0.966411
vt 0.445140 0.969279
vt 0.445140 0.957808
vt 0.445140 0.966411
vt 0.450876 0.960676
vt 0.442273 0.963544
vt 0.439405 0.963544
vt 0.439405 0.957808
vt 0.445140 0.960676
vt 0.450876 0.957808
vt 0.456611 0.957808
vt 0.456611 0.963544
vt 0.453743 0.963544
vt 0.445256 0.961464
vt 0.445222 0.962451
vt 0.445140 0.963544
vt 0.443706 0.963544
vt 0.445140 0.964978
vt 0.450876 0.964978
vt 0.452309 0.963544
vt 0.450876 0.963544
vt 0.450566 0.962604
vt 0.450640 0.961542
vn 0.000000 0.000000 1.000000
vn 0.000000 0.000000 1.000000
vn 0.000000 0.000000 1.000000
vn 0.000000 0.000000 1.000000
vn 0.000000 1.000000 0.000000
vn 0.000000 1.000000 0.000000
vn 0.000000 1.000000 0.000000
vn 0.000000 1.000000 0.000000
vn 0.000000 0.000000 -1.000000
vn 0.000000 0.000000 -1.000000
vn 0.000000 0.000000 -1.000000
vn 0.000000 0.000000 -1.000000
vn 0.000000 -1.000000 0.000000
vn 0.000000 -1.000000 0.000000
vn 0.000000 -1.000000 0.000000
vn 0.000000 -1.000000 0.000000
vn 0.000000 0.156435 0.987688
vn 0.000000 0.309017 0.951057
vn 0.000000 0.309017 0.951057
vn 0.000000 0.156435 0.987688
vn 0.000000 0.587786 0.809017
vn 0.000000 0.587786 0.809017
vn 0.000000 0.809017 0.587785
vn 0.000000 0.809017 0.587785
vn 0.000000 0.951057 0.309017
vn 0.000000 0.951057 0.309017
vn 0.000000 0.987688 0.156434
vn 0.000000 0.987688 0.156434
vn -1.000000 0.000000 0.000000
vn -1.000000 0.000000 0.000000
vn -1.000000 0.000000 0.000000
vn 1.000000 0.000000 0.000000
vn 1.000000 0.000000 0.000000
vn 1.000000 0.000000 0.000000
vn 1.000000 0.000000 0.000000
vn 1.000000 0.000000 0.000000
vn 1.000000 0.000000 0.000000
vn 1.000000 0.000000 0.000000
vn 1.000000 0.000000 0.000000
vn 1.000000 0.000000 0.000000
vn -1.000000 0.000000 0.000000
vn -1.000000 0.000000 0.000000
vn -1.000000 0.000000 0.000000
vn -1.000000 0.000000 0.000000
vn -1.000000 0.000000 0.000000
vn -1.000000 0.000000 0.000000
s off
g Base09
f 1/8/1 2/15/2 18/10/3 8/14/4
f 7/9/5 13/6/6 4/1/7 3/7/8
f 3/7/9 4/1/10 6/3/11 5/2/12
f 5/2/13 6/3/14 2/5/15 1/4/16
s 1
f 7/9/17 12/23/18 14/24/19 13/6/20
f 12/23/18 11/21/21 15/26/22 14/24/19
f 11/21/21 10/20/23 16/27/24 15/26/22
f 10/20/23 9/19/25 17/28/26 16/27/24
f 9/19/25 8/14/27 18/10/28 17/28/26
s 2
f 11/21/29 5/13/30 10/20/31
s 3
f 14/25/32 4/17/33 13/18/34
f 15/26/35 6/16/36 4/17/33 14/25/32
f 2/15/37 6/16/36 16/27/38 17/28/39
f 16/27/38 6/16/36 15/26/35
f 2/15/37 17/28/39 18/10/40
s 2
f 12/22/41 3/12/42 5/13/30 11/21/29
f 9/19/43 1/8/44 8/14/45
f 10/20/31 5/13/30 1/8/44 9/19/43
f 7/11/46 3/12/42 12/22/41
