# This file uses centimeters as units for non-parametric coordinates.

g default
v -1.000000 -1.000000 1.000000
v 1.000000 -1.000000 1.000000
v -1.000000 1.000000 -1.000000
v 1.000000 1.000000 -1.000000
v -1.000000 -1.000000 -1.000000
v 1.000000 -1.000000 -1.000000
v -1.000000 1.000000 0.000100
v -1.000000 0.000100 1.000000
v -1.000000 0.309086 0.951061
v -1.000000 0.587826 0.809036
v -1.000000 0.809036 0.587827
v -1.000000 0.951061 0.309086
v 1.000000 1.000000 0.000100
v 1.000000 0.951061 0.309086
v 1.000000 0.809036 0.587827
v 1.000000 0.587826 0.809036
v 1.000000 0.309086 0.951061
v 1.000000 0.000100 1.000000
vt 0.450876 0.969279
vt 0.445140 0.975015
vt 0.450876 0.975015
vt 0.445140 0.980751
vt 0.450876 0.980751
vt 0.450876 0.966411
vt 0.445140 0.969279
vt 0.445140 0.957808
vt 0.445140 0.966411
vt 0.450876 0.960676
vt 0.442273 0.963544
vt 0.439405 0.963544
vt 0.439405 0.957808
vt 0.445140 0.960676
vt 0.450876 0.957808
vt 0.456611 0.957808
vt 0.456611 0.963544
vt 0.453743 0.963544
vt 0.445275 0.961632
vt 0.445275 0.962588
vt 0.445140 0.963544
vt 0.443706 0.963544
vt 0.445140 0.964978
vt 0.450876 0.964978
vt 0.452309 0.963544
vt 0.450876 0.963544
vt 0.450741 0.962588
vt 0.450741 0.961632
vn 0.000000 0.000000 1.000000
vn 0.000000 0.000000 1.000000
vn 0.000000 0.037358 0.999302
vn 0.000000 0.037358 0.999302
vn 0.000000 0.999302 0.037358
vn 0.000000 0.999302 0.037358
vn 0.000000 1.000000 0.000000
vn 0.000000 1.000000 0.000000
vn 0.000000 0.000000 -1.000000
vn 0.000000 0.000000 -1.000000
vn 0.000000 0.000000 -1.000000
vn 0.000000 0.000000 -1.000000
vn 0.000000 -1.000000 0.000000
vn 0.000000 -1.000000 0.000000
vn 0.000000 -1.000000 0.000000
vn 0.000000 -1.000000 0.000000
vn 0.000000 0.951057 0.309017
vn 0.000000 0.951057 0.309017
vn 0.000000 0.809017 0.587785
vn 0.000000 0.809017 0.587785
vn 0.000000 0.587785 0.809017
vn 0.000000 0.587785 0.809017
vn 0.000000 0.309017 0.951057
vn 0.000000 0.309017 0.951057
vn -1.000000 0.000000 0.000000
vn -1.000000 0.000000 0.000000
vn -1.000000 0.000000 0.000000
vn -1.000000 0.000000 0.000000
vn -1.000000 0.000000 0.000000
vn -1.000000 0.000000 0.000000
vn -1.000000 0.000000 0.000000
vn -1.000000 0.000000 0.000000
vn -1.000000 0.000000 0.000000
vn 1.000000 0.000000 0.000000
vn 1.000000 0.000000 0.000000
vn 1.000000 0.000000 0.000000
vn 1.000000 0.000000 0.000000
vn 1.000000 0.000000 0.000000
vn 1.000000 0.000000 0.000000
vn 1.000000 0.000000 0.000000
vn 1.000000 0.000000 0.000000
vn 1.000000 0.000000 0.000000
s 1
g Base05
f 1/8/1 2/15/2 18/10/3 8/14/4
f 7/9/5 13/6/6 4/1/7 3/7/8
s off
f 3/7/9 4/1/10 6/3/11 5/2/12
f 5/2/13 6/3/14 2/5/15 1/4/16
s 1
f 7/9/5 12/23/17 14/24/18 13/6/6
f 12/23/17 11/21/19 15/26/20 14/24/18
f 11/21/19 10/20/21 16/27/22 15/26/20
f 10/20/21 9/19/23 17/28/24 16/27/22
f 9/19/23 8/14/4 18/10/3 17/28/24
s off
f 7/11/25 3/12/26 5/13/27 1/8/28 8/14/29 9/19/30 10/20/31 11/21/32 12/22/33
f 2/15/34 6/16/35 4/17/36 13/18/37 14/25/38 15/26/39 16/27/40 17/28/41 18/10/42
