# This file uses centimeters as units for non-parametric coordinates.

g default
v -0.044334 -0.347451 0.280192
v -0.044334 -0.347451 -0.280192
v 0.436282 1.652549 0.280192
v 0.436282 1.652549 -0.280192
v 0.436282 1.652549 0.280192
v 0.436282 1.652549 -0.280192
v -1.044334 -0.347451 0.280192
v -1.044334 -0.347451 -0.280192
v 0.044334 0.347450 0.280192
v 0.044334 0.347450 -0.280192
v -0.454273 -1.652549 0.280192
v -0.454273 -1.652549 -0.280192
v -0.454273 -1.652549 0.280192
v -0.454273 -1.652549 -0.280192
v 1.044334 0.347450 0.280192
v 1.044334 0.347450 -0.280192
v -0.827521 -0.235058 -0.280192
v -0.144187 -0.235058 -0.280192
v 0.246860 1.278777 -0.280192
v 0.246860 1.278777 -0.280192
v -0.827521 -0.235058 0.280192
v -0.144187 -0.235058 0.280192
v 0.246860 1.278777 0.280192
v 0.246860 1.278777 0.280192
v 0.793872 0.228641 -0.280192
v 0.110538 0.228641 -0.280192
v -0.261490 -1.278932 -0.280192
v -0.261490 -1.278932 -0.280192
v 0.793872 0.228641 0.280192
v 0.110538 0.228641 0.280192
v -0.261490 -1.278932 0.280192
v -0.261490 -1.278932 0.280192
v -0.827521 -0.235058 -0.163151
v -0.144187 -0.235058 -0.163151
v 0.246860 1.278777 -0.163151
v 0.246860 1.278777 -0.163151
v -0.827521 -0.235058 0.163150
v -0.144187 -0.235058 0.163150
v 0.246860 1.278777 0.163150
v 0.246860 1.278777 0.163150
v 0.793872 0.228641 -0.163151
v 0.110538 0.228641 -0.163151
v -0.261490 -1.278932 -0.163151
v -0.261490 -1.278932 -0.163151
v 0.793872 0.228641 0.163150
v 0.110538 0.228641 0.163150
v -0.261489 -1.278932 0.163150
v -0.261489 -1.278932 0.163150
vt 0.764987 0.972936
vt 0.770723 0.972936
vt 0.764987 0.978672
vt 0.770723 0.978672
vt 0.764987 0.984407
vt 0.770723 0.984407
vt 0.764987 0.990143
vt 0.770723 0.990143
vt 0.764987 0.995878
vt 0.770723 0.995878
vt 0.776458 0.972936
vt 0.776458 0.978672
vt 0.759252 0.972936
vt 0.759252 0.978672
vt 0.764987 0.972936
vt 0.770723 0.972936
vt 0.770723 0.978672
vt 0.764987 0.978672
vt 0.770723 0.984407
vt 0.764987 0.984407
vt 0.770723 0.990143
vt 0.764987 0.990143
vt 0.770723 0.995878
vt 0.764987 0.995878
vt 0.776458 0.972936
vt 0.776458 0.978672
vt 0.759252 0.972936
vt 0.759252 0.978672
vt 0.770723 0.972936
vt 0.776458 0.972936
vt 0.776458 0.978672
vt 0.770723 0.978672
vt 0.759252 0.972936
vt 0.764987 0.972936
vt 0.764987 0.978672
vt 0.759252 0.978672
vt 0.770723 0.972936
vt 0.776458 0.972936
vt 0.776458 0.978672
vt 0.770723 0.978672
vt 0.759252 0.972936
vt 0.764987 0.972936
vt 0.764987 0.978672
vt 0.759252 0.978672
vt 0.809606 0.937739
vt 0.795242 0.937739
vt 0.817825 0.957911
vt 0.817825 0.957911
vt 0.795242 0.937739
vt 0.809606 0.937739
vt 0.817825 0.957911
vt 0.817825 0.957911
vt 0.814960 0.943918
vt 0.829324 0.943918
vt 0.807140 0.923829
vt 0.807140 0.923829
vt 0.829324 0.943918
vt 0.814960 0.943918
vt 0.807140 0.923829
vt 0.807140 0.923829
vt 0.809606 0.937739
vt 0.795242 0.937739
vt 0.817825 0.957911
vt 0.817825 0.957911
vt 0.795242 0.937739
vt 0.809606 0.937739
vt 0.817825 0.957911
vt 0.817825 0.957911
vt 0.814960 0.943918
vt 0.829324 0.943918
vt 0.807140 0.923829
vt 0.807140 0.923829
vt 0.829324 0.943918
vt 0.814960 0.943918
vt 0.807140 0.923829
vt 0.807140 0.923829
vn 0.972319 -0.233656 0.000000
vn 0.972319 -0.233656 0.000000
vn 0.972319 -0.233656 0.000000
vn 0.972319 -0.233656 0.000000
vn 0.000000 0.000000 0.000000
vn 0.000000 0.000000 0.000000
vn 0.000000 0.000000 0.000000
vn 0.000000 0.000000 0.000000
vn -0.803723 0.595003 0.000000
vn -0.803723 0.595003 0.000000
vn -0.803723 0.595003 0.000000
vn -0.803723 0.595003 0.000000
vn 0.000000 -1.000000 0.000000
vn 0.000000 -1.000000 0.000000
vn 0.000000 -1.000000 0.000000
vn 0.000000 -1.000000 0.000000
vn 0.000000 0.000000 -1.000000
vn 0.000000 0.000000 -1.000000
vn 0.000000 0.000000 -0.000000
vn 0.000000 0.000000 -0.000000
vn 0.000000 0.000000 1.000000
vn 0.000000 0.000000 1.000000
vn 0.000000 0.000000 0.000000
vn 0.000000 0.000000 0.000000
vn -0.970301 0.241900 0.000000
vn -0.970301 0.241900 0.000000
vn -0.970301 0.241900 0.000000
vn -0.970301 0.241900 0.000000
vn 0.000000 0.000000 0.000000
vn 0.000000 0.000000 0.000000
vn 0.000000 0.000000 0.000000
vn 0.000000 0.000000 0.000000
vn 0.800267 -0.599644 0.000000
vn 0.800267 -0.599644 0.000000
vn 0.800267 -0.599644 0.000000
vn 0.800267 -0.599644 0.000000
vn 0.000000 1.000000 0.000000
vn 0.000000 1.000000 0.000000
vn 0.000000 1.000000 0.000000
vn 0.000000 1.000000 0.000000
vn 0.000000 0.000000 -1.000000
vn 0.000000 0.000000 -1.000000
vn 0.000000 0.000000 -0.000000
vn 0.000000 0.000000 -0.000000
vn 0.000000 0.000000 1.000000
vn 0.000000 0.000000 1.000000
vn 0.000000 0.000000 0.000000
vn 0.000000 0.000000 0.000000
vn 0.000000 0.000000 -1.000000
vn -0.000000 0.000000 -1.000000
vn -0.000000 0.000000 -1.000000
vn 0.000000 0.000000 -1.000000
vn -0.000000 0.000000 -1.000000
vn -0.000000 0.000000 -1.000000
vn 0.000000 0.000000 0.000000
vn 0.000000 0.000000 0.000000
vn 0.000000 0.000000 0.000000
vn 0.000000 0.000000 0.000000
vn 0.000000 0.000000 -1.000000
vn 0.000000 0.000000 -1.000000
vn -0.000000 0.000000 1.000000
vn 0.000000 0.000000 1.000000
vn 0.000000 0.000000 1.000000
vn -0.000000 0.000000 1.000000
vn 0.000000 0.000000 1.000000
vn 0.000000 0.000000 1.000000
vn 0.000000 0.000000 0.000000
vn 0.000000 0.000000 0.000000
vn 0.000000 0.000000 0.000000
vn 0.000000 0.000000 0.000000
vn -0.000000 0.000000 1.000000
vn -0.000000 0.000000 1.000000
vn 0.000000 0.000000 -1.000000
vn 0.000000 0.000000 -1.000000
vn 0.000000 0.000000 -1.000000
vn 0.000000 0.000000 -1.000000
vn 0.000000 0.000000 -1.000000
vn 0.000000 0.000000 -1.000000
vn 0.000000 0.000000 0.000000
vn 0.000000 0.000000 0.000000
vn 0.000000 0.000000 0.000000
vn 0.000000 0.000000 0.000000
vn 0.000000 0.000000 -1.000000
vn 0.000000 0.000000 -1.000000
vn -0.000000 0.000000 1.000000
vn -0.000000 0.000000 1.000000
vn -0.000000 0.000000 1.000000
vn -0.000000 0.000000 1.000000
vn -0.000000 0.000000 1.000000
vn -0.000000 0.000000 1.000000
vn 0.000000 0.000000 0.000000
vn 0.000000 0.000000 0.000000
vn 0.000000 0.000000 0.000000
vn 0.000000 0.000000 0.000000
vn -0.000000 0.000000 1.000000
vn -0.000000 0.000000 1.000000
vn 0.000000 1.000000 0.000000
vn 0.000000 1.000000 0.000000
vn 0.000000 1.000000 0.000000
vn 0.000000 1.000000 0.000000
vn 0.815495 -0.578763 0.000000
vn 0.815495 -0.578763 0.000000
vn 0.815495 -0.578763 0.000000
vn 0.815495 -0.578763 0.000000
vn 0.000000 0.000000 0.000000
vn 0.000000 0.000000 0.000000
vn 0.000000 0.000000 0.000000
vn 0.000000 0.000000 0.000000
vn -0.968219 0.250105 0.000000
vn -0.968219 0.250105 0.000000
vn -0.968219 0.250105 0.000000
vn -0.968219 0.250105 0.000000
vn 0.000000 1.000000 0.000000
vn 0.000000 1.000000 0.000000
vn 0.000000 1.000000 0.000000
vn 0.000000 1.000000 0.000000
vn -0.968219 0.250105 0.000000
vn -0.968219 0.250105 0.000000
vn -0.968219 0.250105 0.000000
vn -0.968219 0.250105 0.000000
vn 0.000000 0.000000 0.000000
vn 0.000000 0.000000 0.000000
vn 0.000000 0.000000 0.000000
vn 0.000000 0.000000 0.000000
vn 0.815495 -0.578763 0.000000
vn 0.815495 -0.578763 0.000000
vn 0.815495 -0.578763 0.000000
vn 0.815495 -0.578763 0.000000
vn 0.000000 -1.000000 0.000000
vn 0.000000 -1.000000 0.000000
vn 0.000000 -1.000000 0.000000
vn 0.000000 -1.000000 0.000000
vn -0.819216 0.573485 0.000000
vn -0.819216 0.573485 0.000000
vn -0.819216 0.573485 0.000000
vn -0.819216 0.573485 0.000000
vn 0.000000 0.000000 0.000000
vn 0.000000 0.000000 0.000000
vn 0.000000 0.000000 0.000000
vn 0.000000 0.000000 0.000000
vn 0.970875 -0.239585 0.000000
vn 0.970875 -0.239585 0.000000
vn 0.970875 -0.239585 0.000000
vn 0.970875 -0.239585 0.000000
vn 0.000000 -1.000000 0.000000
vn 0.000000 -1.000000 0.000000
vn 0.000000 -1.000000 0.000000
vn 0.000000 -1.000000 0.000000
vn 0.970875 -0.239585 0.000004
vn 0.970875 -0.239585 0.000004
vn 0.970875 -0.239585 0.000004
vn 0.970875 -0.239585 0.000004
vn 0.000000 0.000000 0.000000
vn 0.000000 0.000000 0.000000
vn 0.000000 0.000000 0.000000
vn 0.000000 0.000000 0.000000
vn -0.819216 0.573484 -0.000003
vn -0.819217 0.573484 -0.000003
vn -0.819217 0.573484 -0.000003
vn -0.819217 0.573484 -0.000003
s off
g Energy01
f 1/1/1 2/2/2 4/4/3 3/3/4
f 3/3/5 4/4/6 6/6/7 5/5/8
f 5/5/9 6/6/10 8/8/11 7/7/12
f 7/7/13 8/8/14 2/10/15 1/9/16
f 34/45/17 33/46/18 35/47/19 36/48/20
f 37/49/21 38/50/22 39/51/23 40/52/24
f 9/15/25 10/16/26 12/17/27 11/18/28
f 11/18/29 12/17/30 14/19/31 13/20/32
f 13/20/33 14/19/34 16/21/35 15/22/36
f 15/22/37 16/21/38 10/23/39 9/24/40
f 42/53/41 41/54/42 43/55/43 44/56/44
f 45/57/45 46/58/46 47/59/47 48/60/48
s 1
f 2/2/49 8/11/50 17/30/51 18/29/52
f 8/11/50 6/12/53 19/31/54 17/30/51
s off
f 6/12/55 4/4/56 20/32/57 19/31/58
s 1
f 4/4/59 2/2/49 18/29/52 20/32/60
s 2
f 7/13/61 1/1/62 22/34/63 21/33/64
f 1/1/62 3/3/65 23/35/66 22/34/63
s off
f 3/3/67 5/14/68 24/36/69 23/35/70
s 2
f 5/14/71 7/13/61 21/33/64 24/36/72
s 3
f 10/16/73 16/25/74 25/38/75 26/37/76
f 16/25/74 14/26/77 27/39/78 25/38/75
s off
f 14/26/79 12/17/80 28/40/81 27/39/82
s 3
f 12/17/83 10/16/73 26/37/76 28/40/84
s 4
f 15/27/85 9/15/86 30/42/87 29/41/88
f 9/15/86 11/18/89 31/43/90 30/42/87
s off
f 11/18/91 13/28/92 32/44/93 31/43/94
s 4
f 13/28/95 15/27/85 29/41/88 32/44/96
s off
f 18/61/97 17/62/98 33/46/99 34/45/100
f 17/62/101 19/63/102 35/47/103 33/46/104
f 19/63/105 20/64/106 36/48/107 35/47/108
f 20/64/109 18/61/110 34/45/111 36/48/112
f 21/65/113 22/66/114 38/50/115 37/49/116
f 22/66/117 23/67/118 39/51/119 38/50/120
f 23/67/121 24/68/122 40/52/123 39/51/124
f 24/68/125 21/65/126 37/49/127 40/52/128
f 26/69/129 25/70/130 41/54/131 42/53/132
f 25/70/133 27/71/134 43/55/135 41/54/136
f 27/71/137 28/72/138 44/56/139 43/55/140
f 28/72/141 26/69/142 42/53/143 44/56/144
f 29/73/145 30/74/146 46/58/147 45/57/148
f 30/74/149 31/75/150 47/59/151 46/58/152
f 31/75/153 32/76/154 48/60/155 47/59/156
f 32/76/157 29/73/158 45/57/159 48/60/160
