# This file uses centimeters as units for non-parametric coordinates.

g default
v -0.044334 -0.347451 0.280192
v -0.044334 -0.347451 -0.280192
v 0.436282 1.652549 0.280192
v 0.436282 1.652549 -0.280192
v 0.436282 1.652549 0.280192
v 0.436282 1.652549 -0.280192
v -1.044334 -0.347451 0.280192
v -1.044334 -0.347451 -0.280192
v 0.044334 0.347450 0.280192
v 0.044334 0.347450 -0.280192
v -0.454273 -1.652549 0.280192
v -0.454273 -1.652549 -0.280192
v -0.454273 -1.652549 0.280192
v -0.454273 -1.652549 -0.280192
v 1.044334 0.347450 0.280192
v 1.044334 0.347450 -0.280192
v -0.827521 -0.235058 -0.280192
v -0.144187 -0.235058 -0.280192
v 0.246860 1.278777 -0.280192
v 0.246860 1.278777 -0.280192
v -0.827521 -0.235058 0.280192
v -0.144187 -0.235058 0.280192
v 0.246860 1.278777 0.280192
v 0.246860 1.278777 0.280192
v 0.793872 0.228641 -0.280192
v 0.110538 0.228641 -0.280192
v -0.261490 -1.278932 -0.280192
v -0.261490 -1.278932 -0.280192
v 0.793872 0.228641 0.280192
v 0.110538 0.228641 0.280192
v -0.261490 -1.278932 0.280192
v -0.261490 -1.278932 0.280192
v -0.827521 -0.235058 -0.163151
v -0.144187 -0.235058 -0.163151
v 0.246860 1.278777 -0.163151
v 0.246860 1.278777 -0.163151
v -0.827521 -0.235058 0.163150
v -0.144187 -0.235058 0.163150
v 0.246860 1.278777 0.163150
v 0.246860 1.278777 0.163150
v 0.793872 0.228641 -0.163151
v 0.110538 0.228641 -0.163151
v -0.261490 -1.278932 -0.163151
v -0.261490 -1.278932 -0.163151
v 0.793872 0.228641 0.163150
v 0.110538 0.228641 0.163150
v -0.261489 -1.278932 0.163150
v -0.261489 -1.278932 0.163150
vt 0.764987 0.972936
vt 0.770723 0.972936
vt 0.764987 0.978672
vt 0.770723 0.978672
vt 0.764987 0.984407
vt 0.770723 0.984407
vt 0.764987 0.990143
vt 0.770723 0.990143
vt 0.764987 0.995878
vt 0.770723 0.995878
vt 0.776458 0.972936
vt 0.776458 0.978672
vt 0.759252 0.972936
vt 0.759252 0.978672
vt 0.764987 0.972936
vt 0.770723 0.972936
vt 0.770723 0.978672
vt 0.764987 0.978672
vt 0.770723 0.984407
vt 0.764987 0.984407
vt 0.770723 0.990143
vt 0.764987 0.990143
vt 0.770723 0.995878
vt 0.764987 0.995878
vt 0.776458 0.972936
vt 0.776458 0.978672
vt 0.759252 0.972936
vt 0.759252 0.978672
vt 0.770723 0.972936
vt 0.776458 0.972936
vt 0.776458 0.978672
vt 0.770723 0.978672
vt 0.759252 0.972936
vt 0.764987 0.972936
vt 0.764987 0.978672
vt 0.759252 0.978672
vt 0.770723 0.972936
vt 0.776458 0.972936
vt 0.776458 0.978672
vt 0.770723 0.978672
vt 0.759252 0.972936
vt 0.764987 0.972936
vt 0.764987 0.978672
vt 0.759252 0.978672
vt 0.809606 0.937739
vt 0.795242 0.937739
vt 0.817825 0.957911
vt 0.817825 0.957911
vt 0.795242 0.937739
vt 0.809606 0.937739
vt 0.817825 0.957911
vt 0.817825 0.957911
vt 0.814960 0.943918
vt 0.829324 0.943918
vt 0.807140 0.923829
vt 0.807140 0.923829
vt 0.829324 0.943918
vt 0.814960 0.943918
vt 0.807140 0.923829
vt 0.807140 0.923829
vt 0.809606 0.937739
vt 0.795242 0.937739
vt 0.817825 0.957911
vt 0.817825 0.957911
vt 0.795242 0.937739
vt 0.809606 0.937739
vt 0.817825 0.957911
vt 0.817825 0.957911
vt 0.814960 0.943918
vt 0.829324 0.943918
vt 0.807140 0.923829
vt 0.807140 0.923829
vt 0.829324 0.943918
vt 0.814960 0.943918
vt 0.807140 0.923829
vt 0.807140 0.923829
vn 0.972319 -0.233656 0.000000
vn 0.972319 -0.233656 0.000000
vn 0.972319 -0.233656 0.000000
vn 0.972319 -0.233656 0.000000
vn 0.000000 0.000000 0.000000
vn 0.000000 0.000000 0.000000
vn 0.000000 0.000000 0.000000
vn 0.000000 0.000000 0.000000
vn -0.803723 0.595003 0.000000
vn -0.803723 0.595003 0.000000
vn -0.803723 0.595003 0.000000
vn -0.803723 0.595003 0.000000
vn 0.000000 -1.000000 0.000000
vn 0.000000 -1.000000 0.000000
vn 0.000000 -1.000000 0.000000
vn 0.000000 -1.000000 0.000000
vn 0.000000 0.000000 0.000000
vn 0.000000 0.000000 -1.000000
vn 0.000000 0.000000 -1.000000
vn 0.000000 0.000000 -1.000000
vn 0.000000 0.000000 0.000000
vn 0.000000 0.000000 1.000000
vn 0.000000 0.000000 1.000000
vn 0.000000 0.000000 1.000000
vn -0.970301 0.241900 0.000000
vn -0.970301 0.241900 0.000000
vn -0.970301 0.241900 0.000000
vn -0.970301 0.241900 0.000000
vn 0.000000 0.000000 0.000000
vn 0.000000 0.000000 0.000000
vn 0.000000 0.000000 0.000000
vn 0.000000 0.000000 0.000000
vn 0.800267 -0.599644 0.000000
vn 0.800267 -0.599644 0.000000
vn 0.800267 -0.599644 0.000000
vn 0.800267 -0.599644 0.000000
vn 0.000000 1.000000 0.000000
vn 0.000000 1.000000 0.000000
vn 0.000000 1.000000 0.000000
vn 0.000000 1.000000 0.000000
vn 0.000000 0.000000 0.000000
vn 0.000000 0.000000 -1.000000
vn 0.000000 0.000000 -1.000000
vn 0.000000 0.000000 -1.000000
vn 0.000000 0.000000 0.000000
vn 0.000000 0.000000 1.000000
vn 0.000000 0.000000 1.000000
vn 0.000000 0.000000 1.000000
vn -0.000000 0.000000 -1.000000
vn -0.000000 0.000000 -1.000000
vn 0.000000 0.000000 -1.000000
vn 0.000000 0.000000 -1.000000
vn 0.000000 0.000000 -1.000000
vn -0.000000 0.000000 -1.000000
vn 0.000000 0.000000 0.000000
vn 0.000000 0.000000 0.000000
vn 0.000000 0.000000 0.000000
vn 0.000000 0.000000 0.000000
vn -0.000000 0.000000 -1.000000
vn -0.000000 0.000000 -1.000000
vn -0.000000 0.000000 1.000000
vn 0.000000 0.000000 1.000000
vn -0.000000 0.000000 1.000000
vn 0.000000 0.000000 1.000000
vn 0.000000 0.000000 1.000000
vn 0.000000 0.000000 1.000000
vn 0.000000 0.000000 0.000000
vn 0.000000 0.000000 0.000000
vn 0.000000 0.000000 0.000000
vn 0.000000 0.000000 0.000000
vn 0.000000 0.000000 1.000000
vn 0.000000 0.000000 1.000000
vn 0.000000 0.000000 -1.000000
vn 0.000000 0.000000 -1.000000
vn -0.000000 0.000000 -1.000000
vn -0.000000 0.000000 -1.000000
vn 0.000000 0.000000 -1.000000
vn 0.000000 0.000000 -1.000000
vn 0.000000 0.000000 0.000000
vn 0.000000 0.000000 0.000000
vn 0.000000 0.000000 0.000000
vn 0.000000 0.000000 0.000000
vn 0.000000 0.000000 -1.000000
vn 0.000000 0.000000 -1.000000
vn 0.000000 0.000000 1.000000
vn -0.000000 0.000000 1.000000
vn 0.000000 0.000000 1.000000
vn -0.000000 0.000000 1.000000
vn 0.000000 0.000000 1.000000
vn -0.000000 0.000000 1.000000
vn 0.000000 0.000000 0.000000
vn 0.000000 0.000000 0.000000
vn 0.000000 0.000000 0.000000
vn 0.000000 0.000000 0.000000
vn -0.000000 0.000000 1.000000
vn -0.000000 0.000000 1.000000
vn 0.000000 1.000000 0.000000
vn 0.000000 1.000000 0.000000
vn 0.000000 1.000000 0.000000
vn 0.000000 1.000000 0.000000
vn 0.815495 -0.578763 0.000000
vn 0.815496 -0.578763 0.000000
vn 0.815495 -0.578764 0.000000
vn 0.815496 -0.578763 0.000000
vn 0.000000 0.000000 0.000000
vn 0.000000 0.000000 0.000000
vn 0.000000 0.000000 0.000000
vn 0.000000 0.000000 0.000000
vn -0.968219 0.250105 0.000000
vn -0.968219 0.250105 0.000000
vn -0.968219 0.250106 0.000000
vn -0.968219 0.250105 0.000000
vn 0.000000 1.000000 0.000000
vn 0.000000 1.000000 0.000000
vn 0.000000 1.000000 0.000000
vn 0.000000 1.000000 0.000000
vn -0.968219 0.250105 0.000000
vn -0.968219 0.250105 0.000000
vn -0.968219 0.250105 0.000000
vn -0.968219 0.250105 0.000000
vn 0.000000 0.000000 0.000000
vn 0.000000 0.000000 0.000000
vn 0.000000 0.000000 0.000000
vn 0.000000 0.000000 0.000000
vn 0.815496 -0.578763 0.000000
vn 0.815495 -0.578763 0.000000
vn 0.815496 -0.578763 0.000000
vn 0.815495 -0.578764 0.000000
vn 0.000000 -1.000000 0.000000
vn 0.000000 -1.000000 0.000000
vn 0.000000 -1.000000 0.000000
vn 0.000000 -1.000000 0.000000
vn -0.819216 0.573485 0.000000
vn -0.819216 0.573485 0.000000
vn -0.819216 0.573485 0.000000
vn -0.819216 0.573485 0.000000
vn 0.000000 0.000000 0.000000
vn 0.000000 0.000000 0.000000
vn 0.000000 0.000000 0.000000
vn 0.000000 0.000000 0.000000
vn 0.970875 -0.239585 0.000000
vn 0.970875 -0.239585 0.000000
vn 0.970875 -0.239585 0.000000
vn 0.970875 -0.239585 0.000000
vn 0.000000 -1.000000 0.000000
vn 0.000000 -1.000000 0.000000
vn 0.000000 -1.000000 0.000000
vn 0.000000 -1.000000 0.000000
vn 0.970875 -0.239585 0.000000
vn 0.970876 -0.239585 0.000008
vn 0.970875 -0.239585 0.000000
vn 0.970876 -0.239585 0.000008
vn 0.000000 0.000000 0.000000
vn 0.000000 0.000000 0.000000
vn 0.000000 0.000000 0.000000
vn 0.000000 0.000000 0.000000
vn -0.819216 0.573485 -0.000006
vn -0.819217 0.573484 -0.000000
vn -0.819216 0.573484 -0.000006
vn -0.819217 0.573484 0.000000
s 1
g Energy01
f 1/1/1 2/2/2 3/3/3
f 3/3/3 2/2/2 4/4/4
s 2
f 5/5/5 3/3/6 6/6/7
f 3/3/6 4/4/8 6/6/7
s 3
f 5/5/9 6/6/10 7/7/11
f 7/7/11 6/6/10 8/8/12
s 4
f 7/7/13 8/8/14 1/9/15
f 1/9/15 8/8/14 2/10/16
s 5
f 36/48/17 34/45/18 35/47/19
f 34/45/18 33/46/20 35/47/19
s 6
f 40/52/21 37/49/22 39/51/23
f 37/49/22 38/50/24 39/51/23
s 7
f 9/15/25 10/16/26 11/18/27
f 11/18/27 10/16/26 12/17/28
s 8
f 13/20/29 11/18/30 14/19/31
f 11/18/30 12/17/32 14/19/31
s 9
f 13/20/33 14/19/34 15/22/35
f 15/22/35 14/19/34 16/21/36
s 10
f 15/22/37 16/21/38 9/24/39
f 9/24/39 16/21/38 10/23/40
s 11
f 44/56/41 42/53/42 43/55/43
f 42/53/42 41/54/44 43/55/43
s 12
f 48/60/45 45/57/46 47/59/47
f 45/57/46 46/58/48 47/59/47
s 13
f 8/11/49 17/30/50 2/2/51
f 2/2/51 17/30/50 18/29/52
f 6/12/53 19/31/54 8/11/49
f 8/11/49 19/31/54 17/30/50
s 14
f 19/31/55 6/12/56 20/32/57
f 6/12/56 4/4/58 20/32/57
s 13
f 4/4/59 2/2/51 20/32/60
f 20/32/60 2/2/51 18/29/52
s 15
f 7/13/61 1/1/62 21/33/63
f 21/33/63 1/1/62 22/34/64
f 3/3/65 23/35/66 1/1/62
f 1/1/62 23/35/66 22/34/64
s 16
f 23/35/67 3/3/68 24/36/69
f 3/3/68 5/14/70 24/36/69
s 15
f 5/14/71 7/13/61 24/36/72
f 24/36/72 7/13/61 21/33/63
s 17
f 16/25/73 25/38/74 10/16/75
f 10/16/75 25/38/74 26/37/76
f 14/26/77 27/39/78 16/25/73
f 16/25/73 27/39/78 25/38/74
s 18
f 27/39/79 14/26/80 28/40/81
f 14/26/80 12/17/82 28/40/81
s 17
f 12/17/83 10/16/75 28/40/84
f 28/40/84 10/16/75 26/37/76
s 19
f 15/27/85 9/15/86 29/41/87
f 29/41/87 9/15/86 30/42/88
f 11/18/89 31/43/90 9/15/86
f 9/15/86 31/43/90 30/42/88
s 20
f 31/43/91 11/18/92 32/44/93
f 11/18/92 13/28/94 32/44/93
s 19
f 13/28/95 15/27/85 32/44/96
f 32/44/96 15/27/85 29/41/87
s 21
f 18/61/97 17/62/98 34/45/99
f 34/45/99 17/62/98 33/46/100
s 22
f 17/62/101 19/63/102 33/46/103
f 33/46/103 19/63/102 35/47/104
s 23
f 35/47/105 19/63/106 36/48/107
f 19/63/106 20/64/108 36/48/107
s 24
f 20/64/109 18/61/110 36/48/111
f 36/48/111 18/61/110 34/45/112
s 25
f 21/65/113 22/66/114 37/49/115
f 37/49/115 22/66/114 38/50/116
s 26
f 22/66/117 23/67/118 38/50/119
f 38/50/119 23/67/118 39/51/120
s 27
f 39/51/121 23/67/122 40/52/123
f 23/67/122 24/68/124 40/52/123
s 28
f 24/68/125 21/65/126 40/52/127
f 40/52/127 21/65/126 37/49/128
s 29
f 26/69/129 25/70/130 42/53/131
f 42/53/131 25/70/130 41/54/132
s 30
f 25/70/133 27/71/134 41/54/135
f 41/54/135 27/71/134 43/55/136
s 31
f 43/55/137 27/71/138 44/56/139
f 27/71/138 28/72/140 44/56/139
s 32
f 28/72/141 26/69/142 44/56/143
f 44/56/143 26/69/142 42/53/144
s 33
f 29/73/145 30/74/146 45/57/147
f 45/57/147 30/74/146 46/58/148
s 34
f 30/74/149 31/75/150 46/58/151
f 46/58/151 31/75/150 47/59/152
s 35
f 47/59/153 31/75/154 48/60/155
f 31/75/154 32/76/156 48/60/155
s 36
f 32/76/157 29/73/158 48/60/159
f 48/60/159 29/73/158 45/57/160
