# This file uses centimeters as units for non-parametric coordinates.

g default
v -1.000000 -1.000000 0.000000
v 1.000000 -1.000000 0.000000
v -1.000000 1.000000 -0.500000
v 1.000000 1.000000 -0.500000
v -1.000000 1.000000 -0.500000
v 1.000000 1.000000 -0.500000
v -1.000000 -1.000000 -1.000000
v 1.000000 -1.000000 -1.000000
v -1.000000 -1.000000 1.000000
v 1.000000 -1.000000 1.000000
v -1.000000 1.000000 0.500000
v 1.000000 1.000000 0.500000
v -1.000000 1.000000 0.500000
v 1.000000 1.000000 0.500000
v -1.000000 -1.000000 0.000000
v 1.000000 -1.000000 0.000000
vt 0.445140 0.957808
vt 0.450876 0.957808
vt 0.445140 0.963544
vt 0.450876 0.963544
vt 0.445140 0.969279
vt 0.450876 0.969279
vt 0.445140 0.975015
vt 0.450876 0.975015
vt 0.445140 0.980751
vt 0.450876 0.980751
vt 0.456611 0.957808
vt 0.456611 0.963544
vt 0.439405 0.957808
vt 0.439405 0.963544
vt 0.445140 0.957808
vt 0.450876 0.957808
vt 0.450876 0.963544
vt 0.445140 0.963544
vt 0.450876 0.969279
vt 0.445140 0.969279
vt 0.450876 0.975015
vt 0.445140 0.975015
vt 0.450876 0.980751
vt 0.445140 0.980751
vt 0.456611 0.957808
vt 0.456611 0.963544
vt 0.439405 0.957808
vt 0.439405 0.963544
vn 0.000000 0.242536 0.970143
vn 0.000000 0.242536 0.970143
vn 0.000000 0.242536 0.970143
vn 0.000000 0.242536 0.970143
vn 0.000000 0.000000 0.000000
vn 0.000000 0.000000 0.000000
vn 0.000000 0.000000 0.000000
vn 0.000000 0.000000 0.000000
vn 0.000000 0.242536 -0.970143
vn 0.000000 0.242536 -0.970143
vn 0.000000 0.242536 -0.970143
vn 0.000000 0.242536 -0.970143
vn 0.000000 -1.000000 0.000000
vn 0.000000 -1.000000 0.000000
vn 0.000000 -1.000000 0.000000
vn 0.000000 -1.000000 0.000000
vn 0.000000 0.000000 0.000000
vn 1.000000 0.000000 0.000000
vn 1.000000 0.000000 0.000000
vn 1.000000 0.000000 0.000000
vn 0.000000 0.000000 0.000000
vn -1.000000 0.000000 0.000000
vn -1.000000 0.000000 0.000000
vn -1.000000 0.000000 0.000000
vn 0.000000 0.242536 0.970143
vn 0.000000 0.242536 0.970143
vn 0.000000 0.242536 0.970143
vn 0.000000 0.242536 0.970143
vn 0.000000 0.000000 0.000000
vn 0.000000 0.000000 0.000000
vn 0.000000 0.000000 0.000000
vn 0.000000 0.000000 0.000000
vn 0.000000 0.242536 -0.970143
vn 0.000000 0.242536 -0.970143
vn 0.000000 0.242536 -0.970143
vn 0.000000 0.242536 -0.970143
vn 0.000000 -1.000000 0.000000
vn 0.000000 -1.000000 0.000000
vn 0.000000 -1.000000 0.000000
vn 0.000000 -1.000000 0.000000
vn 0.000000 0.000000 0.000000
vn 1.000000 0.000000 0.000000
vn 1.000000 0.000000 0.000000
vn 1.000000 0.000000 0.000000
vn 0.000000 0.000000 0.000000
vn -1.000000 0.000000 0.000000
vn -1.000000 0.000000 0.000000
vn -1.000000 0.000000 0.000000
s 1
g obstacle03
f 1/1/1 2/2/2 3/3/3
f 3/3/3 2/2/2 4/4/4
s 2
f 5/5/5 3/3/6 6/6/7
f 3/3/6 4/4/8 6/6/7
s 3
f 5/5/9 6/6/10 7/7/11
f 7/7/11 6/6/10 8/8/12
s 4
f 7/7/13 8/8/14 1/9/15
f 1/9/15 8/8/14 2/10/16
s 5
f 4/4/17 2/2/18 6/12/19
f 2/2/18 8/11/20 6/12/19
s 6
f 5/14/21 7/13/22 3/3/23
f 7/13/22 1/1/24 3/3/23
s 7
f 9/15/25 10/16/26 11/18/27
f 11/18/27 10/16/26 12/17/28
s 8
f 13/20/29 11/18/30 14/19/31
f 11/18/30 12/17/32 14/19/31
s 9
f 13/20/33 14/19/34 15/22/35
f 15/22/35 14/19/34 16/21/36
s 10
f 15/22/37 16/21/38 9/24/39
f 9/24/39 16/21/38 10/23/40
s 11
f 12/17/41 10/16/42 14/26/43
f 10/16/42 16/25/44 14/26/43
s 12
f 13/28/45 15/27/46 11/18/47
f 15/27/46 9/15/48 11/18/47
