# This file uses centimeters as units for non-parametric coordinates.

g default
v 0.880423 -1.000000 0.376393
v 0.823607 -1.000000 0.264886
v 0.735114 -1.000000 0.176393
v 0.623607 -1.000000 0.119577
v 0.500000 -1.000000 0.100000
v 0.376393 -1.000000 0.119577
v 0.264886 -1.000000 0.176393
v 0.176393 -1.000000 0.264886
v 0.119577 -1.000000 0.376393
v 0.100000 -1.000000 0.500000
v 0.119577 -1.000000 0.623607
v 0.176393 -1.000000 0.735114
v 0.264886 -1.000000 0.823607
v 0.376393 -1.000000 0.880423
v 0.500000 -1.000000 0.900000
v 0.623607 -1.000000 0.880423
v 0.735114 -1.000000 0.823607
v 0.823607 -1.000000 0.735114
v 0.880423 -1.000000 0.623607
v 0.900000 -1.000000 0.500000
v 0.500000 -0.200000 0.500000
v -0.119577 -1.000000 -0.623607
v -0.176393 -1.000000 -0.735114
v -0.264886 -1.000000 -0.823607
v -0.376393 -1.000000 -0.880423
v -0.500000 -1.000000 -0.900000
v -0.623607 -1.000000 -0.880423
v -0.735114 -1.000000 -0.823607
v -0.823607 -1.000000 -0.735114
v -0.880423 -1.000000 -0.623607
v -0.900000 -1.000000 -0.500000
v -0.880423 -1.000000 -0.376393
v -0.823607 -1.000000 -0.264886
v -0.735114 -1.000000 -0.176393
v -0.623607 -1.000000 -0.119577
v -0.500000 -1.000000 -0.100000
v -0.376393 -1.000000 -0.119577
v -0.264886 -1.000000 -0.176393
v -0.176393 -1.000000 -0.264886
v -0.119577 -1.000000 -0.376393
v -0.100000 -1.000000 -0.500000
v -0.500000 -0.200000 -0.500000
v -0.119577 -1.000000 0.376393
v -0.176393 -1.000000 0.264886
v -0.264886 -1.000000 0.176393
v -0.376393 -1.000000 0.119577
v -0.500000 -1.000000 0.100000
v -0.623607 -1.000000 0.119577
v -0.735114 -1.000000 0.176393
v -0.823607 -1.000000 0.264886
v -0.880423 -1.000000 0.376393
v -0.900000 -1.000000 0.500000
v -0.880423 -1.000000 0.623607
v -0.823607 -1.000000 0.735114
v -0.735114 -1.000000 0.823607
v -0.623607 -1.000000 0.880423
v -0.500000 -1.000000 0.900000
v -0.376393 -1.000000 0.880423
v -0.264886 -1.000000 0.823607
v -0.176393 -1.000000 0.735114
v -0.119577 -1.000000 0.623607
v -0.100000 -1.000000 0.500000
v -0.500000 -0.200000 0.500000
v 0.880423 -1.000000 -0.623607
v 0.823607 -1.000000 -0.735114
v 0.735114 -1.000000 -0.823607
v 0.623607 -1.000000 -0.880423
v 0.500000 -1.000000 -0.900000
v 0.376393 -1.000000 -0.880423
v 0.264886 -1.000000 -0.823607
v 0.176393 -1.000000 -0.735114
v 0.119577 -1.000000 -0.623607
v 0.100000 -1.000000 -0.500000
v 0.119577 -1.000000 -0.376393
v 0.176393 -1.000000 -0.264886
v 0.264886 -1.000000 -0.176393
v 0.376393 -1.000000 -0.119577
v 0.500000 -1.000000 -0.100000
v 0.623607 -1.000000 -0.119577
v 0.735114 -1.000000 -0.176393
v 0.823607 -1.000000 -0.264886
v 0.880423 -1.000000 -0.376393
v 0.900000 -1.000000 -0.500000
v 0.500000 -0.200000 -0.500000
vt 0.453463 0.961771
vt 0.452648 0.960173
vt 0.451379 0.958904
vt 0.449780 0.958089
vt 0.448008 0.957808
vt 0.446235 0.958089
vt 0.444637 0.958904
vt 0.443368 0.960173
vt 0.442553 0.961771
vt 0.442272 0.963544
vt 0.442553 0.965316
vt 0.443368 0.966915
vt 0.444637 0.968184
vt 0.446235 0.968999
vt 0.448008 0.969279
vt 0.449780 0.968999
vt 0.451379 0.968184
vt 0.452648 0.966915
vt 0.453463 0.965316
vt 0.453743 0.963544
vt 0.442272 0.969279
vt 0.442846 0.969279
vt 0.443419 0.969279
vt 0.443993 0.969279
vt 0.444567 0.969279
vt 0.445140 0.969279
vt 0.445714 0.969279
vt 0.446287 0.969279
vt 0.446861 0.969279
vt 0.447434 0.969279
vt 0.448008 0.969279
vt 0.448581 0.969279
vt 0.449155 0.969279
vt 0.449728 0.969279
vt 0.450302 0.969279
vt 0.450876 0.969279
vt 0.451449 0.969279
vt 0.452023 0.969279
vt 0.452596 0.969279
vt 0.453170 0.969279
vt 0.453743 0.969279
vt 0.448008 0.980751
vt 0.453463 0.961771
vt 0.453743 0.963544
vt 0.453463 0.965316
vt 0.452648 0.966915
vt 0.451379 0.968184
vt 0.449780 0.968999
vt 0.448008 0.969279
vt 0.446235 0.968999
vt 0.444637 0.968184
vt 0.443368 0.966915
vt 0.442553 0.965316
vt 0.442272 0.963544
vt 0.442553 0.961771
vt 0.443368 0.960173
vt 0.444637 0.958904
vt 0.446235 0.958089
vt 0.448008 0.957808
vt 0.449780 0.958089
vt 0.451379 0.958904
vt 0.452648 0.960173
vt 0.442272 0.969279
vt 0.442846 0.969279
vt 0.448008 0.980751
vt 0.443419 0.969279
vt 0.443993 0.969279
vt 0.444567 0.969279
vt 0.445140 0.969279
vt 0.445714 0.969279
vt 0.446287 0.969279
vt 0.446861 0.969279
vt 0.447434 0.969279
vt 0.448008 0.969279
vt 0.448581 0.969279
vt 0.449155 0.969279
vt 0.449728 0.969279
vt 0.450302 0.969279
vt 0.450876 0.969279
vt 0.451449 0.969279
vt 0.452023 0.969279
vt 0.452596 0.969279
vt 0.453170 0.969279
vt 0.453743 0.969279
vt 0.453463 0.961771
vt 0.453743 0.963544
vt 0.453463 0.965316
vt 0.452648 0.966915
vt 0.451379 0.968184
vt 0.449780 0.968999
vt 0.448008 0.969279
vt 0.446235 0.968999
vt 0.444637 0.968184
vt 0.443368 0.966915
vt 0.442553 0.965316
vt 0.442272 0.963544
vt 0.442553 0.961771
vt 0.443368 0.960173
vt 0.444637 0.958904
vt 0.446235 0.958089
vt 0.448008 0.957808
vt 0.449780 0.958089
vt 0.451379 0.958904
vt 0.452648 0.960173
vt 0.442272 0.969279
vt 0.442846 0.969279
vt 0.448008 0.980751
vt 0.443419 0.969279
vt 0.443993 0.969279
vt 0.444567 0.969279
vt 0.445140 0.969279
vt 0.445714 0.969279
vt 0.446287 0.969279
vt 0.446861 0.969279
vt 0.447434 0.969279
vt 0.448008 0.969279
vt 0.448581 0.969279
vt 0.449155 0.969279
vt 0.449728 0.969279
vt 0.450302 0.969279
vt 0.450876 0.969279
vt 0.451449 0.969279
vt 0.452023 0.969279
vt 0.452596 0.969279
vt 0.453170 0.969279
vt 0.453743 0.969279
vt 0.453463 0.961771
vt 0.453743 0.963544
vt 0.453463 0.965316
vt 0.452648 0.966915
vt 0.451379 0.968184
vt 0.449780 0.968999
vt 0.448008 0.969279
vt 0.446235 0.968999
vt 0.444637 0.968184
vt 0.443368 0.966915
vt 0.442553 0.965316
vt 0.442272 0.963544
vt 0.442553 0.961771
vt 0.443368 0.960173
vt 0.444637 0.958904
vt 0.446235 0.958089
vt 0.448008 0.957808
vt 0.449780 0.958089
vt 0.451379 0.958904
vt 0.452648 0.960173
vt 0.442272 0.969279
vt 0.442846 0.969279
vt 0.448008 0.980751
vt 0.443419 0.969279
vt 0.443993 0.969279
vt 0.444567 0.969279
vt 0.445140 0.969279
vt 0.445714 0.969279
vt 0.446287 0.969279
vt 0.446861 0.969279
vt 0.447434 0.969279
vt 0.448008 0.969279
vt 0.448581 0.969279
vt 0.449155 0.969279
vt 0.449728 0.969279
vt 0.450302 0.969279
vt 0.450876 0.969279
vt 0.451449 0.969279
vt 0.452023 0.969279
vt 0.452596 0.969279
vt 0.453170 0.969279
vt 0.453743 0.969279
vn 0.000000 -1.000000 0.000000
vn 0.000000 -1.000000 0.000000
vn 0.000000 -1.000000 0.000000
vn 0.000000 -1.000000 0.000000
vn 0.000000 -1.000000 0.000000
vn 0.000000 -1.000000 0.000000
vn 0.000000 -1.000000 0.000000
vn 0.000000 -1.000000 0.000000
vn 0.000000 -1.000000 0.000000
vn 0.000000 -1.000000 0.000000
vn 0.000000 -1.000000 0.000000
vn 0.000000 -1.000000 0.000000
vn 0.000000 -1.000000 0.000000
vn 0.000000 -1.000000 0.000000
vn 0.000000 -1.000000 0.000000
vn 0.000000 -1.000000 0.000000
vn 0.000000 -1.000000 0.000000
vn 0.000000 -1.000000 0.000000
vn 0.000000 -1.000000 0.000000
vn 0.000000 -1.000000 0.000000
vn 0.850651 0.447214 -0.276392
vn 0.723607 0.447214 -0.525731
vn 0.000000 1.000000 0.000001
vn 0.525731 0.447214 -0.723607
vn 0.276393 0.447214 -0.850651
vn 0.000000 0.447214 -0.894427
vn -0.276393 0.447214 -0.850651
vn -0.525731 0.447214 -0.723607
vn -0.723607 0.447214 -0.525731
vn -0.850651 0.447214 -0.276393
vn -0.894427 0.447214 0.000000
vn -0.850651 0.447214 0.276393
vn -0.723606 0.447214 0.525731
vn -0.525731 0.447214 0.723607
vn -0.276394 0.447214 0.850651
vn -0.000000 0.447214 0.894427
vn 0.276394 0.447214 0.850651
vn 0.525731 0.447214 0.723607
vn 0.723607 0.447214 0.525731
vn 0.850651 0.447214 0.276393
vn 0.894427 0.447214 0.000001
vn 0.000000 -1.000000 0.000000
vn 0.000000 -1.000000 0.000000
vn 0.000000 -1.000000 0.000000
vn 0.000000 -1.000000 0.000000
vn 0.000000 -1.000000 0.000000
vn 0.000000 -1.000000 0.000000
vn 0.000000 -1.000000 0.000000
vn 0.000000 -1.000000 0.000000
vn 0.000000 -1.000000 0.000000
vn 0.000000 -1.000000 0.000000
vn 0.000000 -1.000000 0.000000
vn 0.000000 -1.000000 0.000000
vn 0.000000 -1.000000 0.000000
vn 0.000000 -1.000000 0.000000
vn 0.000000 -1.000000 0.000000
vn 0.000000 -1.000000 0.000000
vn 0.000000 -1.000000 0.000000
vn 0.000000 -1.000000 0.000000
vn 0.000000 -1.000000 0.000000
vn 0.000000 -1.000000 0.000000
vn 0.850651 0.447214 -0.276392
vn 0.723607 0.447214 -0.525731
vn -0.000001 1.000000 -0.000001
vn 0.525731 0.447214 -0.723607
vn 0.276393 0.447214 -0.850651
vn -0.000000 0.447214 -0.894427
vn -0.276393 0.447214 -0.850651
vn -0.525731 0.447214 -0.723607
vn -0.723607 0.447214 -0.525731
vn -0.850651 0.447214 -0.276393
vn -0.894427 0.447214 0.000000
vn -0.850651 0.447214 0.276393
vn -0.723607 0.447214 0.525731
vn -0.525731 0.447213 0.723607
vn -0.276394 0.447214 0.850651
vn -0.000000 0.447214 0.894427
vn 0.276394 0.447214 0.850651
vn 0.525731 0.447214 0.723607
vn 0.723607 0.447214 0.525731
vn 0.850651 0.447214 0.276394
vn 0.894427 0.447214 0.000001
vn 0.000000 -1.000000 0.000000
vn 0.000000 -1.000000 0.000000
vn 0.000000 -1.000000 0.000000
vn 0.000000 -1.000000 0.000000
vn 0.000000 -1.000000 0.000000
vn 0.000000 -1.000000 0.000000
vn 0.000000 -1.000000 0.000000
vn 0.000000 -1.000000 0.000000
vn 0.000000 -1.000000 0.000000
vn 0.000000 -1.000000 0.000000
vn 0.000000 -1.000000 0.000000
vn 0.000000 -1.000000 0.000000
vn 0.000000 -1.000000 0.000000
vn 0.000000 -1.000000 0.000000
vn 0.000000 -1.000000 0.000000
vn 0.000000 -1.000000 0.000000
vn 0.000000 -1.000000 0.000000
vn 0.000000 -1.000000 0.000000
vn 0.000000 -1.000000 0.000000
vn 0.000000 -1.000000 0.000000
vn 0.850651 0.447214 -0.276392
vn 0.723607 0.447214 -0.525731
vn 0.000000 1.000000 0.000002
vn 0.525731 0.447214 -0.723607
vn 0.276393 0.447214 -0.850651
vn -0.000000 0.447214 -0.894427
vn -0.276393 0.447214 -0.850651
vn -0.525731 0.447214 -0.723607
vn -0.723607 0.447214 -0.525731
vn -0.850651 0.447214 -0.276393
vn -0.894427 0.447214 0.000000
vn -0.850651 0.447214 0.276393
vn -0.723606 0.447214 0.525732
vn -0.525731 0.447214 0.723607
vn -0.276394 0.447214 0.850651
vn -0.000000 0.447214 0.894427
vn 0.276394 0.447214 0.850651
vn 0.525731 0.447213 0.723607
vn 0.723607 0.447214 0.525731
vn 0.850651 0.447214 0.276393
vn 0.894427 0.447214 0.000001
vn 0.000000 -1.000000 0.000000
vn 0.000000 -1.000000 0.000000
vn 0.000000 -1.000000 0.000000
vn 0.000000 -1.000000 0.000000
vn 0.000000 -1.000000 0.000000
vn 0.000000 -1.000000 0.000000
vn 0.000000 -1.000000 0.000000
vn 0.000000 -1.000000 0.000000
vn 0.000000 -1.000000 0.000000
vn 0.000000 -1.000000 0.000000
vn 0.000000 -1.000000 0.000000
vn 0.000000 -1.000000 0.000000
vn 0.000000 -1.000000 0.000000
vn 0.000000 -1.000000 0.000000
vn 0.000000 -1.000000 0.000000
vn 0.000000 -1.000000 0.000000
vn 0.000000 -1.000000 0.000000
vn 0.000000 -1.000000 0.000000
vn 0.000000 -1.000000 0.000000
vn 0.000000 -1.000000 0.000000
vn 0.850651 0.447214 -0.276392
vn 0.723607 0.447214 -0.525731
vn -0.000000 1.000000 -0.000001
vn 0.525731 0.447214 -0.723607
vn 0.276394 0.447214 -0.850651
vn 0.000000 0.447214 -0.894427
vn -0.276393 0.447214 -0.850651
vn -0.525731 0.447214 -0.723607
vn -0.723607 0.447214 -0.525731
vn -0.850651 0.447214 -0.276393
vn -0.894427 0.447214 0.000000
vn -0.850651 0.447214 0.276393
vn -0.723607 0.447214 0.525731
vn -0.525731 0.447214 0.723607
vn -0.276394 0.447214 0.850651
vn -0.000000 0.447214 0.894427
vn 0.276394 0.447214 0.850651
vn 0.525731 0.447214 0.723607
vn 0.723607 0.447214 0.525731
vn 0.850651 0.447214 0.276393
vn 0.894427 0.447214 0.000001
s off
g obstacle01
f 1/1/1 20/20/2 19/19/3 18/18/4 17/17/5 16/16/6 15/15/7 14/14/8 13/13/9 12/12/10 11/11/11 10/10/12 9/9/13 8/8/14 7/7/15 6/6/16 5/5/17 4/4/18 3/3/19 2/2/20
s 1
f 1/21/21 2/22/22 21/42/23
f 2/22/22 3/23/24 21/42/23
f 3/23/24 4/24/25 21/42/23
f 4/24/25 5/25/26 21/42/23
f 5/25/26 6/26/27 21/42/23
f 6/26/27 7/27/28 21/42/23
f 7/27/28 8/28/29 21/42/23
f 8/28/29 9/29/30 21/42/23
f 9/29/30 10/30/31 21/42/23
f 10/30/31 11/31/32 21/42/23
f 11/31/32 12/32/33 21/42/23
f 12/32/33 13/33/34 21/42/23
f 13/33/34 14/34/35 21/42/23
f 14/34/35 15/35/36 21/42/23
f 15/35/36 16/36/37 21/42/23
f 16/36/37 17/37/38 21/42/23
f 17/37/38 18/38/39 21/42/23
f 18/38/39 19/39/40 21/42/23
f 19/39/40 20/40/41 21/42/23
f 20/40/41 1/41/21 21/42/23
s off
f 22/43/42 41/44/43 40/45/44 39/46/45 38/47/46 37/48/47 36/49/48 35/50/49 34/51/50 33/52/51 32/53/52 31/54/53 30/55/54 29/56/55 28/57/56 27/58/57 26/59/58 25/60/59 24/61/60 23/62/61
s 2
f 22/63/62 23/64/63 42/65/64
f 23/64/63 24/66/65 42/65/64
f 24/66/65 25/67/66 42/65/64
f 25/67/66 26/68/67 42/65/64
f 26/68/67 27/69/68 42/65/64
f 27/69/68 28/70/69 42/65/64
f 28/70/69 29/71/70 42/65/64
f 29/71/70 30/72/71 42/65/64
f 30/72/71 31/73/72 42/65/64
f 31/73/72 32/74/73 42/65/64
f 32/74/73 33/75/74 42/65/64
f 33/75/74 34/76/75 42/65/64
f 34/76/75 35/77/76 42/65/64
f 35/77/76 36/78/77 42/65/64
f 36/78/77 37/79/78 42/65/64
f 37/79/78 38/80/79 42/65/64
f 38/80/79 39/81/80 42/65/64
f 39/81/80 40/82/81 42/65/64
f 40/82/81 41/83/82 42/65/64
f 41/83/82 22/84/62 42/65/64
s off
f 43/85/83 62/86/84 61/87/85 60/88/86 59/89/87 58/90/88 57/91/89 56/92/90 55/93/91 54/94/92 53/95/93 52/96/94 51/97/95 50/98/96 49/99/97 48/100/98 47/101/99 46/102/100 45/103/101 44/104/102
s 3
f 43/105/103 44/106/104 63/107/105
f 44/106/104 45/108/106 63/107/105
f 45/108/106 46/109/107 63/107/105
f 46/109/107 47/110/108 63/107/105
f 47/110/108 48/111/109 63/107/105
f 48/111/109 49/112/110 63/107/105
f 49/112/110 50/113/111 63/107/105
f 50/113/111 51/114/112 63/107/105
f 51/114/112 52/115/113 63/107/105
f 52/115/113 53/116/114 63/107/105
f 53/116/114 54/117/115 63/107/105
f 54/117/115 55/118/116 63/107/105
f 55/118/116 56/119/117 63/107/105
f 56/119/117 57/120/118 63/107/105
f 57/120/118 58/121/119 63/107/105
f 58/121/119 59/122/120 63/107/105
f 59/122/120 60/123/121 63/107/105
f 60/123/121 61/124/122 63/107/105
f 61/124/122 62/125/123 63/107/105
f 62/125/123 43/126/103 63/107/105
s off
f 64/127/124 83/128/125 82/129/126 81/130/127 80/131/128 79/132/129 78/133/130 77/134/131 76/135/132 75/136/133 74/137/134 73/138/135 72/139/136 71/140/137 70/141/138 69/142/139 68/143/140 67/144/141 66/145/142 65/146/143
s 4
f 64/147/144 65/148/145 84/149/146
f 65/148/145 66/150/147 84/149/146
f 66/150/147 67/151/148 84/149/146
f 67/151/148 68/152/149 84/149/146
f 68/152/149 69/153/150 84/149/146
f 69/153/150 70/154/151 84/149/146
f 70/154/151 71/155/152 84/149/146
f 71/155/152 72/156/153 84/149/146
f 72/156/153 73/157/154 84/149/146
f 73/157/154 74/158/155 84/149/146
f 74/158/155 75/159/156 84/149/146
f 75/159/156 76/160/157 84/149/146
f 76/160/157 77/161/158 84/149/146
f 77/161/158 78/162/159 84/149/146
f 78/162/159 79/163/160 84/149/146
f 79/163/160 80/164/161 84/149/146
f 80/164/161 81/165/162 84/149/146
f 81/165/162 82/166/163 84/149/146
f 82/166/163 83/167/164 84/149/146
f 83/167/164 64/168/144 84/149/146
