# This file uses centimeters as units for non-parametric coordinates.

g default
v 0.880423 -1.000000 0.376393
v 0.823607 -1.000000 0.264886
v 0.735114 -1.000000 0.176393
v 0.623607 -1.000000 0.119577
v 0.500000 -1.000000 0.100000
v 0.376393 -1.000000 0.119577
v 0.264886 -1.000000 0.176393
v 0.176393 -1.000000 0.264886
v 0.119577 -1.000000 0.376393
v 0.100000 -1.000000 0.500000
v 0.119577 -1.000000 0.623607
v 0.176393 -1.000000 0.735114
v 0.264886 -1.000000 0.823607
v 0.376393 -1.000000 0.880423
v 0.500000 -1.000000 0.900000
v 0.623607 -1.000000 0.880423
v 0.735114 -1.000000 0.823607
v 0.823607 -1.000000 0.735114
v 0.880423 -1.000000 0.623607
v 0.900000 -1.000000 0.500000
v 0.500000 -0.200000 0.500000
v -0.119577 -1.000000 -0.623607
v -0.176393 -1.000000 -0.735114
v -0.264886 -1.000000 -0.823607
v -0.376393 -1.000000 -0.880423
v -0.500000 -1.000000 -0.900000
v -0.623607 -1.000000 -0.880423
v -0.735114 -1.000000 -0.823607
v -0.823607 -1.000000 -0.735114
v -0.880423 -1.000000 -0.623607
v -0.900000 -1.000000 -0.500000
v -0.880423 -1.000000 -0.376393
v -0.823607 -1.000000 -0.264886
v -0.735114 -1.000000 -0.176393
v -0.623607 -1.000000 -0.119577
v -0.500000 -1.000000 -0.100000
v -0.376393 -1.000000 -0.119577
v -0.264886 -1.000000 -0.176393
v -0.176393 -1.000000 -0.264886
v -0.119577 -1.000000 -0.376393
v -0.100000 -1.000000 -0.500000
v -0.500000 -0.200000 -0.500000
v -0.119577 -1.000000 0.376393
v -0.176393 -1.000000 0.264886
v -0.264886 -1.000000 0.176393
v -0.376393 -1.000000 0.119577
v -0.500000 -1.000000 0.100000
v -0.623607 -1.000000 0.119577
v -0.735114 -1.000000 0.176393
v -0.823607 -1.000000 0.264886
v -0.880423 -1.000000 0.376393
v -0.900000 -1.000000 0.500000
v -0.880423 -1.000000 0.623607
v -0.823607 -1.000000 0.735114
v -0.735114 -1.000000 0.823607
v -0.623607 -1.000000 0.880423
v -0.500000 -1.000000 0.900000
v -0.376393 -1.000000 0.880423
v -0.264886 -1.000000 0.823607
v -0.176393 -1.000000 0.735114
v -0.119577 -1.000000 0.623607
v -0.100000 -1.000000 0.500000
v -0.500000 -0.200000 0.500000
v 0.880423 -1.000000 -0.623607
v 0.823607 -1.000000 -0.735114
v 0.735114 -1.000000 -0.823607
v 0.623607 -1.000000 -0.880423
v 0.500000 -1.000000 -0.900000
v 0.376393 -1.000000 -0.880423
v 0.264886 -1.000000 -0.823607
v 0.176393 -1.000000 -0.735114
v 0.119577 -1.000000 -0.623607
v 0.100000 -1.000000 -0.500000
v 0.119577 -1.000000 -0.376393
v 0.176393 -1.000000 -0.264886
v 0.264886 -1.000000 -0.176393
v 0.376393 -1.000000 -0.119577
v 0.500000 -1.000000 -0.100000
v 0.623607 -1.000000 -0.119577
v 0.735114 -1.000000 -0.176393
v 0.823607 -1.000000 -0.264886
v 0.880423 -1.000000 -0.376393
v 0.900000 -1.000000 -0.500000
v 0.500000 -0.200000 -0.500000
vt 0.453463 0.961771
vt 0.452648 0.960173
vt 0.451379 0.958904
vt 0.449780 0.958089
vt 0.448008 0.957808
vt 0.446235 0.958089
vt 0.444637 0.958904
vt 0.443368 0.960173
vt 0.442553 0.961771
vt 0.442272 0.963544
vt 0.442553 0.965316
vt 0.443368 0.966915
vt 0.444637 0.968184
vt 0.446235 0.968999
vt 0.448008 0.969279
vt 0.449780 0.968999
vt 0.451379 0.968184
vt 0.452648 0.966915
vt 0.453463 0.965316
vt 0.453743 0.963544
vt 0.442272 0.969279
vt 0.442846 0.969279
vt 0.443419 0.969279
vt 0.443993 0.969279
vt 0.444567 0.969279
vt 0.445140 0.969279
vt 0.445714 0.969279
vt 0.446287 0.969279
vt 0.446861 0.969279
vt 0.447434 0.969279
vt 0.448008 0.969279
vt 0.448581 0.969279
vt 0.449155 0.969279
vt 0.449728 0.969279
vt 0.450302 0.969279
vt 0.450876 0.969279
vt 0.451449 0.969279
vt 0.452023 0.969279
vt 0.452596 0.969279
vt 0.453170 0.969279
vt 0.453743 0.969279
vt 0.448008 0.980751
vt 0.453463 0.961771
vt 0.453743 0.963544
vt 0.453463 0.965316
vt 0.452648 0.966915
vt 0.451379 0.968184
vt 0.449780 0.968999
vt 0.448008 0.969279
vt 0.446235 0.968999
vt 0.444637 0.968184
vt 0.443368 0.966915
vt 0.442553 0.965316
vt 0.442272 0.963544
vt 0.442553 0.961771
vt 0.443368 0.960173
vt 0.444637 0.958904
vt 0.446235 0.958089
vt 0.448008 0.957808
vt 0.449780 0.958089
vt 0.451379 0.958904
vt 0.452648 0.960173
vt 0.442272 0.969279
vt 0.442846 0.969279
vt 0.448008 0.980751
vt 0.443419 0.969279
vt 0.443993 0.969279
vt 0.444567 0.969279
vt 0.445140 0.969279
vt 0.445714 0.969279
vt 0.446287 0.969279
vt 0.446861 0.969279
vt 0.447434 0.969279
vt 0.448008 0.969279
vt 0.448581 0.969279
vt 0.449155 0.969279
vt 0.449728 0.969279
vt 0.450302 0.969279
vt 0.450876 0.969279
vt 0.451449 0.969279
vt 0.452023 0.969279
vt 0.452596 0.969279
vt 0.453170 0.969279
vt 0.453743 0.969279
vt 0.453463 0.961771
vt 0.453743 0.963544
vt 0.453463 0.965316
vt 0.452648 0.966915
vt 0.451379 0.968184
vt 0.449780 0.968999
vt 0.448008 0.969279
vt 0.446235 0.968999
vt 0.444637 0.968184
vt 0.443368 0.966915
vt 0.442553 0.965316
vt 0.442272 0.963544
vt 0.442553 0.961771
vt 0.443368 0.960173
vt 0.444637 0.958904
vt 0.446235 0.958089
vt 0.448008 0.957808
vt 0.449780 0.958089
vt 0.451379 0.958904
vt 0.452648 0.960173
vt 0.442272 0.969279
vt 0.442846 0.969279
vt 0.448008 0.980751
vt 0.443419 0.969279
vt 0.443993 0.969279
vt 0.444567 0.969279
vt 0.445140 0.969279
vt 0.445714 0.969279
vt 0.446287 0.969279
vt 0.446861 0.969279
vt 0.447434 0.969279
vt 0.448008 0.969279
vt 0.448581 0.969279
vt 0.449155 0.969279
vt 0.449728 0.969279
vt 0.450302 0.969279
vt 0.450876 0.969279
vt 0.451449 0.969279
vt 0.452023 0.969279
vt 0.452596 0.969279
vt 0.453170 0.969279
vt 0.453743 0.969279
vt 0.453463 0.961771
vt 0.453743 0.963544
vt 0.453463 0.965316
vt 0.452648 0.966915
vt 0.451379 0.968184
vt 0.449780 0.968999
vt 0.448008 0.969279
vt 0.446235 0.968999
vt 0.444637 0.968184
vt 0.443368 0.966915
vt 0.442553 0.965316
vt 0.442272 0.963544
vt 0.442553 0.961771
vt 0.443368 0.960173
vt 0.444637 0.958904
vt 0.446235 0.958089
vt 0.448008 0.957808
vt 0.449780 0.958089
vt 0.451379 0.958904
vt 0.452648 0.960173
vt 0.442272 0.969279
vt 0.442846 0.969279
vt 0.448008 0.980751
vt 0.443419 0.969279
vt 0.443993 0.969279
vt 0.444567 0.969279
vt 0.445140 0.969279
vt 0.445714 0.969279
vt 0.446287 0.969279
vt 0.446861 0.969279
vt 0.447434 0.969279
vt 0.448008 0.969279
vt 0.448581 0.969279
vt 0.449155 0.969279
vt 0.449728 0.969279
vt 0.450302 0.969279
vt 0.450876 0.969279
vt 0.451449 0.969279
vt 0.452023 0.969279
vt 0.452596 0.969279
vt 0.453170 0.969279
vt 0.453743 0.969279
vn 0.000000 -1.000000 0.000000
vn 0.000000 -1.000000 0.000000
vn 0.000000 -1.000000 0.000000
vn 0.000000 -1.000000 0.000000
vn 0.000000 -1.000000 0.000000
vn 0.000000 -1.000000 0.000000
vn 0.000000 -1.000000 0.000000
vn 0.000000 -1.000000 0.000000
vn 0.000000 -1.000000 0.000000
vn 0.000000 -1.000000 0.000000
vn 0.000000 -1.000000 0.000000
vn 0.000000 -1.000000 0.000000
vn 0.000000 -1.000000 0.000000
vn 0.000000 -1.000000 0.000000
vn 0.000000 -1.000000 0.000000
vn 0.000000 -1.000000 0.000000
vn 0.000000 -1.000000 0.000000
vn 0.000000 -1.000000 0.000000
vn 0.000000 -1.000000 0.000000
vn 0.000000 -1.000000 0.000000
vn 0.850651 0.447214 -0.276392
vn 0.723607 0.447214 -0.525731
vn 0.000000 1.000000 0.000001
vn 0.525731 0.447214 -0.723607
vn 0.276393 0.447214 -0.850651
vn 0.000000 0.447214 -0.894427
vn -0.276393 0.447214 -0.850651
vn -0.525731 0.447214 -0.723607
vn -0.723607 0.447214 -0.525731
vn -0.850651 0.447214 -0.276393
vn -0.894427 0.447214 0.000000
vn -0.850651 0.447214 0.276393
vn -0.723606 0.447214 0.525731
vn -0.525731 0.447214 0.723607
vn -0.276394 0.447214 0.850651
vn -0.000000 0.447214 0.894427
vn 0.276394 0.447214 0.850651
vn 0.525731 0.447214 0.723607
vn 0.723607 0.447214 0.525731
vn 0.850651 0.447214 0.276393
vn 0.894427 0.447214 0.000001
vn 0.000000 -1.000000 0.000000
vn 0.000000 -1.000000 0.000000
vn 0.000000 -1.000000 0.000000
vn 0.000000 -1.000000 0.000000
vn 0.000000 -1.000000 0.000000
vn 0.000000 -1.000000 0.000000
vn 0.000000 -1.000000 0.000000
vn 0.000000 -1.000000 0.000000
vn 0.000000 -1.000000 0.000000
vn 0.000000 -1.000000 0.000000
vn 0.000000 -1.000000 0.000000
vn 0.000000 -1.000000 0.000000
vn 0.000000 -1.000000 0.000000
vn 0.000000 -1.000000 0.000000
vn 0.000000 -1.000000 0.000000
vn 0.000000 -1.000000 0.000000
vn 0.000000 -1.000000 0.000000
vn 0.000000 -1.000000 0.000000
vn 0.000000 -1.000000 0.000000
vn 0.000000 -1.000000 0.000000
vn 0.850651 0.447214 -0.276392
vn 0.723607 0.447214 -0.525731
vn -0.000001 1.000000 -0.000001
vn 0.525731 0.447214 -0.723607
vn 0.276393 0.447214 -0.850651
vn -0.000000 0.447214 -0.894427
vn -0.276393 0.447214 -0.850651
vn -0.525731 0.447214 -0.723607
vn -0.723607 0.447214 -0.525731
vn -0.850651 0.447214 -0.276393
vn -0.894427 0.447214 0.000000
vn -0.850651 0.447214 0.276393
vn -0.723607 0.447214 0.525731
vn -0.525731 0.447213 0.723607
vn -0.276394 0.447214 0.850651
vn -0.000000 0.447214 0.894427
vn 0.276394 0.447214 0.850651
vn 0.525731 0.447214 0.723607
vn 0.723607 0.447214 0.525731
vn 0.850651 0.447214 0.276394
vn 0.894427 0.447214 0.000001
vn 0.000000 -1.000000 0.000000
vn 0.000000 -1.000000 0.000000
vn 0.000000 -1.000000 0.000000
vn 0.000000 -1.000000 0.000000
vn 0.000000 -1.000000 0.000000
vn 0.000000 -1.000000 0.000000
vn 0.000000 -1.000000 0.000000
vn 0.000000 -1.000000 0.000000
vn 0.000000 -1.000000 0.000000
vn 0.000000 -1.000000 0.000000
vn 0.000000 -1.000000 0.000000
vn 0.000000 -1.000000 0.000000
vn 0.000000 -1.000000 0.000000
vn 0.000000 -1.000000 0.000000
vn 0.000000 -1.000000 0.000000
vn 0.000000 -1.000000 0.000000
vn 0.000000 -1.000000 0.000000
vn 0.000000 -1.000000 0.000000
vn 0.000000 -1.000000 0.000000
vn 0.000000 -1.000000 0.000000
vn 0.850651 0.447214 -0.276392
vn 0.723607 0.447214 -0.525731
vn 0.000000 1.000000 0.000002
vn 0.525731 0.447214 -0.723607
vn 0.276393 0.447214 -0.850651
vn -0.000000 0.447214 -0.894427
vn -0.276393 0.447214 -0.850651
vn -0.525731 0.447214 -0.723607
vn -0.723607 0.447214 -0.525731
vn -0.850651 0.447214 -0.276393
vn -0.894427 0.447214 0.000000
vn -0.850651 0.447214 0.276393
vn -0.723606 0.447214 0.525732
vn -0.525731 0.447214 0.723607
vn -0.276394 0.447214 0.850651
vn -0.000000 0.447214 0.894427
vn 0.276394 0.447214 0.850651
vn 0.525731 0.447213 0.723607
vn 0.723607 0.447214 0.525731
vn 0.850651 0.447214 0.276393
vn 0.894427 0.447214 0.000001
vn 0.000000 -1.000000 0.000000
vn 0.000000 -1.000000 0.000000
vn 0.000000 -1.000000 0.000000
vn 0.000000 -1.000000 0.000000
vn 0.000000 -1.000000 0.000000
vn 0.000000 -1.000000 0.000000
vn 0.000000 -1.000000 0.000000
vn 0.000000 -1.000000 0.000000
vn 0.000000 -1.000000 0.000000
vn 0.000000 -1.000000 0.000000
vn 0.000000 -1.000000 0.000000
vn 0.000000 -1.000000 0.000000
vn 0.000000 -1.000000 0.000000
vn 0.000000 -1.000000 0.000000
vn 0.000000 -1.000000 0.000000
vn 0.000000 -1.000000 0.000000
vn 0.000000 -1.000000 0.000000
vn 0.000000 -1.000000 0.000000
vn 0.000000 -1.000000 0.000000
vn 0.000000 -1.000000 0.000000
vn 0.850651 0.447214 -0.276392
vn 0.723607 0.447214 -0.525731
vn -0.000000 1.000000 -0.000001
vn 0.525731 0.447214 -0.723607
vn 0.276394 0.447214 -0.850651
vn 0.000000 0.447214 -0.894427
vn -0.276393 0.447214 -0.850651
vn -0.525731 0.447214 -0.723607
vn -0.723607 0.447214 -0.525731
vn -0.850651 0.447214 -0.276393
vn -0.894427 0.447214 0.000000
vn -0.850651 0.447214 0.276393
vn -0.723607 0.447214 0.525731
vn -0.525731 0.447214 0.723607
vn -0.276394 0.447214 0.850651
vn -0.000000 0.447214 0.894427
vn 0.276394 0.447214 0.850651
vn 0.525731 0.447214 0.723607
vn 0.723607 0.447214 0.525731
vn 0.850651 0.447214 0.276393
vn 0.894427 0.447214 0.000001
s 1
g obstacle01
f 1/1/1 20/20/2 2/2/3
f 20/20/2 19/19/4 2/2/3
f 19/19/4 18/18/5 2/2/3
f 18/18/5 17/17/6 2/2/3
f 17/17/6 16/16/7 2/2/3
f 16/16/7 15/15/8 2/2/3
f 15/15/8 14/14/9 2/2/3
f 14/14/9 13/13/10 2/2/3
f 13/13/10 12/12/11 2/2/3
f 12/12/11 11/11/12 2/2/3
f 11/11/12 10/10/13 2/2/3
f 10/10/13 9/9/14 2/2/3
f 9/9/14 8/8/15 2/2/3
f 8/8/15 7/7/16 2/2/3
f 7/7/16 6/6/17 2/2/3
f 6/6/17 5/5/18 2/2/3
f 5/5/18 4/4/19 2/2/3
f 4/4/19 3/3/20 2/2/3
s 2
f 1/21/21 2/22/22 21/42/23
f 2/22/22 3/23/24 21/42/23
f 3/23/24 4/24/25 21/42/23
f 4/24/25 5/25/26 21/42/23
f 5/25/26 6/26/27 21/42/23
f 6/26/27 7/27/28 21/42/23
f 7/27/28 8/28/29 21/42/23
f 8/28/29 9/29/30 21/42/23
f 9/29/30 10/30/31 21/42/23
f 10/30/31 11/31/32 21/42/23
f 11/31/32 12/32/33 21/42/23
f 12/32/33 13/33/34 21/42/23
f 13/33/34 14/34/35 21/42/23
f 14/34/35 15/35/36 21/42/23
f 15/35/36 16/36/37 21/42/23
f 16/36/37 17/37/38 21/42/23
f 17/37/38 18/38/39 21/42/23
f 18/38/39 19/39/40 21/42/23
f 19/39/40 20/40/41 21/42/23
f 20/40/41 1/41/21 21/42/23
s 3
f 22/43/42 41/44/43 23/62/44
f 41/44/43 40/45/45 23/62/44
f 40/45/45 39/46/46 23/62/44
f 39/46/46 38/47/47 23/62/44
f 38/47/47 37/48/48 23/62/44
f 37/48/48 36/49/49 23/62/44
f 36/49/49 35/50/50 23/62/44
f 35/50/50 34/51/51 23/62/44
f 34/51/51 33/52/52 23/62/44
f 33/52/52 32/53/53 23/62/44
f 32/53/53 31/54/54 23/62/44
f 31/54/54 30/55/55 23/62/44
f 30/55/55 29/56/56 23/62/44
f 29/56/56 28/57/57 23/62/44
f 28/57/57 27/58/58 23/62/44
f 27/58/58 26/59/59 23/62/44
f 26/59/59 25/60/60 23/62/44
f 25/60/60 24/61/61 23/62/44
s 4
f 22/63/62 23/64/63 42/65/64
f 23/64/63 24/66/65 42/65/64
f 24/66/65 25/67/66 42/65/64
f 25/67/66 26/68/67 42/65/64
f 26/68/67 27/69/68 42/65/64
f 27/69/68 28/70/69 42/65/64
f 28/70/69 29/71/70 42/65/64
f 29/71/70 30/72/71 42/65/64
f 30/72/71 31/73/72 42/65/64
f 31/73/72 32/74/73 42/65/64
f 32/74/73 33/75/74 42/65/64
f 33/75/74 34/76/75 42/65/64
f 34/76/75 35/77/76 42/65/64
f 35/77/76 36/78/77 42/65/64
f 36/78/77 37/79/78 42/65/64
f 37/79/78 38/80/79 42/65/64
f 38/80/79 39/81/80 42/65/64
f 39/81/80 40/82/81 42/65/64
f 40/82/81 41/83/82 42/65/64
f 41/83/82 22/84/62 42/65/64
s 5
f 43/85/83 62/86/84 44/104/85
f 62/86/84 61/87/86 44/104/85
f 61/87/86 60/88/87 44/104/85
f 60/88/87 59/89/88 44/104/85
f 59/89/88 58/90/89 44/104/85
f 58/90/89 57/91/90 44/104/85
f 57/91/90 56/92/91 44/104/85
f 56/92/91 55/93/92 44/104/85
f 55/93/92 54/94/93 44/104/85
f 54/94/93 53/95/94 44/104/85
f 53/95/94 52/96/95 44/104/85
f 52/96/95 51/97/96 44/104/85
f 51/97/96 50/98/97 44/104/85
f 50/98/97 49/99/98 44/104/85
f 49/99/98 48/100/99 44/104/85
f 48/100/99 47/101/100 44/104/85
f 47/101/100 46/102/101 44/104/85
f 46/102/101 45/103/102 44/104/85
s 6
f 43/105/103 44/106/104 63/107/105
f 44/106/104 45/108/106 63/107/105
f 45/108/106 46/109/107 63/107/105
f 46/109/107 47/110/108 63/107/105
f 47/110/108 48/111/109 63/107/105
f 48/111/109 49/112/110 63/107/105
f 49/112/110 50/113/111 63/107/105
f 50/113/111 51/114/112 63/107/105
f 51/114/112 52/115/113 63/107/105
f 52/115/113 53/116/114 63/107/105
f 53/116/114 54/117/115 63/107/105
f 54/117/115 55/118/116 63/107/105
f 55/118/116 56/119/117 63/107/105
f 56/119/117 57/120/118 63/107/105
f 57/120/118 58/121/119 63/107/105
f 58/121/119 59/122/120 63/107/105
f 59/122/120 60/123/121 63/107/105
f 60/123/121 61/124/122 63/107/105
f 61/124/122 62/125/123 63/107/105
f 62/125/123 43/126/103 63/107/105
s 7
f 64/127/124 83/128/125 65/146/126
f 83/128/125 82/129/127 65/146/126
f 82/129/127 81/130/128 65/146/126
f 81/130/128 80/131/129 65/146/126
f 80/131/129 79/132/130 65/146/126
f 79/132/130 78/133/131 65/146/126
f 78/133/131 77/134/132 65/146/126
f 77/134/132 76/135/133 65/146/126
f 76/135/133 75/136/134 65/146/126
f 75/136/134 74/137/135 65/146/126
f 74/137/135 73/138/136 65/146/126
f 73/138/136 72/139/137 65/146/126
f 72/139/137 71/140/138 65/146/126
f 71/140/138 70/141/139 65/146/126
f 70/141/139 69/142/140 65/146/126
f 69/142/140 68/143/141 65/146/126
f 68/143/141 67/144/142 65/146/126
f 67/144/142 66/145/143 65/146/126
s 8
f 64/147/144 65/148/145 84/149/146
f 65/148/145 66/150/147 84/149/146
f 66/150/147 67/151/148 84/149/146
f 67/151/148 68/152/149 84/149/146
f 68/152/149 69/153/150 84/149/146
f 69/153/150 70/154/151 84/149/146
f 70/154/151 71/155/152 84/149/146
f 71/155/152 72/156/153 84/149/146
f 72/156/153 73/157/154 84/149/146
f 73/157/154 74/158/155 84/149/146
f 74/158/155 75/159/156 84/149/146
f 75/159/156 76/160/157 84/149/146
f 76/160/157 77/161/158 84/149/146
f 77/161/158 78/162/159 84/149/146
f 78/162/159 79/163/160 84/149/146
f 79/163/160 80/164/161 84/149/146
f 80/164/161 81/165/162 84/149/146
f 81/165/162 82/166/163 84/149/146
f 82/166/163 83/167/164 84/149/146
f 83/167/164 64/168/144 84/149/146
