# This file uses centimeters as units for non-parametric coordinates.

g default
v -0.179826 1.000000 -0.281082
v -0.281082 1.000000 -0.179825
v -0.333333 1.000000 -0.056694
v -0.056695 1.000000 -0.333333
v -0.333333 -1.000000 -0.056694
v -0.281082 -1.000000 -0.179825
v -0.179826 -1.000000 -0.281082
v -0.056695 -1.000000 -0.333333
v 0.281082 1.000000 -0.179825
v 0.179825 1.000000 -0.281082
v 0.056694 1.000000 -0.333333
v 0.333333 1.000000 -0.056694
v 0.056694 -1.000000 -0.333333
v 0.179825 -1.000000 -0.281082
v 0.281082 -1.000000 -0.179825
v 0.333333 -1.000000 -0.056694
v -0.281082 1.000000 0.179825
v -0.179826 1.000000 0.281082
v -0.056695 1.000000 0.333333
v -0.333333 1.000000 0.056694
v -0.333333 -1.000000 0.056694
v -0.056695 -1.000000 0.333333
v -0.179826 -1.000000 0.281082
v -0.281082 -1.000000 0.179825
v 0.179825 1.000000 0.281082
v 0.281082 1.000000 0.179825
v 0.333333 1.000000 0.056694
v 0.056694 1.000000 0.333333
v 0.333333 -1.000000 0.056694
v 0.281082 -1.000000 0.179825
v 0.179825 -1.000000 0.281082
v 0.056694 -1.000000 0.333333
vt 0.442760 0.963544
vt 0.454231 0.963544
vt 0.441784 0.963544
vt 0.447520 0.972147
vt 0.448496 0.969279
vt 0.454231 0.960676
vt 0.447520 0.963544
vt 0.442760 0.960676
vt 0.453256 0.963544
vt 0.448496 0.960676
vt 0.441784 0.960676
vt 0.448496 0.972147
vt 0.447520 0.960676
vt 0.450876 0.965924
vt 0.450876 0.966899
vt 0.447520 0.969279
vt 0.445140 0.966899
vt 0.445140 0.965924
vt 0.448496 0.963544
vt 0.453256 0.960676
vt 0.446371 0.969279
vt 0.445140 0.969279
vt 0.439405 0.963544
vt 0.445140 0.972147
vt 0.439405 0.960676
vt 0.446343 0.972148
vt 0.450876 0.969279
vt 0.456611 0.963544
vt 0.449645 0.969279
vt 0.450876 0.972085
vt 0.456611 0.961090
vt 0.450876 0.971733
vt 0.445140 0.963544
vt 0.446371 0.963544
vt 0.445996 0.960675
vt 0.444312 0.960675
vt 0.449645 0.963544
vt 0.450876 0.963544
vt 0.451703 0.960675
vt 0.450019 0.960675
vn -0.215715 0.000000 0.976456
vn -0.215715 0.000000 0.976456
vn 0.215715 0.000000 0.976456
vn 0.215715 0.000000 0.976456
vn -0.215715 0.000000 -0.976456
vn -0.215715 0.000000 -0.976456
vn 0.215716 0.000000 -0.976456
vn 0.215716 0.000000 -0.976456
vn 0.976456 0.000000 0.215715
vn 0.976456 0.000000 0.215715
vn 0.976456 0.000000 -0.215715
vn 0.976456 0.000000 -0.215715
vn -0.976456 0.000000 -0.215715
vn -0.976456 0.000000 -0.215715
vn -0.976456 0.000000 0.215715
vn -0.976456 0.000000 0.215715
vn -0.825343 0.000000 -0.564632
vn -0.825343 0.000000 -0.564632
vn -0.564633 0.000000 -0.825342
vn -0.564633 0.000000 -0.825342
vn 0.564633 0.000000 -0.825342
vn 0.564633 0.000000 -0.825342
vn 0.825342 0.000000 -0.564633
vn 0.825342 0.000000 -0.564633
vn -0.564633 0.000000 0.825342
vn -0.564633 0.000000 0.825342
vn -0.825343 0.000000 0.564632
vn -0.825343 0.000000 0.564632
vn 0.825342 0.000000 0.564633
vn 0.825342 0.000000 0.564633
vn 0.564633 0.000000 0.825342
vn 0.564633 0.000000 0.825342
vn 0.000000 1.000000 0.000000
vn 0.000000 1.000000 0.000000
vn 0.000000 1.000000 0.000000
vn 0.000000 1.000000 0.000000
vn 0.000000 1.000000 0.000000
vn 0.000000 1.000000 0.000000
vn 0.000000 1.000000 0.000000
vn 0.000000 1.000000 0.000000
vn 0.000000 1.000000 0.000000
vn 0.000000 1.000000 0.000000
vn 0.000000 1.000000 0.000000
vn 0.000000 1.000000 0.000000
vn 0.000000 1.000000 0.000000
vn 0.000000 1.000000 0.000000
vn 0.000000 1.000000 0.000000
vn 0.000000 1.000000 0.000000
vn 0.000000 -1.000000 0.000000
vn 0.000000 -1.000000 0.000000
vn 0.000000 -1.000000 0.000000
vn 0.000000 -1.000000 0.000000
vn 0.000000 -1.000000 0.000000
vn 0.000000 -1.000000 0.000000
vn 0.000000 -1.000000 0.000000
vn 0.000000 -1.000000 0.000000
vn 0.000000 -1.000000 0.000000
vn 0.000000 -1.000000 0.000000
vn 0.000000 -1.000000 0.000000
vn 0.000000 -1.000000 0.000000
vn 0.000000 -1.000000 0.000000
vn 0.000000 -1.000000 0.000000
vn 0.000000 -1.000000 0.000000
vn 0.000000 -1.000000 0.000000
s 1
g Pipe01
f 19/7/1 22/13/2 32/10/3 28/19/4
f 8/4/5 4/16/6 11/5/7 13/12/8
f 27/9/9 29/20/10 16/6/11 12/2/12
f 3/3/13 5/11/14 21/8/15 20/1/16
f 3/3/13 2/23/17 6/25/18 5/11/14
f 2/22/17 1/21/19 7/26/20 6/24/18
f 1/21/19 4/16/6 8/4/5 7/26/20
f 11/5/7 10/29/21 14/30/22 13/12/8
f 10/29/21 9/27/23 15/32/24 14/30/22
f 9/28/23 12/2/12 16/6/11 15/31/24
f 19/7/1 18/34/25 23/35/26 22/13/2
f 18/34/25 17/33/27 24/36/28 23/35/26
f 17/33/27 20/1/16 21/8/15 24/36/28
f 27/9/9 26/38/29 30/39/30 29/20/10
f 26/38/29 25/37/31 31/40/32 30/39/30
f 25/37/31 28/19/4 32/10/3 31/40/32
s off
f 25/37/33 26/38/34 27/14/35 12/15/36 9/27/37 10/29/38 11/5/39 4/16/40 1/21/41 2/22/42 3/17/43 20/18/44 17/33/45 18/34/46 19/7/47 28/19/48
f 29/20/49 30/39/50 31/40/51 32/10/52 22/13/53 23/35/54 24/36/55 21/8/56 5/11/57 6/24/58 7/26/59 8/4/60 13/12/61 14/30/62 15/31/63 16/6/64
