# This file uses centimeters as units for non-parametric coordinates.

g default
v 0.102071 0.010007 0.276825
v 0.126048 0.014934 0.162339
v -0.065560 0.043067 0.303487
v -0.101686 0.098577 0.001682
v -0.011383 0.013118 0.378745
v -0.264024 0.177575 0.025398
v -0.183414 0.146823 -0.108685
v 0.086222 0.062343 -0.114948
v 0.147461 0.067596 -0.126077
v 0.187102 0.046897 -0.075603
v 0.115198 0.052210 -0.032670
v 0.088567 -0.008793 0.405776
v -0.130583 0.066898 0.214334
v -0.287437 0.187794 -0.124288
v -0.234885 0.179445 -0.128649
v -0.105048 0.132551 -0.110960
v -0.047687 0.103856 -0.089267
v -0.040840 -0.035200 0.118047
v -0.096580 -0.026670 0.228684
v -0.162086 -0.060380 0.063455
v -0.199649 -0.068400 0.135177
v -0.354760 0.163033 -0.094385
v -0.307404 0.075936 -0.022708
v -0.270463 0.008088 0.033195
v -0.207451 -0.075411 0.069851
v 0.099759 -0.006932 0.020858
v 0.102589 0.033449 -0.089420
v 0.037140 -0.004497 -0.044823
v 0.064670 -0.026608 0.125365
v 0.041968 -0.024988 0.246427
v -0.008287 -0.026839 0.363990
v -0.082167 -0.044426 0.289770
v 0.039602 -0.004939 0.448589
v -0.083622 -0.039947 0.015230
v -0.058682 -0.008617 -0.033306
v 0.018497 0.042632 -0.087433
v -0.266562 0.103739 -0.045972
v -0.217115 0.038582 0.007314
vt 0.448581 0.968706
vt 0.449155 0.968706
vt 0.449728 0.968706
vt 0.450302 0.968706
vt 0.449155 0.969279
vt 0.449728 0.969279
vt 0.449491 0.969853
vt 0.449491 0.969853
vt 0.450026 0.969151
vt 0.450670 0.968335
vt 0.450960 0.962551
vt 0.451166 0.962688
vt 0.451176 0.962696
vt 0.451356 0.962788
vt 0.451473 0.962833
vt 0.451473 0.962833
vt 0.451556 0.962864
vt 0.451556 0.962864
vt 0.451983 0.963067
vt 0.448008 0.969279
vt 0.448008 0.969853
vt 0.447948 0.970134
vt 0.448581 0.970426
vt 0.449155 0.970426
vt 0.448156 0.970852
vt 0.448073 0.970593
vt 0.448581 0.970725
vt 0.448156 0.970852
vt 0.448581 0.970725
vt 0.448889 0.970693
vt 0.449155 0.970676
vt 0.449626 0.970426
vt 0.449626 0.970426
vt 0.447474 0.968706
vt 0.447771 0.968943
vt 0.447784 0.969279
vt 0.447817 0.969073
vt 0.447786 0.969501
vt 0.448302 0.968986
vt 0.448302 0.968986
vt 0.448085 0.968706
vt 0.448042 0.968671
vt 0.448042 0.968671
vt 0.452940 0.962674
vt 0.452152 0.963174
vt 0.452388 0.962965
vt 0.452630 0.962838
vt 0.449240 0.970049
vt 0.449168 0.969853
vt 0.449164 0.969844
vt 0.449164 0.969844
vt 0.448787 0.969647
vt 0.449155 0.969828
vt 0.448787 0.969647
vt 0.448494 0.969224
vt 0.446861 0.968132
vt 0.447434 0.967996
vt 0.448008 0.968706
vt 0.449155 0.967971
vt 0.449728 0.967968
vt 0.447178 0.968962
vt 0.449852 0.968706
vt 0.448008 0.969279
vt 0.449299 0.969245
vt 0.448076 0.969785
vt 0.448295 0.970140
vt 0.448138 0.969853
vt 0.448577 0.970150
vt 0.448295 0.970140
vt 0.448581 0.969853
vt 0.450069 0.968132
vt 0.450132 0.968302
vt 0.448761 0.968033
vt 0.448581 0.968061
vt 0.446978 0.968589
vt 0.446861 0.968427
vt 0.446978 0.968589
vt 0.447605 0.969109
vt 0.447803 0.969201
vt 0.447605 0.969109
vt 0.452542 0.962503
vt 0.451814 0.962605
vt 0.448272 0.968441
vt 0.448008 0.968308
vt 0.448272 0.968441
vt 0.451814 0.962605
vt 0.448581 0.968397
vt 0.448992 0.968295
vt 0.451218 0.962576
vt 0.451492 0.962575
vt 0.451676 0.962591
vt 0.451492 0.962575
vt 0.449155 0.968280
vt 0.449729 0.968227
vt 0.450302 0.968249
vt 0.451204 0.962576
vt 0.449642 0.968219
vt 0.449155 0.968280
vt 0.450186 0.968248
vt 0.449728 0.968227
vt 0.450302 0.968249
vt 0.447972 0.968967
vt 0.447902 0.968812
vt 0.447811 0.968737
vt 0.449567 0.970014
vt 0.448410 0.969451
vt 0.449412 0.969861
vt 0.449567 0.970014
vt 0.448410 0.969451
vt 0.449155 0.969853
vt 0.448829 0.969698
vn 0.257951 0.958966 0.117670
vn 0.257951 0.958966 0.117670
vn 0.257951 0.958966 0.117670
vn 0.338572 0.934356 0.111121
vn 0.338572 0.934356 0.111121
vn 0.338572 0.934356 0.111121
vn 0.214434 0.964871 0.151797
vn 0.214434 0.964871 0.151797
vn 0.214434 0.964871 0.151797
vn -0.439543 0.363879 -0.821215
vn -0.439543 0.363879 -0.821215
vn -0.439543 0.363879 -0.821215
vn -0.219192 0.956010 0.194934
vn -0.219192 0.956010 0.194934
vn -0.219192 0.956010 0.194934
vn 0.222126 0.950275 0.218259
vn 0.222126 0.950275 0.218259
vn 0.222126 0.950275 0.218259
vn 0.444030 0.893868 0.061941
vn 0.444030 0.893868 0.061941
vn 0.444030 0.893868 0.061941
vn -0.058879 0.988053 0.142422
vn -0.058879 0.988053 0.142422
vn -0.058879 0.988053 0.142422
vn 0.206471 0.951505 0.228054
vn 0.206471 0.951505 0.228054
vn 0.206471 0.951505 0.228054
vn 0.170015 0.972436 0.159574
vn 0.170015 0.972436 0.159574
vn 0.170015 0.972436 0.159574
vn 0.181566 0.976055 0.119798
vn 0.181566 0.976055 0.119798
vn 0.181566 0.976055 0.119798
vn 0.133671 0.977401 0.163769
vn 0.133671 0.977401 0.163769
vn 0.133671 0.977400 0.163769
vn 0.451940 0.871313 0.191215
vn 0.451940 0.871313 0.191215
vn 0.451940 0.871313 0.191215
vn -0.299051 0.947704 0.111475
vn -0.299051 0.947704 0.111475
vn -0.299051 0.947704 0.111475
vn 0.160180 0.986182 0.042271
vn 0.160180 0.986182 0.042271
vn 0.160180 0.986182 0.042271
vn 0.502818 0.857926 0.105527
vn 0.502818 0.857926 0.105527
vn 0.502818 0.857926 0.105527
vn 0.179899 0.943253 0.279124
vn 0.179899 0.943253 0.279124
vn 0.179899 0.943253 0.279124
vn 0.614988 0.676929 0.404422
vn 0.614988 0.676929 0.404422
vn 0.614988 0.676929 0.404422
vn 0.351244 0.899246 0.260736
vn 0.351244 0.899246 0.260736
vn 0.351244 0.899246 0.260736
vn 0.583918 -0.785054 -0.206713
vn 0.583918 -0.785054 -0.206713
vn 0.583918 -0.785054 -0.206713
vn 0.223869 -0.973427 -0.048203
vn 0.223869 -0.973427 -0.048203
vn 0.223869 -0.973427 -0.048203
vn 0.138131 -0.979724 0.145121
vn 0.138131 -0.979724 0.145121
vn 0.138131 -0.979724 0.145121
vn 0.323970 -0.943891 0.064134
vn 0.323970 -0.943891 0.064134
vn 0.323970 -0.943891 0.064134
vn 0.321864 -0.944692 0.062941
vn 0.321864 -0.944692 0.062941
vn 0.321864 -0.944692 0.062941
vn -0.641027 -0.116606 0.758609
vn -0.641027 -0.116606 0.758609
vn -0.641027 -0.116606 0.758609
vn -0.799154 0.057886 0.598333
vn -0.799154 0.057886 0.598333
vn -0.799154 0.057886 0.598333
vn -0.971573 -0.193230 0.136778
vn -0.971573 -0.193230 0.136778
vn -0.971573 -0.193230 0.136778
vn -0.443467 0.057991 0.894413
vn -0.443467 0.057991 0.894413
vn -0.443467 0.057991 0.894413
vn -0.799152 0.057885 0.598335
vn -0.799152 0.057885 0.598335
vn -0.799152 0.057885 0.598335
vn -0.799154 0.057886 0.598333
vn -0.799154 0.057886 0.598333
vn -0.799154 0.057886 0.598333
vn 0.103691 -0.950981 0.291347
vn 0.103691 -0.950981 0.291347
vn 0.103691 -0.950981 0.291347
vn 0.937624 -0.333531 -0.098072
vn 0.937624 -0.333531 -0.098072
vn 0.937624 -0.333531 -0.098072
vn 0.301766 -0.897725 -0.320979
vn 0.301766 -0.897725 -0.320979
vn 0.301766 -0.897725 -0.320979
vn 0.034475 -0.996963 -0.069830
vn 0.034475 -0.996963 -0.069830
vn 0.034475 -0.996963 -0.069830
vn 0.092385 -0.978800 -0.182799
vn 0.092385 -0.978800 -0.182799
vn 0.092385 -0.978800 -0.182799
vn 0.002124 -0.996957 0.077928
vn 0.002124 -0.996957 0.077928
vn 0.002124 -0.996957 0.077928
vn 0.534514 -0.769393 -0.349756
vn 0.534514 -0.769393 -0.349756
vn 0.534514 -0.769393 -0.349756
vn -0.938275 -0.321341 0.127982
vn -0.938275 -0.321341 0.127982
vn -0.938275 -0.321341 0.127982
vn 0.929247 -0.349911 -0.118585
vn 0.929247 -0.349911 -0.118585
vn 0.929247 -0.349911 -0.118585
vn 0.066225 -0.984385 -0.163095
vn 0.066225 -0.984385 -0.163095
vn 0.066225 -0.984385 -0.163095
vn 0.079190 -0.996461 0.028179
vn 0.079190 -0.996461 0.028179
vn 0.079190 -0.996461 0.028179
vn 0.013420 -0.999860 -0.010004
vn 0.013420 -0.999860 -0.010004
vn 0.013420 -0.999860 -0.010004
vn -0.799154 0.057886 0.598332
vn -0.799154 0.057886 0.598333
vn -0.799154 0.057886 0.598333
vn -0.636000 -0.310206 0.706595
vn -0.636000 -0.310206 0.706595
vn -0.636000 -0.310206 0.706595
vn -0.799154 0.057886 0.598333
vn -0.799154 0.057886 0.598333
vn -0.799154 0.057886 0.598333
vn 0.549063 -0.835342 0.027083
vn 0.549063 -0.835342 0.027083
vn 0.549063 -0.835342 0.027083
vn 0.463002 -0.880855 0.098607
vn 0.463002 -0.880855 0.098607
vn 0.463002 -0.880855 0.098607
vn 0.160697 -0.985570 0.053177
vn 0.160697 -0.985570 0.053177
vn 0.160697 -0.985570 0.053177
vn -0.811006 -0.256932 0.525600
vn -0.811006 -0.256932 0.525600
vn -0.811006 -0.256932 0.525600
vn 0.527946 -0.846035 0.074153
vn 0.527946 -0.846035 0.074153
vn 0.527946 -0.846035 0.074153
vn 0.527536 -0.846790 -0.068205
vn 0.527536 -0.846790 -0.068205
vn 0.527536 -0.846790 -0.068205
vn 0.096338 -0.975459 0.197984
vn 0.096338 -0.975459 0.197984
vn 0.096339 -0.975460 0.197984
vn -0.058282 -0.682104 -0.728929
vn -0.058282 -0.682104 -0.728929
vn -0.058282 -0.682104 -0.728929
vn -0.092425 -0.687656 -0.720130
vn -0.092425 -0.687656 -0.720130
vn -0.092425 -0.687656 -0.720130
vn -0.091690 -0.687975 -0.719919
vn -0.091690 -0.687975 -0.719919
vn -0.091690 -0.687975 -0.719919
vn -0.073392 -0.683339 -0.726403
vn -0.073392 -0.683339 -0.726403
vn -0.073392 -0.683339 -0.726403
vn 0.215933 -0.832120 -0.510832
vn 0.215933 -0.832120 -0.510831
vn 0.215933 -0.832120 -0.510831
vn -0.067110 -0.689022 -0.721627
vn -0.067110 -0.689022 -0.721627
vn -0.067110 -0.689022 -0.721627
vn -0.005281 -0.637142 -0.770728
vn -0.005281 -0.637142 -0.770728
vn -0.005281 -0.637142 -0.770728
vn -0.006556 -0.636029 -0.771637
vn -0.006556 -0.636029 -0.771637
vn -0.006556 -0.636029 -0.771637
vn -0.008308 -0.638566 -0.769523
vn -0.008308 -0.638566 -0.769523
vn -0.008308 -0.638566 -0.769523
vn -0.141174 -0.485335 -0.862856
vn -0.141174 -0.485335 -0.862856
vn -0.141174 -0.485335 -0.862856
vn 0.034802 -0.478419 -0.877442
vn 0.034802 -0.478419 -0.877442
vn 0.034802 -0.478419 -0.877442
vn -0.304241 -0.592382 -0.746004
vn -0.304241 -0.592382 -0.746004
vn -0.304241 -0.592382 -0.746004
vn -0.817853 -0.190257 -0.543064
vn -0.817853 -0.190257 -0.543064
vn -0.817853 -0.190257 -0.543064
vn -0.339181 -0.392269 -0.855033
vn -0.339181 -0.392269 -0.855033
vn -0.339181 -0.392269 -0.855033
vn -0.168341 -0.694015 -0.700003
vn -0.168341 -0.694015 -0.700003
vn -0.168341 -0.694015 -0.700003
vn -0.168348 -0.694013 -0.700004
vn -0.168348 -0.694013 -0.700004
vn -0.168348 -0.694013 -0.700004
vn -0.165586 -0.696583 -0.698107
vn -0.165586 -0.696583 -0.698107
vn -0.165586 -0.696583 -0.698107
vn -0.260276 -0.524183 -0.810857
vn -0.260276 -0.524183 -0.810857
vn -0.260276 -0.524183 -0.810857
vn -0.124304 -0.707190 -0.696011
vn -0.124304 -0.707190 -0.696011
vn -0.124304 -0.707190 -0.696011
vn -0.159343 -0.777982 -0.607745
vn -0.159343 -0.777982 -0.607745
vn -0.159343 -0.777982 -0.607745
s off
g ShatterPar02
f 8/65/1 4/58/2 1/62/3
f 2/64/4 8/65/5 1/62/6
f 1/62/7 4/58/8 3/59/9
f 8/65/10 36/63/11 4/58/12
f 11/70/13 8/65/14 2/64/15
f 1/62/16 3/59/17 5/60/18
f 4/58/19 7/61/20 6/57/21
f 9/66/22 8/67/23 11/70/24
f 11/70/25 10/68/26 9/69/27
f 1/62/28 5/60/29 12/72/30
f 12/72/31 5/60/32 33/71/33
f 3/59/34 4/58/35 13/73/36
f 13/74/37 4/58/38 6/57/39
f 22/56/40 6/57/41 14/76/42
f 14/76/43 6/57/44 15/75/45
f 6/57/46 7/61/47 15/77/48
f 16/78/49 7/61/50 4/58/51
f 36/63/52 17/79/53 4/58/54
f 17/79/55 16/80/56 4/58/57
f 34/54/58 35/55/59 18/5/60
f 20/53/61 34/52/62 18/5/63
f 20/51/64 18/5/65 19/6/66
f 20/50/67 19/6/68 21/8/69
f 20/49/70 21/7/71 25/48/72
f 19/18/73 13/82/74 21/19/75
f 13/82/76 6/81/77 21/19/78
f 21/19/79 6/81/80 25/45/81
f 25/45/82 6/81/83 24/46/84
f 24/46/85 6/81/86 23/47/87
f 23/47/88 6/81/89 22/44/90
f 10/84/91 11/83/92 27/43/93
f 27/42/94 11/85/95 26/1/96
f 27/41/97 26/1/98 28/40/99
f 35/55/100 28/39/101 26/1/102
f 18/5/103 35/55/104 29/2/105
f 19/6/106 18/5/107 30/3/108
f 19/6/109 31/4/110 32/9/111
f 13/86/112 19/17/113 32/16/114
f 2/88/115 26/1/116 11/87/117
f 35/55/118 26/1/119 29/2/120
f 18/5/121 29/2/122 30/3/123
f 19/6/124 30/3/125 31/4/126
f 3/90/127 32/14/128 5/89/129
f 32/14/130 31/13/131 5/89/132
f 13/91/133 32/15/134 3/92/135
f 29/2/136 26/1/137 2/93/138
f 1/94/139 30/3/140 29/2/141
f 12/95/142 31/4/143 30/3/144
f 33/11/145 5/96/146 31/12/147
f 2/98/148 1/97/149 29/2/150
f 12/99/151 30/3/152 1/100/153
f 12/101/154 33/10/155 31/4/156
f 28/38/157 35/21/158 36/20/159
f 36/20/160 8/102/161 28/36/162
f 28/36/163 8/102/164 27/37/165
f 9/103/166 27/37/167 8/102/168
f 10/34/169 27/35/170 9/104/171
f 37/24/172 22/33/173 14/105/174
f 22/32/175 37/24/176 23/31/177
f 37/24/178 38/23/179 23/30/180
f 23/30/181 38/23/182 24/29/183
f 38/23/184 25/28/185 24/27/186
f 25/25/187 38/23/188 20/26/189
f 20/26/190 38/23/191 34/22/192
f 35/21/193 34/22/194 17/109/195
f 17/106/196 36/20/197 35/21/198
f 14/108/199 15/107/200 37/24/201
f 7/110/202 37/24/203 15/107/204
f 38/23/205 37/24/206 7/110/207
f 34/22/208 38/23/209 17/109/210
f 17/109/211 38/23/212 7/110/213
f 17/109/214 7/110/215 16/111/216
