# This file uses centimeters as units for non-parametric coordinates.

g default
v 0.199140 -0.134574 0.121714
v 0.143985 -0.197144 -0.433571
v 0.254270 -0.001846 -0.534402
v 0.339631 0.249479 -0.585965
v 0.480618 0.311224 -0.340972
v 0.413032 0.246698 -0.132012
v -0.062020 -0.450059 0.485797
v -0.054356 -0.498957 0.236531
v -0.078866 0.389942 0.076843
v -0.069743 0.381203 -0.175686
v -0.319575 0.305662 0.180415
v 0.169131 0.498957 -0.364614
v 0.075849 0.462139 -0.484827
v -0.480618 0.216781 0.341850
v -0.250224 0.283654 0.406919
v -0.260139 0.362817 -0.280263
v -0.387420 0.314071 -0.041813
v -0.389171 0.226354 0.573572
v 0.118734 0.483402 -0.177054
v 0.089874 0.257248 -0.486681
v -0.001906 -0.349401 -0.036085
v -0.365828 -0.311832 0.510362
v -0.356939 0.080560 0.585965
v -0.175862 -0.181360 0.418621
v -0.002012 0.152766 0.287078
v 0.175615 0.439154 0.025903
v 0.278609 0.467781 -0.581890
v 0.242507 0.084905 0.058705
v 0.019548 0.064871 -0.410797
vt 0.448581 0.966985
vt 0.448008 0.967559
vt 0.448581 0.967559
vt 0.448008 0.968132
vt 0.447622 0.967945
vt 0.447581 0.968132
vt 0.447467 0.968404
vt 0.447581 0.968132
vt 0.447434 0.969048
vt 0.447081 0.969223
vt 0.447632 0.969082
vt 0.447434 0.969279
vt 0.447374 0.968766
vt 0.446861 0.968831
vt 0.447374 0.968766
vt 0.447715 0.968706
vt 0.447759 0.968381
vt 0.447717 0.969059
vt 0.447723 0.968990
vt 0.447506 0.968635
vt 0.447642 0.968633
vt 0.447434 0.968706
vt 0.448008 0.969279
vt 0.448581 0.969279
vt 0.447951 0.969702
vt 0.447679 0.969608
vt 0.448083 0.969778
vt 0.448083 0.969778
vt 0.448581 0.969805
vt 0.448581 0.969805
vt 0.449066 0.969738
vt 0.448678 0.969756
vt 0.446969 0.968706
vt 0.447004 0.969137
vt 0.446969 0.968706
vt 0.447025 0.969280
vt 0.447020 0.969297
vt 0.446977 0.969546
vt 0.447434 0.969600
vt 0.447568 0.967634
vt 0.448912 0.966693
vt 0.446603 0.969185
vt 0.447515 0.970346
vt 0.448581 0.970893
vt 0.448581 0.970426
vt 0.449079 0.970041
vt 0.448848 0.969586
vt 0.448581 0.969425
vt 0.448848 0.969586
vt 0.448501 0.969360
vt 0.448356 0.968932
vt 0.447895 0.968819
vt 0.447434 0.968384
vt 0.447625 0.968515
vt 0.447220 0.968607
vt 0.446861 0.969279
vt 0.446726 0.969988
vt 0.446523 0.969617
vt 0.447434 0.969548
vt 0.448972 0.967134
vt 0.449107 0.966927
vt 0.448581 0.968002
vt 0.448482 0.968132
vt 0.448340 0.968366
vt 0.448480 0.968807
vt 0.447145 0.968706
vt 0.447027 0.969279
vt 0.446861 0.969648
vt 0.447434 0.969773
vt 0.447434 0.969773
vt 0.447845 0.969617
vt 0.448246 0.969221
vt 0.448469 0.968837
vt 0.448789 0.968448
vt 0.448904 0.968383
vt 0.449230 0.968069
vt 0.448897 0.967816
vt 0.448075 0.968225
vt 0.448008 0.968318
vt 0.447515 0.970346
vt 0.447434 0.968192
vt 0.448518 0.968770
vt 0.448518 0.968770
vt 0.449038 0.969396
vt 0.449038 0.969396
vt 0.447434 0.968351
vt 0.447149 0.968417
vt 0.446861 0.969279
vt 0.446953 0.969761
vt 0.446953 0.969761
vt 0.448147 0.970861
vt 0.447892 0.970542
vn 0.863286 -0.503859 -0.029390
vn 0.863286 -0.503859 -0.029390
vn 0.863286 -0.503859 -0.029390
vn 0.863869 -0.502873 -0.029142
vn 0.863869 -0.502872 -0.029142
vn 0.863869 -0.502872 -0.029142
vn 0.843240 -0.366985 -0.392771
vn 0.843240 -0.366985 -0.392771
vn 0.843240 -0.366985 -0.392771
vn 0.788683 -0.611209 0.066350
vn 0.788683 -0.611209 0.066350
vn 0.788683 -0.611209 0.066350
vn 0.720097 0.056260 0.691588
vn 0.720098 0.056260 0.691588
vn 0.720098 0.056260 0.691588
vn 0.923878 0.379897 -0.046120
vn 0.923878 0.379897 -0.046120
vn 0.923878 0.379897 -0.046120
vn 0.623647 -0.195364 0.756900
vn 0.623647 -0.195364 0.756900
vn 0.623647 -0.195364 0.756900
vn 0.780430 -0.599202 -0.178566
vn 0.780430 -0.599202 -0.178566
vn 0.780430 -0.599202 -0.178566
vn 0.728344 -0.685194 0.004863
vn 0.728344 -0.685194 0.004863
vn 0.728344 -0.685194 0.004863
vn -0.476394 0.877943 -0.047588
vn -0.476394 0.877943 -0.047588
vn -0.476394 0.877943 -0.047588
vn -0.347304 0.936674 -0.044957
vn -0.347304 0.936674 -0.044957
vn -0.347304 0.936674 -0.044957
vn -0.476251 0.877576 -0.055188
vn -0.476250 0.877576 -0.055188
vn -0.476250 0.877576 -0.055188
vn -0.123584 0.971623 -0.201683
vn -0.123584 0.971623 -0.201683
vn -0.123584 0.971623 -0.201683
vn -0.158363 0.980552 0.115924
vn -0.158363 0.980552 0.115924
vn -0.158363 0.980552 0.115924
vn -0.169893 0.981435 0.089005
vn -0.169893 0.981435 0.089005
vn -0.169893 0.981435 0.089005
vn -0.322560 0.927513 0.188879
vn -0.322560 0.927513 0.188879
vn -0.322560 0.927513 0.188879
vn -0.258954 0.950517 0.171639
vn -0.258954 0.950517 0.171639
vn -0.258954 0.950517 0.171639
vn -0.427176 -0.102638 -0.898324
vn -0.427176 -0.102638 -0.898324
vn -0.427176 -0.102638 -0.898324
vn -0.414202 0.909171 0.042957
vn -0.414202 0.909171 0.042957
vn -0.414202 0.909171 0.042957
vn -0.184962 0.968545 0.166462
vn -0.184962 0.968545 0.166462
vn -0.184962 0.968545 0.166462
vn -0.732821 -0.474075 -0.488085
vn -0.732821 -0.474075 -0.488085
vn -0.732821 -0.474075 -0.488085
vn -0.903720 -0.061168 0.423732
vn -0.903720 -0.061168 0.423732
vn -0.903720 -0.061168 0.423732
vn -0.914083 -0.170817 0.367795
vn -0.914083 -0.170817 0.367795
vn -0.914083 -0.170817 0.367795
vn -0.298253 0.951261 0.078407
vn -0.298253 0.951261 0.078407
vn -0.298253 0.951261 0.078407
vn -0.533164 -0.134560 -0.835242
vn -0.533164 -0.134560 -0.835242
vn -0.533164 -0.134560 -0.835242
vn -0.680114 -0.089330 -0.727644
vn -0.680114 -0.089330 -0.727644
vn -0.680114 -0.089330 -0.727644
vn -0.728124 -0.346624 -0.591344
vn -0.728124 -0.346623 -0.591344
vn -0.728124 -0.346623 -0.591344
vn 0.712706 0.214341 0.667913
vn 0.712706 0.214341 0.667913
vn 0.712706 0.214341 0.667913
vn 0.773170 0.139212 0.618731
vn 0.773170 0.139212 0.618731
vn 0.773170 0.139212 0.618731
vn 0.580672 0.637271 0.506662
vn 0.580672 0.637271 0.506662
vn 0.580672 0.637271 0.506662
vn -0.136027 0.959350 0.247274
vn -0.136027 0.959350 0.247275
vn -0.136027 0.959350 0.247274
vn -0.734682 -0.295853 -0.610503
vn -0.734682 -0.295853 -0.610503
vn -0.734682 -0.295853 -0.610503
vn -0.840631 -0.486398 0.238237
vn -0.840631 -0.486398 0.238237
vn -0.840631 -0.486398 0.238237
vn -0.814808 -0.427672 -0.391387
vn -0.814808 -0.427673 -0.391387
vn -0.814808 -0.427673 -0.391387
vn -0.397388 -0.902719 0.164867
vn -0.397388 -0.902719 0.164867
vn -0.397388 -0.902719 0.164867
vn 0.522024 -0.172755 0.835253
vn 0.522024 -0.172755 0.835253
vn 0.522024 -0.172755 0.835253
vn 0.607478 0.116917 0.785685
vn 0.607478 0.116917 0.785685
vn 0.607478 0.116917 0.785685
vn 0.257114 -0.340493 0.904410
vn 0.257114 -0.340493 0.904410
vn 0.257114 -0.340493 0.904410
vn 0.618949 0.623712 0.477373
vn 0.618949 0.623712 0.477373
vn 0.618949 0.623712 0.477373
vn 0.171872 0.122959 0.977416
vn 0.171872 0.122959 0.977416
vn 0.171872 0.122959 0.977416
vn 0.453179 0.888914 0.066786
vn 0.453179 0.888914 0.066786
vn 0.453179 0.888914 0.066786
vn 0.494117 0.845392 0.202882
vn 0.494117 0.845392 0.202882
vn 0.494117 0.845392 0.202882
vn 0.880592 0.238507 0.409478
vn 0.880592 0.238507 0.409478
vn 0.880592 0.238507 0.409478
vn -0.369806 -0.016908 -0.928955
vn -0.369806 -0.016908 -0.928955
vn -0.369806 -0.016908 -0.928955
vn -0.768427 -0.450425 -0.454574
vn -0.768427 -0.450425 -0.454574
vn -0.768427 -0.450425 -0.454574
vn 0.221728 0.323884 0.919748
vn 0.221728 0.323884 0.919748
vn 0.221728 0.323884 0.919748
vn 0.691191 0.069922 0.719282
vn 0.691191 0.069922 0.719282
vn 0.691191 0.069922 0.719282
vn 0.646024 0.190432 0.739181
vn 0.646024 0.190432 0.739181
vn 0.646024 0.190432 0.739181
vn 0.723087 0.558583 0.406363
vn 0.723087 0.558583 0.406363
vn 0.723087 0.558583 0.406363
vn 0.482652 0.742281 -0.464830
vn 0.482652 0.742281 -0.464830
vn 0.482652 0.742281 -0.464830
vn -0.370367 -0.064325 -0.926655
vn -0.370367 -0.064325 -0.926655
vn -0.370367 -0.064325 -0.926655
vn -0.494647 -0.156397 -0.854906
vn -0.494647 -0.156397 -0.854906
vn -0.494647 -0.156397 -0.854906
vn -0.495310 -0.161035 -0.853660
vn -0.495310 -0.161035 -0.853660
vn -0.495310 -0.161035 -0.853660
s off
g ShatterPar04
f 3/67/1 6/71/2 1/65/3
f 2/66/4 3/67/5 1/65/6
f 3/67/7 4/68/8 5/69/9
f 5/70/10 6/71/11 3/67/12
f 1/73/13 6/71/14 28/72/15
f 7/76/16 8/77/17 24/75/18
f 24/75/19 8/77/20 1/74/21
f 8/77/22 21/78/23 1/65/24
f 1/65/25 21/79/26 2/66/27
f 9/2/28 19/6/29 10/4/30
f 9/2/31 10/4/32 11/3/33
f 10/4/34 19/8/35 12/7/36
f 27/19/37 13/18/38 12/11/39
f 16/63/40 17/62/41 10/4/42
f 10/4/43 17/62/44 11/3/45
f 11/3/46 14/60/47 15/1/48
f 9/2/49 11/3/50 15/1/51
f 13/15/52 27/14/53 4/88/54
f 13/20/55 10/4/56 12/7/57
f 13/21/58 16/64/59 10/4/60
f 17/48/61 16/49/62 29/45/63
f 14/52/64 22/56/65 23/55/66
f 14/54/67 23/55/68 18/53/69
f 15/1/70 14/61/71 18/41/72
f 16/47/73 20/46/74 29/45/75
f 21/43/76 14/52/77 11/51/78
f 8/57/79 22/56/80 14/52/81
f 15/39/82 18/38/83 23/37/84
f 24/22/85 15/39/86 23/36/87
f 15/26/88 25/23/89 9/25/90
f 9/2/91 26/40/92 19/5/93
f 2/92/94 17/50/95 29/45/96
f 17/50/97 21/43/98 11/51/99
f 21/43/100 8/57/101 14/52/102
f 22/56/103 8/57/104 7/58/105
f 22/35/106 24/22/107 23/34/108
f 15/39/109 24/22/110 1/82/111
f 25/23/112 15/39/113 1/82/114
f 9/27/115 25/23/116 28/24/117
f 9/28/118 28/24/119 26/29/120
f 5/87/121 19/10/122 26/42/123
f 19/10/124 5/87/125 12/9/126
f 4/17/127 27/16/128 12/9/129
f 13/13/130 4/88/131 20/12/132
f 21/80/133 17/50/134 2/92/135
f 7/81/136 24/22/137 22/33/138
f 1/83/139 28/24/140 25/23/141
f 28/24/142 6/84/143 26/30/144
f 26/32/145 6/85/146 5/31/147
f 4/86/148 12/9/149 5/87/150
f 4/88/151 3/89/152 20/12/153
f 20/12/154 3/90/155 29/59/156
f 29/45/157 3/44/158 2/91/159
