# This file uses centimeters as units for non-parametric coordinates.

g default
v -0.146196 0.909829 -0.146196
v -0.504260 0.909829 0.455561
v 0.635345 0.909829 0.635345
v 0.398690 0.909829 -0.909829
v 0.909829 0.909829 0.821544
v 0.909829 0.909829 -0.909829
v 0.496161 0.496161 -0.909829
v -0.295685 -0.909829 -0.909829
v 0.909829 -0.909829 -0.909829
v -0.909829 -0.909829 0.199133
v -0.229412 -0.909829 0.229412
v -0.909829 -0.909829 0.473799
v 0.909829 -0.909829 -0.587648
v -0.067379 -0.909829 0.139926
v -0.909829 -0.841778 0.477204
v -0.909829 -0.909829 0.528389
v -0.909829 -0.522813 0.522813
v -0.909829 0.909829 0.712466
v 0.909829 0.909829 0.909829
v 0.165569 -0.165569 0.909829
v -0.260654 -0.909829 0.909829
v -0.146196 1.091795 -0.146196
v -0.504260 1.091795 0.455561
v 0.635345 1.091795 0.635345
v 0.909829 1.091795 0.821544
v 0.909829 1.000812 -1.000812
v 0.398690 1.000812 -1.000812
v 0.496161 0.496161 -1.091795
v -0.295685 -1.000812 -1.000812
v 0.909829 -1.000812 -1.000812
v -0.229412 -1.091795 0.229412
v -1.000812 -1.000812 0.199133
v -1.038498 -1.038499 0.473799
v -0.601658 -1.091795 0.406240
v -0.067379 -1.091795 0.139926
v 0.909829 -1.091795 -0.587648
v -1.091795 -0.841778 0.477204
v -1.038498 -1.038499 0.528389
v -1.091795 -0.522813 0.522813
v -1.091795 -0.695120 0.695120
v -1.038498 -0.126009 1.038499
v -1.000812 1.000812 0.712466
v -1.014887 1.014887 1.014887
v 0.909829 1.000812 1.000812
v 0.165569 -0.165569 1.091795
v -0.260654 -1.000812 1.000812
v -1.014887 -1.014887 1.014887
v -0.351369 -1.091795 0.351369
v 0.165569 -0.165569 0.909829
v -0.260654 -0.909829 0.909829
v 0.909829 0.909829 0.909829
v 0.909829 -0.909829 -0.587648
v 0.909829 -0.909829 -0.909829
v 0.909829 0.909829 0.821544
v 0.909829 0.909829 -0.909829
v -0.067379 -0.909829 0.139926
v 0.635345 0.909829 0.635345
v -0.909829 0.909829 0.712466
v -0.504260 0.909829 0.455561
v -0.909829 -0.841778 0.477204
v -0.909829 -0.909829 0.199133
v -0.295685 -0.909829 -0.909829
v 0.496161 0.496161 -0.909829
v 0.398690 0.909829 -0.909829
v -0.146196 0.909829 -0.146196
v -0.260654 -1.000812 1.000812
v 0.000000 -1.038499 1.038499
v 0.165569 -0.165569 1.091795
v 1.014887 -1.014887 1.014887
v 0.909829 1.000812 1.000812
v 1.000812 -1.000812 -0.587648
v 1.091795 0.578389 0.578389
v 1.091795 -0.909829 -0.909829
v 1.000812 1.000812 0.821544
v 1.091795 0.909829 -0.909829
v -1.091795 -0.494576 0.494576
v -1.014887 1.014887 -1.014887
v -1.038498 1.038498 0.391578
v 1.038499 -1.038499 -0.454915
v -0.067379 -1.091795 0.139926
v 0.635345 1.091795 0.635345
v -1.000812 1.000812 0.712466
v -0.504260 1.091795 0.455561
v -1.091795 -0.522813 0.522813
v -1.091795 -0.841778 0.477204
v -1.014887 -1.014887 -1.014887
v -1.000812 -1.000812 0.199133
v -0.295685 -1.000812 -1.000812
v 0.496161 0.496161 -1.091795
v 0.398690 1.000812 -1.000812
v -0.146196 1.091795 -0.146196
vt 0.371436 0.954187
vt 0.370307 0.952291
vt 0.373899 0.951724
vt 0.373153 0.956594
vt 0.374764 0.951137
vt 0.374764 0.956594
vt 0.373461 0.957898
vt 0.370965 0.962330
vt 0.374764 0.962330
vt 0.369029 0.965825
vt 0.371174 0.965921
vt 0.370000 0.966478
vt 0.369029 0.966691
vt 0.374764 0.963345
vt 0.371684 0.965639
vt 0.367665 0.945338
vt 0.366789 0.945123
vt 0.367655 0.945123
vt 0.369029 0.966863
vt 0.367809 0.946343
vt 0.367827 0.945123
vt 0.368352 0.945800
vt 0.369029 0.947594
vt 0.369029 0.950859
vt 0.374764 0.950859
vt 0.369029 0.951481
vt 0.372419 0.947469
vt 0.369029 0.945123
vt 0.371075 0.945123
vt 0.369029 0.968065
vt 0.370789 0.966305
vt 0.371075 0.968065
vt 0.374764 0.962330
vt 0.371174 0.965921
vt 0.371684 0.965639
vt 0.367665 0.945338
vt 0.367655 0.945123
vt 0.367827 0.945123
vt 0.371436 0.954187
vt 0.370307 0.952291
vt 0.373899 0.951724
vt 0.374764 0.951137
vt 0.374764 0.956594
vt 0.373153 0.956594
vt 0.373461 0.957898
vt 0.370965 0.962330
vt 0.374764 0.962330
vt 0.369029 0.965825
vt 0.374764 0.963345
vt 0.371684 0.965639
vt 0.367665 0.945338
vt 0.366789 0.945123
vt 0.367809 0.946343
vt 0.368407 0.950859
vt 0.374764 0.950859
vt 0.369029 0.951481
vt 0.372419 0.947469
vt 0.371075 0.945123
vt 0.371075 0.968065
vt 0.371075 0.945123
vt 0.371897 0.945123
vt 0.372419 0.947469
vt 0.374764 0.945123
vt 0.374764 0.950859
vt 0.379484 0.945123
vt 0.375809 0.949814
vt 0.380500 0.945123
vt 0.375043 0.950859
vt 0.380500 0.950859
vt 0.363293 0.950859
vt 0.367720 0.946432
vt 0.367395 0.950859
vt 0.371897 0.968065
vt 0.374764 0.963764
vt 0.374764 0.968065
vt 0.379066 0.945123
vt 0.374764 0.963345
vt 0.371684 0.965639
vt 0.371075 0.968065
vt 0.374764 0.951137
vt 0.373899 0.951724
vt 0.369029 0.951481
vt 0.370307 0.952291
vt 0.369029 0.952492
vt 0.367809 0.946343
vt 0.368407 0.950859
vt 0.367665 0.945338
vt 0.363293 0.945123
vt 0.366789 0.945123
vt 0.369029 0.962330
vt 0.370965 0.962330
vt 0.369029 0.965825
vt 0.373461 0.957898
vt 0.373153 0.956594
vt 0.369029 0.956594
vt 0.371436 0.954187
vt 0.372419 0.947469
vt 0.371075 0.945123
vt 0.374764 0.950859
vt 0.379484 0.945123
vt 0.380500 0.945123
vt 0.380500 0.950859
vt 0.375043 0.950859
vt 0.371684 0.965639
vt 0.374764 0.963345
vt 0.371075 0.968065
vt 0.374764 0.951137
vt 0.373899 0.951724
vt 0.369029 0.951481
vt 0.370307 0.952291
vt 0.367665 0.945338
vt 0.366789 0.945123
vt 0.370965 0.962330
vt 0.369029 0.965825
vt 0.373461 0.957898
vt 0.373153 0.956594
vt 0.371436 0.954187
vn 0.000000 1.000000 0.000000
vn 0.000000 1.000000 0.000000
vn 0.000000 1.000000 0.000000
vn 0.033806 0.998185 -0.049835
vn 0.033806 0.998185 -0.049835
vn 0.033806 0.998185 -0.049835
vn 0.000000 0.998458 -0.055522
vn 0.000000 0.998457 -0.055522
vn 0.000000 0.998457 -0.055522
vn 0.064738 0.995800 -0.064738
vn 0.064738 0.995800 -0.064738
vn 0.064738 0.995800 -0.064738
vn 0.000000 0.177428 -0.984134
vn 0.000000 0.177428 -0.984134
vn 0.000000 0.177428 -0.984134
vn 0.000000 -0.060666 -0.998158
vn 0.000000 -0.060666 -0.998158
vn 0.000000 -0.060666 -0.998158
vn 0.214808 0.000000 -0.976656
vn 0.214808 0.000000 -0.976656
vn 0.214808 0.000000 -0.976656
vn 0.000000 -0.997276 -0.073755
vn 0.000000 -0.997276 -0.073755
vn 0.000000 -0.997276 -0.073755
vn -0.143066 -0.977694 -0.153777
vn -0.143066 -0.977694 -0.153777
vn -0.143066 -0.977694 -0.153777
vn -0.171201 -0.980086 -0.100603
vn -0.171201 -0.980086 -0.100603
vn -0.171201 -0.980086 -0.100603
vn -0.034146 -0.996828 -0.071882
vn -0.034146 -0.996828 -0.071882
vn -0.034146 -0.996828 -0.071882
vn -0.082375 -0.985376 -0.149159
vn -0.082375 -0.985376 -0.149159
vn -0.082375 -0.985376 -0.149159
vn -0.158106 -0.964318 -0.212353
vn -0.158106 -0.964318 -0.212353
vn -0.158106 -0.964318 -0.212353
vn -0.952579 -0.255209 -0.165718
vn -0.952579 -0.255209 -0.165718
vn -0.952579 -0.255209 -0.165718
vn -0.121107 -0.992640 0.000000
vn -0.121107 -0.992640 0.000000
vn -0.121107 -0.992640 0.000000
vn 0.000000 0.141549 -0.989931
vn -0.484030 0.221294 -0.846608
vn -0.554792 -0.201063 -0.807329
vn -0.812077 -0.185448 -0.553299
vn 0.000000 0.829617 -0.558333
vn -0.965204 -0.261498 0.000000
vn -0.965204 -0.261498 0.000000
vn -0.965204 -0.261498 0.000000
vn -0.963487 -0.222135 0.149496
vn -0.963487 -0.222135 0.149496
vn -0.963487 -0.222135 0.149496
vn -0.996606 0.058211 0.058209
vn -0.996606 0.058211 0.058209
vn -0.996606 0.058211 0.058209
vn -0.996660 0.051640 0.063270
vn -0.996660 0.051640 0.063270
vn -0.996660 0.051640 0.063270
vn -0.998682 0.019687 -0.047396
vn -0.998682 0.019687 -0.047396
vn -0.998682 0.019687 -0.047396
vn 0.006967 0.998909 -0.046167
vn 0.006967 0.998909 -0.046167
vn 0.006967 0.998910 -0.046167
vn 0.007826 0.072802 0.997316
vn 0.007826 0.072802 0.997316
vn 0.007826 0.072802 0.997316
vn -0.043503 0.021571 0.998820
vn -0.043503 0.021571 0.998820
vn -0.043503 0.021571 0.998820
vn -0.046834 -0.084521 0.995320
vn -0.046834 -0.084521 0.995320
vn -0.046834 -0.084521 0.995321
vn 0.019138 -0.026041 0.999478
vn 0.019138 -0.026041 0.999478
vn 0.019138 -0.026041 0.999478
vn 0.021019 -0.990509 0.135828
vn 0.021019 -0.990510 0.135828
vn 0.021019 -0.990509 0.135828
vn 0.093319 -0.987716 0.125338
vn 0.093319 -0.987715 0.125338
vn 0.093319 -0.987716 0.125338
vn 0.000000 -1.000000 0.000000
vn 0.000000 -1.000000 0.000000
vn 0.000000 -1.000000 0.000000
vn 0.000000 -1.000000 0.000003
vn 0.000000 -1.000000 0.000003
vn 0.000000 -1.000000 0.000003
vn 0.032176 -0.988647 0.146769
vn 0.032176 -0.988647 0.146769
vn 0.032176 -0.988647 0.146769
vn -0.106224 -0.992910 0.053344
vn -0.106224 -0.992910 0.053344
vn -0.106224 -0.992910 0.053344
vn -0.982083 -0.179813 0.056390
vn -0.982083 -0.179813 0.056390
vn -0.982083 -0.179813 0.056390
vn -0.978482 -0.031408 0.203929
vn -0.978482 -0.031408 0.203929
vn -0.978482 -0.031408 0.203929
vn 0.000000 1.000000 0.000000
vn 0.000000 1.000000 0.000000
vn 0.000000 1.000000 0.000000
vn 1.000000 -0.000002 0.000000
vn 1.000000 -0.000002 0.000000
vn 1.000000 -0.000002 0.000000
vn -0.859371 0.000000 -0.511352
vn -0.859371 0.000000 -0.511352
vn -0.859371 0.000000 -0.511352
vn -0.859371 0.000000 -0.511352
vn -0.155833 0.000000 0.987783
vn -0.155833 0.000000 0.987783
vn -0.155833 0.000000 0.987783
vn -0.155833 0.000000 0.987783
vn 1.000000 0.000000 0.000000
vn 1.000000 0.000000 0.000000
vn 1.000000 0.000000 0.000000
vn 1.000000 0.000000 0.000000
vn -0.561382 0.000000 0.827557
vn -0.561381 0.000000 0.827557
vn -0.561382 0.000000 0.827557
vn -0.561381 0.000000 0.827558
vn -0.814019 0.000000 -0.580838
vn -0.816384 -0.022975 -0.577052
vn -0.789833 -0.394558 -0.469561
vn -0.775196 -0.446694 -0.446694
vn -0.973345 -0.229345 0.000000
vn -0.976634 -0.175652 -0.123825
vn -0.975081 -0.220941 -0.020035
vn -0.974251 -0.159429 -0.159429
vn -0.871317 0.490720 0.000000
vn -0.871852 0.489656 -0.010551
vn -0.826973 0.416927 -0.377209
vn -0.817228 0.407516 -0.407516
vn 1.000000 0.000000 0.000000
vn 1.000000 0.000000 0.000000
vn 1.000000 0.000000 0.000000
vn 1.000000 0.000000 0.000000
vn -0.658424 0.658421 -0.364636
vn -0.765214 0.461663 -0.448681
vn -0.666210 0.647216 -0.370507
vn -0.769088 0.451942 -0.451942
vn 0.597196 0.000000 0.802096
vn 0.597195 0.000000 0.802096
vn 0.597196 0.000000 0.802096
vn 0.597195 0.000000 0.802096
vn 1.000000 0.000000 0.000000
vn 1.000000 0.000000 0.000000
vn 1.000000 0.000000 0.000000
vn 1.000000 0.000001 0.000000
vn -0.696752 0.696751 -0.170513
vn -0.403363 0.844936 -0.351258
vn -0.115180 0.878056 -0.464491
vn 0.000000 0.868060 -0.496460
vn 0.076470 0.705036 -0.705036
vn 0.145911 0.170301 -0.974530
vn 0.078693 0.694059 -0.715605
vn 0.147592 0.147592 -0.977974
vn 0.822280 -0.569083 0.000000
vn 0.779721 -0.469541 0.414206
vn 0.823420 -0.567215 0.015703
vn 0.766798 -0.453883 0.453884
vn 0.867775 -0.496957 0.000000
vn 0.869802 -0.492949 -0.021140
vn 0.850401 -0.404851 -0.336027
vn 0.838145 -0.385689 -0.385690
vn 0.969905 0.000000 0.243483
vn 0.964883 0.167015 0.202748
vn 0.970444 0.010707 0.241088
vn 0.961158 0.195160 0.195161
vn -0.147602 -0.032358 0.988517
vn -0.147602 -0.032358 0.988517
vn -0.147602 -0.032358 0.988517
vn 0.024734 -0.065596 0.997540
vn 0.024734 -0.065596 0.997540
vn 0.024734 -0.065596 0.997540
vn 0.102350 0.012280 0.994673
vn 0.102350 0.012280 0.994673
vn 0.102350 0.012280 0.994673
vn 0.390839 -0.561216 0.729576
vn 0.390839 -0.561216 0.729576
vn 0.390839 -0.561216 0.729576
vn 0.954772 -0.210251 0.210251
vn 0.954772 -0.210251 0.210251
vn 0.954772 -0.210251 0.210251
vn 0.981405 0.187359 0.041727
vn 0.981405 0.187359 0.041727
vn 0.981405 0.187359 0.041727
vn 1.000000 0.000000 0.000000
vn 1.000000 0.000000 0.000000
vn 1.000000 0.000000 0.000000
vn -0.999286 0.033575 -0.017339
vn -0.999286 0.033575 -0.017339
vn -0.999286 0.033575 -0.017339
vn 0.023638 -0.999585 0.016437
vn 0.023638 -0.999585 0.016437
vn 0.023638 -0.999585 0.016437
vn 0.954437 0.210913 -0.211105
vn 0.954437 0.210912 -0.211105
vn 0.954437 0.210913 -0.211105
vn 0.998524 0.052149 0.015203
vn 0.998524 0.052149 0.015203
vn 0.998524 0.052149 0.015203
vn -0.087463 -0.964540 -0.249023
vn -0.087463 -0.964540 -0.249023
vn -0.087463 -0.964540 -0.249023
vn -0.152640 -0.985806 0.069916
vn -0.152640 -0.985806 0.069916
vn -0.152640 -0.985806 0.069916
vn 0.076656 -0.995632 0.053305
vn 0.076656 -0.995632 0.053305
vn 0.076656 -0.995632 0.053305
vn 0.193109 0.976270 0.098008
vn 0.193109 0.976270 0.098008
vn 0.193109 0.976270 0.098008
vn 0.889646 -0.068287 0.451517
vn 0.889646 -0.068287 0.451517
vn 0.889646 -0.068287 0.451517
vn -0.040762 0.961970 0.270097
vn -0.040762 0.961970 0.270097
vn -0.040762 0.961970 0.270097
vn -0.041285 0.964266 0.261698
vn -0.041285 0.964266 0.261698
vn -0.041285 0.964266 0.261698
vn -0.113730 0.985095 0.129051
vn -0.113730 0.985095 0.129051
vn -0.113730 0.985095 0.129051
vn -0.997191 0.052955 0.052963
vn -0.997191 0.052955 0.052963
vn -0.997191 0.052955 0.052963
vn -0.991679 0.042636 0.121474
vn -0.991679 0.042636 0.121474
vn -0.991678 0.042636 0.121474
vn -1.000000 -0.000001 0.000007
vn -1.000000 -0.000001 0.000007
vn -1.000000 -0.000001 0.000007
vn -0.999933 0.000000 0.011593
vn -0.999933 0.000000 0.011593
vn -0.999933 0.000000 0.011593
vn -0.961884 -0.145983 -0.231231
vn -0.961884 -0.145983 -0.231231
vn -0.961884 -0.145983 -0.231231
vn -0.998822 0.002425 -0.048466
vn -0.998822 0.002425 -0.048466
vn -0.998822 0.002425 -0.048466
vn 0.019343 -0.999748 0.011367
vn 0.019343 -0.999748 0.011367
vn 0.019343 -0.999748 0.011367
vn 0.020918 -0.071674 -0.997209
vn 0.020918 -0.071674 -0.997209
vn 0.020918 -0.071674 -0.997209
vn 0.011583 0.179583 -0.983675
vn 0.011583 0.179583 -0.983675
vn 0.011583 0.179583 -0.983675
vn -0.050831 0.000000 -0.998707
vn -0.050831 0.000000 -0.998707
vn -0.050831 0.000000 -0.998707
vn 0.010893 0.995029 -0.098986
vn 0.010893 0.995029 -0.098986
vn 0.010893 0.995029 -0.098986
vn -0.092583 0.994180 -0.055090
vn -0.092583 0.994180 -0.055090
vn -0.092583 0.994180 -0.055090
vn -0.070374 0.997360 -0.017925
vn -0.070374 0.997360 -0.017925
vn -0.070374 0.997360 -0.017925
vn -0.867775 0.496957 0.000000
vn -0.850401 0.404851 0.336027
vn -0.869802 0.492949 0.021140
vn -0.838145 0.385690 0.385690
vn -0.822280 0.569083 0.000000
vn -0.823420 0.567215 -0.015703
vn -0.779721 0.469541 -0.414206
vn -0.766798 0.453883 -0.453883
vn -0.707107 -0.707107 0.000000
vn -0.122421 -0.963629 -0.237554
vn -0.464212 -0.877983 -0.116848
vn 0.000000 -0.962363 -0.271768
vn -0.707107 0.707107 0.000000
vn -0.659388 0.751787 -0.004855
vn -0.023807 0.998404 -0.051215
vn 0.000000 0.998622 -0.052477
vn 0.000000 0.000000 -1.000000
vn 0.000000 0.000000 -1.000000
vn 0.000000 0.000000 -1.000000
vn 0.000000 0.000000 -1.000000
vn -0.597196 0.000000 -0.802096
vn -0.487885 -0.426096 -0.761847
vn -0.594948 -0.017943 -0.803564
vn -0.469411 -0.469411 -0.747868
vn -0.969905 0.000000 -0.243483
vn -0.970444 -0.010707 -0.241088
vn -0.964883 -0.167015 -0.202748
vn -0.961158 -0.195160 -0.195161
vn 0.561382 0.000000 -0.827557
vn 0.529628 -0.066390 -0.845628
vn 0.415583 -0.263822 -0.870453
vn 0.353345 -0.353345 -0.866195
vn -0.076470 -0.705036 0.705036
vn -0.078693 -0.694058 0.715605
vn -0.145911 -0.170301 0.974530
vn -0.147592 -0.147592 0.977974
vn 0.155833 0.000000 -0.987783
vn 0.155833 0.000000 -0.987783
vn 0.155833 0.000000 -0.987783
vn 0.155833 0.000000 -0.987783
vn 0.696752 -0.696751 0.170513
vn 0.115180 -0.878056 0.464491
vn 0.403363 -0.844936 0.351258
vn -0.000000 -0.868060 0.496460
vn 0.658424 -0.658421 0.364636
vn 0.666210 -0.647216 0.370506
vn 0.765214 -0.461663 0.448681
vn 0.769088 -0.451943 0.451942
vn 0.871317 -0.490720 0.000000
vn 0.826973 -0.416927 0.377209
vn 0.871852 -0.489656 0.010551
vn 0.817228 -0.407516 0.407516
vn 0.973345 0.229345 0.000000
vn 0.975081 0.220941 0.020035
vn 0.976634 0.175652 0.123825
vn 0.974251 0.159429 0.159429
vn 0.814019 0.000000 0.580838
vn 0.789833 0.394558 0.469561
vn 0.816384 0.022975 0.577052
vn 0.775196 0.446694 0.446694
vn 0.859371 0.000000 0.511352
vn 0.859371 0.000000 0.511352
vn 0.859371 0.000000 0.511352
vn 0.859371 0.000000 0.511352
s off
g Shatterd02
f 22/39/1 23/40/2 24/41/3
f 25/42/4 26/43/5 24/41/6
f 26/43/7 27/44/8 24/41/9
f 27/44/10 22/39/11 24/41/12
f 28/45/13 27/44/14 26/43/15
f 29/46/16 28/45/17 30/47/18
f 30/47/19 28/45/20 26/43/21
f 30/47/22 31/11/23 29/46/24
f 33/13/25 32/48/26 34/12/27
f 32/48/28 29/46/29 34/12/30
f 29/46/31 31/11/32 34/12/33
f 31/11/34 30/47/35 35/50/36
f 36/49/37 35/50/38 30/47/39
f 37/51/40 32/52/41 33/18/42
f 33/13/43 34/12/44 38/19/45
s 1
f 17/20/46 15/16/47 39/53/48
f 39/53/48 15/16/47 40/22/49
f 37/51/50 40/22/49 15/16/47
s off
f 33/18/51 38/21/52 37/51/53
f 37/51/54 38/21/55 40/22/56
f 40/22/57 41/23/58 39/53/59
f 39/53/60 41/23/61 42/54/62
f 42/54/63 41/23/64 43/24/65
f 43/24/66 44/55/67 42/56/68
f 43/24/69 45/57/70 44/55/71
f 43/24/72 41/23/73 45/57/74
f 45/57/75 41/23/76 46/58/77
f 47/28/78 46/58/79 41/23/80
f 47/30/81 48/31/82 46/59/83
f 46/59/84 48/31/85 35/50/86
f 31/11/87 35/50/88 48/31/89
f 34/12/90 31/11/91 48/31/92
f 48/31/93 47/30/94 34/12/95
f 38/19/96 34/12/97 47/30/98
f 40/22/99 38/21/100 47/28/101
f 41/23/102 40/22/103 47/28/104
f 11/34/105 14/35/106 9/33/107
f 12/37/108 15/36/109 16/38/110
s 2
f 1/1/111 2/2/112 22/39/113
f 22/39/113 2/2/112 23/40/114
s 3
f 2/2/115 3/3/116 23/40/117
f 23/40/117 3/3/116 24/41/118
s 4
f 5/5/119 6/6/120 25/42/121
f 25/42/121 6/6/120 26/43/122
s 5
f 3/3/123 5/5/124 24/41/125
f 24/41/125 5/5/124 25/42/126
s 6
f 1/1/127 22/39/128 4/4/129
f 4/4/129 22/39/128 27/44/130
s 7
f 7/7/131 4/4/132 28/45/133
f 28/45/133 4/4/132 27/44/134
s 8
f 7/7/135 28/45/136 8/8/137
f 8/8/137 28/45/136 29/46/138
s 9
f 6/6/139 9/9/140 26/43/141
f 26/43/141 9/9/140 30/47/142
s 10
f 10/10/143 8/8/144 32/48/145
f 32/48/145 8/8/144 29/46/146
s 11
f 13/14/147 14/15/148 36/49/149
f 36/49/149 14/15/148 35/50/150
s 12
f 13/14/151 36/49/152 9/9/153
f 9/9/153 36/49/152 30/47/154
s 13
f 10/17/155 32/52/156 15/16/157
f 15/16/157 32/52/156 37/51/158
s 14
f 19/25/159 18/26/160 44/55/161
f 44/55/161 18/26/160 42/56/162
s 15
f 20/27/163 19/25/164 45/57/165
f 45/57/165 19/25/164 44/55/166
s 16
f 20/27/167 45/57/168 21/29/169
f 21/29/169 45/57/168 46/58/170
s 17
f 14/15/171 21/32/172 35/50/173
f 35/50/173 21/32/172 46/59/174
s off
f 66/60/175 67/61/176 68/62/177
f 68/62/178 67/61/179 69/63/180
f 70/64/181 68/62/182 69/63/183
f 70/64/184 71/65/185 72/66/186
f 72/66/187 71/65/188 73/67/189
f 74/68/190 72/66/191 75/69/192
f 75/69/193 72/66/194 73/67/195
f 77/70/196 76/71/197 78/72/198
f 67/73/199 79/74/200 69/75/201
f 71/65/202 70/64/203 79/76/204
f 69/63/205 79/76/206 70/64/207
f 71/77/208 79/74/209 80/78/210
f 66/79/211 80/78/212 67/73/213
f 80/78/214 79/74/215 67/73/216
f 74/80/217 81/81/218 70/64/219
f 70/64/220 72/66/221 74/68/222
f 70/64/223 81/81/224 82/82/225
f 81/81/226 83/83/227 82/82/228
f 82/82/229 83/83/230 78/84/231
f 84/85/232 82/86/233 76/71/234
f 78/72/235 76/71/236 82/86/237
f 76/71/238 85/87/239 84/85/240
f 86/88/241 87/89/242 77/70/243
f 87/89/244 85/87/245 77/70/246
f 85/87/247 76/71/248 77/70/249
f 86/90/250 88/91/251 87/92/252
f 86/90/253 89/93/254 88/91/255
f 90/94/256 89/93/257 77/95/258
f 77/95/259 89/93/260 86/90/261
f 77/95/262 91/96/263 90/94/264
f 83/83/265 91/96/266 78/84/267
f 78/84/268 91/96/269 77/95/270
s 18
f 49/97/271 50/98/272 68/62/273
f 68/62/273 50/98/272 66/60/274
s 19
f 49/97/275 68/62/276 51/99/277
f 51/99/277 68/62/276 70/64/278
s 20
f 52/100/279 53/101/280 71/65/281
f 71/65/281 53/101/280 73/67/282
s 21
f 54/103/283 74/68/284 55/102/285
f 55/102/285 74/68/284 75/69/286
s 22
f 53/101/287 55/102/288 73/67/289
f 73/67/289 55/102/288 75/69/290
s 23
f 56/104/291 52/105/292 80/78/293
f 80/78/293 52/105/292 71/77/294
s 24
f 56/104/295 80/78/296 50/106/297
f 50/106/297 80/78/296 66/79/298
s 25
f 57/108/299 81/81/300 54/107/301
f 54/107/301 81/81/300 74/80/302
s 26
f 51/99/303 70/64/304 58/109/305
f 58/109/305 70/64/304 82/82/306
s 27
f 57/108/307 59/110/308 81/81/309
f 81/81/309 59/110/308 83/83/310
s 28
f 61/112/311 60/111/312 87/89/313
f 87/89/313 60/111/312 85/87/314
s 29
f 61/114/315 87/92/316 62/113/317
f 62/113/317 87/92/316 88/91/318
s 30
f 63/115/319 62/113/320 89/93/321
f 89/93/321 62/113/320 88/91/322
s 31
f 63/115/323 89/93/324 64/116/325
f 64/116/325 89/93/324 90/94/326
s 32
f 65/117/327 64/116/328 91/96/329
f 91/96/329 64/116/328 90/94/330
s 33
f 59/110/331 65/117/332 83/83/333
f 83/83/333 65/117/332 91/96/334
