# This file uses centimeters as units for non-parametric coordinates.

mtllib Wall01.mtl
v 6.000000 -1.000000 6.067927
v 8.000000 -1.000000 6.067927
v 6.000000 1.000000 6.067927
v 8.000000 1.000000 6.067927
v 7.079992 -1.000000 6.067927
v 7.039996 -1.000000 6.043887
v 7.000000 -1.000000 6.000000
v 6.960004 -1.000000 6.043887
v 6.920008 -1.000000 6.067927
v 7.039996 0.079992 6.043888
v 7.000000 0.079992 6.000000
v 6.960004 0.079992 6.043888
v 6.920008 0.079992 6.067928
v 6.920008 0.039996 6.043887
v 6.920008 0.000000 6.000000
v 6.920008 -0.039996 6.043887
v 6.920008 -0.079992 6.067926
v 6.960004 -0.079992 6.043888
v 7.000000 -0.079992 6.000000
v 7.039996 -0.079992 6.043888
v 7.079992 -0.079992 6.067926
v 7.079992 -0.039996 6.043887
v 7.079992 0.000000 6.000000
v 7.079992 0.039996 6.043887
v 7.079992 0.079992 6.067926
v 6.000000 -0.079992 6.067926
v 6.000000 -0.039996 6.043887
v 6.000000 0.000000 6.000000
v 6.000000 0.039996 6.043887
v 6.000000 0.079992 6.067928
v 8.000000 0.079992 6.067928
v 8.000000 0.039996 6.043887
v 8.000000 0.000000 6.000000
v 8.000000 -0.039996 6.043887
v 8.000000 -0.079992 6.067926
v 6.920008 1.000000 6.067927
v 6.960004 1.000000 6.043887
v 7.000000 1.000000 6.000000
v 7.039996 1.000000 6.043887
v 7.079992 1.000000 6.067927
v 7.039996 0.039996 6.043887
v 7.000000 0.039996 6.000000
v 6.960004 0.039996 6.043887
v 6.960004 0.000000 6.000000
v 6.960004 -0.039996 6.043887
v 7.000000 -0.039996 6.000000
v 7.039996 -0.039996 6.043887
v 7.039996 0.000000 6.000000
v 7.000000 0.000000 6.000000
vt 0.454197 0.915431
vt 0.459692 0.984118
vt 0.454197 0.952522
vt 0.422601 0.952522
vt 0.459692 0.947027
vt 0.491288 0.947027
vt 0.422601 0.915431
vt 0.454197 0.947027
vt 0.422601 0.947027
vt 0.459692 0.915431
vt 0.491288 0.915431
vt 0.454197 0.984118
vt 0.422601 0.984118
vt 0.459692 0.952522
vt 0.491288 0.952522
vt 0.491288 0.984118
vt 0.455906 0.427411
vt 0.457229 0.427411
vt 0.457229 0.457828
vt 0.455906 0.457828
vt 0.458551 0.427411
vt 0.458551 0.457828
vt 0.459873 0.427411
vt 0.459873 0.457828
vt 0.461196 0.427411
vt 0.461196 0.457828
vt 0.455906 0.463117
vt 0.457229 0.463117
vt 0.457229 0.493533
vt 0.455906 0.493533
vt 0.458551 0.463117
vt 0.458551 0.493533
vt 0.459873 0.463117
vt 0.459873 0.493533
vt 0.461196 0.463117
vt 0.461196 0.493533
vt 0.455906 0.459150
vt 0.425490 0.459150
vt 0.425490 0.457828
vt 0.455906 0.460472
vt 0.425490 0.460472
vt 0.455906 0.461795
vt 0.425490 0.461795
vt 0.425490 0.463117
vt 0.461196 0.461795
vt 0.491612 0.461795
vt 0.491612 0.463117
vt 0.461196 0.460472
vt 0.491612 0.460472
vt 0.461196 0.459150
vt 0.491612 0.459150
vt 0.491612 0.457828
vt 0.459873 0.461795
vt 0.458551 0.461795
vt 0.457229 0.461795
vt 0.457229 0.460472
vt 0.457229 0.459150
vt 0.458551 0.459150
vt 0.459873 0.459150
vt 0.459873 0.460472
vt 0.458551 0.460472
vn 0.515169 0.000001 0.857088
vn 0.647284 -0.000000 0.762249
vn 0.280701 0.280711 0.917828
vn 0.644292 0.005596 0.764760
vn 0.739112 -0.000001 0.673582
vn 0.739119 0.000000 0.673575
vn -0.739112 0.000000 0.673583
vn -0.647286 -0.000000 0.762248
vn -0.739118 -0.000000 0.673576
vn -0.644292 0.005597 0.764760
vn -0.515170 -0.000001 0.857088
vn -0.280699 0.280712 0.917828
vn 0.280718 -0.280730 0.917817
vn 0.644302 -0.005597 0.764751
vn 0.515171 0.000001 0.857087
vn 0.647286 0.000000 0.762248
vn 0.739118 0.000000 0.673576
vn 0.739112 0.000000 0.673583
vn -0.739119 0.000000 0.673575
vn -0.644292 -0.005596 0.764760
vn -0.739112 0.000001 0.673582
vn -0.647284 0.000000 0.762249
vn -0.280702 -0.280711 0.917828
vn -0.515169 -0.000001 0.857088
vn 0.005596 0.644292 0.764759
vn 0.000000 0.515155 0.857097
vn 0.000000 0.647280 0.762253
vn 0.000000 0.739112 0.673583
vn 0.000000 0.739112 0.673583
vn 0.000000 -0.739112 0.673583
vn 0.005596 -0.644303 0.764750
vn 0.000000 -0.739112 0.673583
vn 0.000000 -0.647290 0.762244
vn 0.000000 -0.515185 0.857079
vn -0.005597 -0.644292 0.764759
vn -0.000000 -0.515184 0.857079
vn 0.000000 -0.647290 0.762244
vn 0.000000 -0.739112 0.673583
vn 0.000000 -0.739112 0.673583
vn 0.000000 0.739112 0.673583
vn -0.005596 0.644292 0.764759
vn 0.000000 0.739112 0.673583
vn 0.000000 0.647280 0.762253
vn 0.000000 0.515155 0.857097
vn 0.000000 0.000001 1.000000
vn 0.000000 0.000001 1.000000
vn 0.000000 0.000001 1.000000
vn 0.000000 0.000001 1.000000
vn 0.000000 0.000001 1.000000
vn 0.000000 0.000001 1.000000
vn 0.000000 0.000001 1.000000
vn 0.000000 0.000001 1.000000
vn 0.000000 0.000001 1.000000
vn 0.000000 0.000001 1.000000
vn 0.000000 0.000001 1.000000
vn 0.000000 0.000001 1.000000
vn -0.000002 -0.000001 1.000000
vn -0.000001 0.000000 1.000000
vn -0.000001 0.000000 1.000000
vn 0.000000 0.000001 1.000000
vn 0.000000 -0.000024 1.000000
vn -0.739112 -0.000016 0.673582
vn -0.739117 -0.000006 0.673578
vn 0.739112 0.000000 0.673582
vn 0.739116 -0.000010 0.673578
vn 0.000000 -0.000024 1.000000
vn 0.000000 -0.739112 0.673583
vn 0.000000 -0.739112 0.673583
vn 0.000000 0.739112 0.673583
vn 0.000000 0.739112 0.673583
vn 0.000000 0.000024 1.000000
vn 0.739112 0.000016 0.673582
vn 0.739117 0.000006 0.673578
vn -0.739112 0.000000 0.673582
vn -0.739116 0.000010 0.673578
vn 0.000000 0.000024 1.000000
vn 0.000000 0.739112 0.673583
vn 0.000000 0.739112 0.673583
vn 0.000000 -0.739112 0.673583
vn 0.000000 -0.739112 0.673583
vn -0.594382 -0.594381 0.541684
vn -0.471997 -0.471997 0.744606
vn -0.471997 -0.471997 0.744606
vn 0.000000 0.000000 1.000000
vn 0.594382 -0.594381 0.541684
vn 0.471997 -0.471997 0.744606
vn 0.471997 -0.471997 0.744606
vn 0.000000 0.000000 1.000000
vn 0.594382 0.594381 0.541684
vn 0.471997 0.471997 0.744606
vn 0.471997 0.471997 0.744606
vn 0.000000 0.000000 1.000000
vn -0.594382 0.594381 0.541684
vn -0.471997 0.471997 0.744606
vn -0.471997 0.471997 0.744606
vn 0.000000 0.000000 1.000000
usemtl lambert3SG
f 9/17/1 8/18/2 17/20/3
f 17/20/3 8/18/2 18/19/4
f 8/18/2 7/21/5 18/19/4
f 18/19/4 7/21/5 19/22/6
f 7/21/7 6/23/8 19/22/9
f 19/22/9 6/23/8 20/24/10
f 6/23/8 5/25/11 20/24/10
f 20/24/10 5/25/11 21/26/12
f 13/27/13 12/28/14 36/30/15
f 36/30/15 12/28/14 37/29/16
f 12/28/14 11/31/17 37/29/16
f 37/29/16 11/31/17 38/32/18
f 11/31/19 10/33/20 38/32/21
f 38/32/21 10/33/20 39/34/22
f 10/33/20 25/35/23 39/34/22
f 39/34/22 25/35/23 40/36/24
f 17/20/3 16/37/25 26/39/26
f 26/39/26 16/37/25 27/38/27
f 16/37/25 15/40/28 27/38/27
f 27/38/27 15/40/28 28/41/29
f 15/40/30 14/42/31 28/41/32
f 28/41/32 14/42/31 29/43/33
f 14/42/31 13/27/13 29/43/33
f 29/43/33 13/27/13 30/44/34
f 25/35/23 24/45/35 31/47/36
f 31/47/36 24/45/35 32/46/37
f 24/45/35 23/48/38 32/46/37
f 32/46/37 23/48/38 33/49/39
f 23/48/40 22/50/41 33/49/42
f 33/49/42 22/50/41 34/51/43
f 22/50/41 21/26/12 34/51/43
f 34/51/43 21/26/12 35/52/44
usemtl lambert2SG
f 1/7/45 9/1/46 26/9/47
f 26/9/47 9/1/46 17/8/48
f 21/5/49 5/10/50 35/6/51
f 35/6/51 5/10/50 2/11/52
f 30/4/53 13/3/54 3/13/55
f 3/13/55 13/3/54 36/12/56
f 25/14/57 31/15/58 40/2/59
f 40/2/59 31/15/58 4/16/60
usemtl lambert3SG
f 25/35/23 10/33/20 24/45/35
f 24/45/35 10/33/20 41/53/61
f 41/53/62 10/33/20 42/54/63
f 42/54/63 10/33/20 11/31/19
f 42/54/64 11/31/17 43/55/65
f 43/55/65 11/31/17 12/28/14
f 13/27/13 14/42/31 12/28/14
f 12/28/14 14/42/31 43/55/66
f 43/55/67 14/42/31 44/56/68
f 44/56/68 14/42/31 15/40/30
f 44/56/69 15/40/28 45/57/70
f 45/57/70 15/40/28 16/37/25
f 17/20/3 18/19/4 16/37/25
f 16/37/25 18/19/4 45/57/71
f 45/57/72 18/19/4 46/58/73
f 46/58/73 18/19/4 19/22/6
f 46/58/74 19/22/9 47/59/75
f 47/59/75 19/22/9 20/24/10
f 21/26/12 22/50/41 20/24/10
f 20/24/10 22/50/41 47/59/76
f 47/59/77 22/50/41 48/60/78
f 48/60/78 22/50/41 23/48/40
f 48/60/79 23/48/38 41/53/80
f 41/53/80 23/48/38 24/45/35
f 41/53/81 42/54/82 48/60/83
f 48/60/83 42/54/82 49/61/84
f 43/55/85 44/56/86 42/54/87
f 42/54/87 44/56/86 49/61/88
f 45/57/89 46/58/90 44/56/91
f 44/56/91 46/58/90 49/61/92
f 47/59/93 48/60/94 46/58/95
f 46/58/95 48/60/94 49/61/96
