# This file uses centimeters as units for non-parametric coordinates.

v 34.000000 0.904510 -1.293893
v 34.000000 0.654510 -1.475528
v 34.000000 0.345493 -1.475528
v 34.000000 0.095493 -1.293893
v 34.000000 0.000000 -1.000000
v 34.000000 1.000000 -1.000000
v 5.000000 0.904509 -1.293893
v 5.000000 0.654509 -1.475528
v 5.000000 0.345491 -1.475528
v 5.000000 0.095491 -1.293893
v 5.000000 0.000000 -1.000000
v 5.000000 1.000000 -1.000000
v 4.054138 1.045071 -1.396017
v 4.054138 0.708199 -1.640769
v 4.054138 0.291801 -1.640769
v 4.054138 -0.045071 -1.396017
v 4.054138 -0.173744 -1.000000
v 4.054138 1.173744 -1.000000
vt 0.999586 0.799998
vt 0.032388 0.800330
vt 0.033487 0.600657
vt 0.999320 0.599999
vt 0.034510 0.400985
vt 0.999312 0.399999
vt 0.035463 0.201319
vt 0.999561 0.200000
vt 0.036437 0.001664
vt 1.000000 0.000000
vt 1.000000 1.000000
vt 0.031270 1.000000
vt 0.000000 0.800135
vt 0.000000 0.600376
vt 0.000000 0.400591
vt 0.000000 0.200535
vt 0.000000 0.000000
vt 0.000000 1.000000
vn 0.000000 -0.587785 0.809017
vn -0.006661 -0.587772 0.808999
vn -0.006661 -0.587772 0.808999
vn 0.000000 -0.587785 0.809017
vn 0.000000 0.000000 1.000000
vn -0.006662 0.000000 0.999978
vn -0.006662 0.000000 0.999978
vn 0.000000 0.000000 1.000000
vn -0.000000 0.587785 0.809017
vn -0.006662 0.587772 0.808999
vn -0.006662 0.587772 0.808999
vn -0.000000 0.587785 0.809017
vn -0.000000 0.951056 0.309020
vn -0.006662 0.951035 0.309013
vn -0.006662 0.951035 0.309013
vn -0.000000 0.951056 0.309020
vn 0.000000 -0.951057 0.309014
vn -0.006661 -0.951036 0.309007
vn -0.006661 -0.951036 0.309007
vn 0.000000 -0.951057 0.309014
vn -0.172092 -0.579016 0.796947
vn -0.172092 -0.579016 0.796947
vn -0.172092 0.000000 0.985081
vn -0.172092 0.000000 0.985081
vn -0.172092 0.579016 0.796947
vn -0.172092 0.579016 0.796947
vn -0.172092 0.936868 0.304406
vn -0.172092 0.936868 0.304406
vn -0.172092 -0.936868 0.304406
vn -0.172092 -0.936868 0.304406
f 1/1/1 7/2/2 8/3/3 2/4/4
f 2/4/5 8/3/6 9/5/7 3/6/8
f 3/6/9 9/5/10 10/7/11 4/8/12
f 4/8/13 10/7/14 11/9/15 5/10/16
f 6/11/17 12/12/18 7/2/19 1/1/20
f 8/3/3 7/2/2 13/13/21 14/14/22
f 9/5/7 8/3/6 14/14/23 15/15/24
f 10/7/11 9/5/10 15/15/25 16/16/26
f 11/9/15 10/7/14 16/16/27 17/17/28
f 7/2/19 12/12/18 18/18/29 13/13/30
