# This file uses centimeters as units for non-parametric coordinates.

v -1.000000 -1.000000 1.000000
v 34.000000 -1.000000 1.000000
v 34.000000 3.000000 1.000000
v 4.054138 2.845665 1.000000
v 3.250076 2.400059 1.000000
v 4.960373 3.000000 1.000000
v 3.250076 2.400059 -1.000000
v 4.054138 2.845665 -1.000000
v -1.000000 -1.000000 -1.000000
v 34.000000 -1.000000 -1.000000
v 34.000000 3.000000 -1.000000
v 4.960373 3.000000 -1.000000
vt 0.086102 0.756632
vt 0.095301 0.756632
vt 0.095301 0.775031
vt 0.086102 0.775031
vt 0.075884 0.894372
vt 0.085083 0.894372
vt 0.085083 0.898071
vt 0.075884 0.898071
vt 0.075884 0.890204
vt 0.085083 0.890204
vt 0.085083 0.917620
vt 0.075884 0.917620
vt 0.075884 0.756632
vt 0.085083 0.756632
vt 0.037443 0.894372
vt 0.036733 0.890204
vt 0.036733 0.756632
vt 0.055131 0.756632
vt 0.055131 0.917620
vt 0.039492 0.898071
vt 0.074011 0.894372
vt 0.071962 0.898071
vt 0.056323 0.917620
vt 0.056323 0.756632
vt 0.074721 0.756632
vt 0.074721 0.890204
vn 0.000000 0.000000 -1.000000
vn 0.000000 0.000000 -1.000000
vn 0.000000 0.000000 -1.000000
vn 0.000000 0.000000 -1.000000
vn 0.000000 0.000000 -1.000000
vn 0.000000 0.000000 -1.000000
vn 0.000000 0.000000 1.000000
vn 0.000000 0.000000 1.000000
vn 0.000000 0.000000 1.000000
vn 0.000000 0.000000 1.000000
vn 0.000000 0.000000 1.000000
vn 0.000000 0.000000 1.000000
vn -0.331008 0.943628 0.000000
vn -0.331008 0.943628 0.000000
vn -0.605534 0.795819 0.000000
vn -0.605534 0.795819 0.000000
vn -0.624695 0.780869 0.000000
vn -0.624695 0.780869 0.000000
vn 1.000000 0.000000 0.000000
vn 1.000000 0.000000 0.000000
vn 1.000000 0.000000 0.000000
vn 1.000000 0.000000 0.000000
vn 0.000000 1.000000 0.000000
vn 0.000000 1.000000 0.000000
vn -0.005154 0.999987 0.000000
vn -0.005154 0.999987 0.000000
f 8/15/1 12/16/2 11/17/3 10/18/4 9/19/5 7/20/6
f 4/21/7 5/22/8 1/23/9 2/24/10 3/25/11 6/26/12
f 4/5/13 8/6/14 7/7/15 5/8/16
f 5/8/16 7/7/15 9/11/17 1/12/18
f 2/1/19 10/2/20 11/3/21 3/4/22
f 3/13/23 11/14/24 12/10/25 6/9/26
f 6/9/26 12/10/25 8/6/14 4/5/13
