# This file uses centimeters as units for non-parametric coordinates.

mtllib Level_00.mtl
g default
v -19.828781 0.000000 2.000000
v 0.000000 0.000000 2.000000
v -19.828781 7.000000 2.000000
v 0.000000 7.000000 2.000000
v -19.828781 27.000000 2.000000
v 0.000000 27.000000 2.000000
v 38.997921 0.000000 2.000000
v 31.997921 7.000000 2.000000
v 31.997921 27.000000 2.000000
v 59.002075 0.000000 2.000000
v 38.997921 27.000000 2.000000
v 59.002075 27.000000 2.000000
v -19.828781 34.000000 2.000000
v 0.000000 34.000000 2.000000
v 31.997921 34.000000 2.000000
v -19.828781 51.149178 2.000000
v 0.000000 51.149178 2.000000
v 31.997921 51.149178 2.000000
v 66.002075 34.000000 2.000000
v 66.002075 51.149178 2.000000
v 66.002075 7.000000 2.000000
v 87.975525 0.000000 2.000000
v 94.975525 34.000000 2.000000
v 94.975525 51.149178 2.000000
v 94.975525 7.000000 2.000000
v 115.931496 34.000000 2.000000
v 115.931496 51.149178 2.000000
v 115.931496 7.000000 2.000000
v 94.975525 -21.000000 2.000000
v 115.931496 -21.000000 2.000000
v -19.828781 -28.000000 2.000000
v 0.000000 -28.000000 2.000000
v 38.997921 -28.000000 2.000000
v 59.002075 -28.000000 2.000000
v 87.975525 -28.000000 2.000000
v -19.828781 -44.065475 2.000000
v 0.000000 -44.065475 2.000000
v 38.997921 -44.065475 2.000000
v 59.002075 -44.065475 2.000000
v 87.975525 -44.065475 2.000000
v 122.931496 -28.000000 2.000000
v 122.931496 -44.065475 2.000000
v 217.169281 -28.000000 2.000000
v 217.169281 -44.065475 2.000000
v 122.931496 0.000000 2.000000
v 217.169281 0.000000 2.000000
v 217.169281 34.000000 2.000000
v 217.169281 51.149178 2.000000
v 217.169281 7.000000 2.000000
v 240.322601 -28.000000 2.000000
v 240.322601 -44.065475 2.000000
v 240.322601 0.000000 2.000000
v 240.322601 34.000000 2.000000
v 240.322601 51.149178 2.000000
v 240.322601 7.000000 2.000000
v 0.000000 0.000000 -2.000000
v 0.000000 7.000000 -2.000000
v 38.997921 0.000000 -2.000000
v 31.997921 7.000000 -2.000000
v 31.997921 27.000000 -2.000000
v 38.997921 27.000000 -2.000000
v 59.002075 0.000000 -2.000000
v 59.002075 27.000000 -2.000000
v 31.997921 34.000000 -2.000000
v 66.002075 34.000000 -2.000000
v 66.002075 7.000000 -2.000000
v 87.975525 0.000000 -2.000000
v 87.975525 -28.000000 -2.000000
v 94.975525 7.000000 -2.000000
v 94.975525 -21.000000 -2.000000
v 115.931496 7.000000 -2.000000
v 115.931496 -21.000000 -2.000000
v 122.931496 -28.000000 -2.000000
v 122.931496 0.000000 -2.000000
v 217.169281 0.000000 -2.000000
v 217.169281 7.000000 -2.000000
vt 0.226249 0.999002
vt 0.226249 0.909647
vt 0.262032 0.909647
vt 0.262032 0.999002
vt 0.083121 0.999002
vt 0.083121 0.909647
vt 0.364266 0.909647
vt 0.400049 0.909647
vt 0.400049 0.999002
vt 0.364266 0.999002
vt 0.000998 0.999002
vt 0.000998 0.909647
vt 0.226249 0.733910
vt 0.083121 0.733910
vt 0.364266 0.765455
vt 0.400049 0.765455
vt 0.262032 0.765455
vt 0.487711 0.909647
vt 0.487711 0.999002
vt 0.000998 0.733910
vt 0.226249 0.643765
vt 0.083121 0.643765
vt 0.487711 0.765455
vt 0.000998 0.643765
vt 0.364266 0.643765
vt 0.364266 0.733910
vt 0.083121 0.513202
vt 0.226249 0.513202
vt 0.400049 0.612221
vt 0.487711 0.612221
vt 0.000998 0.513202
vt 0.487711 0.481658
vt 0.400049 0.481658
vt 0.000998 0.355679
vt 0.083121 0.355679
vt 0.262032 0.612221
vt 0.262032 0.481658
vt 0.400049 0.387223
vt 0.487711 0.387223
vt 0.000998 0.107436
vt 0.083121 0.107436
vt 0.262032 0.387223
vt 0.400049 0.107436
vt 0.487711 0.107436
vt 0.000998 0.003100
vt 0.083121 0.003100
vt 0.226249 0.107436
vt 0.226249 0.355679
vt 0.118903 0.481658
vt 0.118903 0.387223
vt 0.262032 0.107436
vt 0.400049 0.003100
vt 0.487711 0.003100
vt 0.226249 0.003100
vt 0.262032 0.003100
vt 0.972746 0.002126
vt 0.972746 0.033670
vt 0.952299 0.033670
vt 0.952299 0.002126
vt 0.815207 0.033120
vt 0.815207 0.123247
vt 0.794760 0.123247
vt 0.794760 0.033120
vt 0.815207 0.001576
vt 0.794760 0.001576
vt 0.821016 0.125027
vt 0.821016 0.003356
vt 0.841463 0.003356
vt 0.841463 0.125027
vt 0.867720 0.003356
vt 0.867720 0.125027
vt 0.847273 0.125027
vt 0.847273 0.003356
vt 0.873529 0.125026
vt 0.873529 0.003356
vt 0.893976 0.003356
vt 0.893976 0.125026
vt 0.710181 0.001103
vt 0.710181 0.127280
vt 0.689734 0.127280
vt 0.689734 0.001103
vt 0.715991 0.127280
vt 0.715991 0.001103
vt 0.736438 0.001103
vt 0.736438 0.127280
vt 0.762694 0.001103
vt 0.762694 0.127280
vt 0.742247 0.127280
vt 0.742247 0.001103
vt 0.768504 0.127280
vt 0.768504 0.001103
vt 0.788951 0.001103
vt 0.788951 0.127280
vt 0.978555 0.033670
vt 0.978555 0.002126
vt 0.999002 0.002126
vt 0.999002 0.033670
vt 0.538254 0.178767
vt 0.538254 0.003030
vt 0.558701 0.003030
vt 0.558701 0.178767
vt 0.631412 0.000998
vt 0.631412 0.145191
vt 0.610965 0.145191
vt 0.610965 0.000998
vt 0.926042 0.093239
vt 0.926042 0.003094
vt 0.946489 0.003094
vt 0.946489 0.093239
vt 0.607175 0.003599
vt 0.607175 0.156832
vt 0.586728 0.156832
vt 0.586728 0.003599
vt 0.637221 0.133035
vt 0.637221 0.002471
vt 0.657668 0.002471
vt 0.657668 0.133035
vt 0.683925 0.002471
vt 0.683925 0.133035
vt 0.663478 0.133035
vt 0.663478 0.002471
vt 0.920233 0.002730
vt 0.920233 0.097164
vt 0.899786 0.097164
vt 0.899786 0.002730
vt 0.562491 0.160758
vt 0.562491 0.003235
vt 0.582938 0.003235
vt 0.582938 0.160758
vt 0.514017 0.250632
vt 0.514017 0.002389
vt 0.534464 0.002389
vt 0.534464 0.250632
vt 0.510227 0.002640
vt 0.510227 0.282427
vt 0.489780 0.282427
vt 0.489780 0.002640
vn 0.000000 0.000000 1.000000
vn 0.000000 0.000000 1.000000
vn 0.000000 0.000000 1.000000
vn 0.000000 0.000000 1.000000
vn 0.000000 0.000000 1.000000
vn 0.000000 0.000000 1.000000
vn 0.000000 0.000000 1.000000
vn 0.000000 0.000000 1.000000
vn 0.000000 0.000000 1.000000
vn 0.000000 0.000000 1.000000
vn 0.000000 0.000000 1.000000
vn 0.000000 0.000000 1.000000
vn 0.000000 0.000000 1.000000
vn 0.000000 0.000000 1.000000
vn 0.000000 0.000000 1.000000
vn 0.000000 0.000000 1.000000
vn 0.000000 0.000000 1.000000
vn 0.000000 0.000000 1.000000
vn 0.000000 0.000000 1.000000
vn 0.000000 0.000000 1.000000
vn 0.000000 0.000000 1.000000
vn 0.000000 0.000000 1.000000
vn 0.000000 0.000000 1.000000
vn 0.000000 0.000000 1.000000
vn 0.000000 0.000000 1.000000
vn 0.000000 0.000000 1.000000
vn 0.000000 0.000000 1.000000
vn 0.000000 0.000000 1.000000
vn 0.000000 0.000000 1.000000
vn 0.000000 0.000000 1.000000
vn 0.000000 0.000000 1.000000
vn 0.000000 0.000000 1.000000
vn 0.000000 0.000000 1.000000
vn 0.000000 0.000000 1.000000
vn 0.000000 0.000000 1.000000
vn 0.000000 0.000000 1.000000
vn 0.000000 0.000000 1.000000
vn 0.000000 0.000000 1.000000
vn 0.000000 0.000000 1.000000
vn 0.000000 0.000000 1.000000
vn 0.000000 0.000000 1.000000
vn 0.000000 0.000000 1.000000
vn 0.000000 0.000000 1.000000
vn 0.000000 0.000000 1.000000
vn 0.000000 0.000000 1.000000
vn 0.000000 0.000000 1.000000
vn 0.000000 0.000000 1.000000
vn 0.000000 0.000000 1.000000
vn 0.000000 0.000000 1.000000
vn 0.000000 0.000000 1.000000
vn 0.000000 0.000000 1.000000
vn 0.000000 0.000000 1.000000
vn 0.000000 0.000000 1.000000
vn 0.000000 0.000000 1.000000
vn 0.000000 0.000000 1.000000
vn 0.000000 0.000000 1.000000
vn 0.000000 0.000000 1.000000
vn 0.000000 0.000000 1.000000
vn 0.000000 0.000000 1.000000
vn 0.000000 0.000000 1.000000
vn 0.000000 0.000000 1.000000
vn 0.000000 0.000000 1.000000
vn 0.000000 0.000000 1.000000
vn 0.000000 0.000000 1.000000
vn 0.000000 0.000000 1.000000
vn 0.000000 0.000000 1.000000
vn 0.000000 0.000000 1.000000
vn 0.000000 0.000000 1.000000
vn 0.000000 0.000000 1.000000
vn 0.000000 0.000000 1.000000
vn 0.000000 0.000000 1.000000
vn 0.000000 0.000000 1.000000
vn 0.000000 0.000000 1.000000
vn 0.000000 0.000000 1.000000
vn 0.000000 0.000000 1.000000
vn 0.000000 0.000000 1.000000
vn 0.000000 0.000000 1.000000
vn 0.000000 0.000000 1.000000
vn 0.000000 0.000000 1.000000
vn 0.000000 0.000000 1.000000
vn 0.000000 0.000000 1.000000
vn 0.000000 0.000000 1.000000
vn 0.000000 0.000000 1.000000
vn 0.000000 0.000000 1.000000
vn 0.000000 0.000000 1.000000
vn 0.000000 0.000000 1.000000
vn 0.000000 0.000000 1.000000
vn 0.000000 0.000000 1.000000
vn 0.000000 0.000000 1.000000
vn 0.000000 0.000000 1.000000
vn 0.000000 0.000000 1.000000
vn 0.000000 0.000000 1.000000
vn 0.000000 0.000000 1.000000
vn 0.000000 0.000000 1.000000
vn 0.000000 0.000000 1.000000
vn 0.000000 0.000000 1.000000
vn 0.000000 0.000000 1.000000
vn 0.000000 0.000000 1.000000
vn 0.000000 0.000000 1.000000
vn 0.000000 0.000000 1.000000
vn 0.000000 0.000000 1.000000
vn 0.000000 0.000000 1.000000
vn 0.000000 0.000000 1.000000
vn 0.000000 0.000000 1.000000
vn 0.000000 0.000000 1.000000
vn 0.000000 0.000000 1.000000
vn 0.000000 0.000000 1.000000
vn 0.000000 0.000000 1.000000
vn 0.000000 0.000000 1.000000
vn 0.000000 0.000000 1.000000
vn 0.000000 0.000000 1.000000
vn 0.000000 0.000000 1.000000
vn 0.000000 0.000000 1.000000
vn 0.000000 0.000000 1.000000
vn 0.000000 0.000000 1.000000
vn 0.000000 0.000000 1.000000
vn 0.000000 0.000000 1.000000
vn 0.000000 0.000000 1.000000
vn 0.000000 0.000000 1.000000
vn 0.000000 0.000000 1.000000
vn 0.000000 0.000000 1.000000
vn 0.000000 0.000000 1.000000
vn 0.000000 0.000000 1.000000
vn 0.000000 0.000000 1.000000
vn 1.000000 0.000000 0.000000
vn 1.000000 0.000000 0.000000
vn 1.000000 0.000000 0.000000
vn 1.000000 0.000000 0.000000
vn 0.000000 1.000000 0.000000
vn 0.000000 1.000000 0.000000
vn 0.000000 1.000000 0.000000
vn 0.000000 1.000000 0.000000
vn 0.000000 -1.000000 0.000000
vn 0.000000 -1.000000 0.000000
vn 0.000000 -1.000000 0.000000
vn 0.000000 -1.000000 0.000000
vn 1.000000 0.000000 0.000000
vn 1.000000 0.000000 0.000000
vn 1.000000 0.000000 0.000000
vn 1.000000 0.000000 0.000000
vn -1.000000 0.000000 0.000000
vn -1.000000 0.000000 0.000000
vn -1.000000 0.000000 0.000000
vn -1.000000 0.000000 0.000000
vn 1.000000 0.000000 0.000000
vn 1.000000 0.000000 0.000000
vn 1.000000 0.000000 0.000000
vn 1.000000 0.000000 0.000000
vn 0.000000 1.000000 0.000000
vn 0.000000 1.000000 0.000000
vn 0.000000 1.000000 0.000000
vn 0.000000 1.000000 0.000000
vn 1.000000 0.000000 0.000000
vn 1.000000 0.000000 0.000000
vn 1.000000 0.000000 0.000000
vn 1.000000 0.000000 0.000000
vn 0.000000 -1.000000 0.000000
vn 0.000000 -1.000000 0.000000
vn 0.000000 -1.000000 0.000000
vn 0.000000 -1.000000 0.000000
vn -1.000000 0.000000 0.000000
vn -1.000000 0.000000 0.000000
vn -1.000000 0.000000 0.000000
vn -1.000000 0.000000 0.000000
vn 0.000000 1.000000 0.000000
vn 0.000000 1.000000 0.000000
vn 0.000000 1.000000 0.000000
vn 0.000000 1.000000 0.000000
vn 1.000000 0.000000 0.000000
vn 1.000000 0.000000 0.000000
vn 1.000000 0.000000 0.000000
vn 1.000000 0.000000 0.000000
vn 0.000000 -1.000000 0.000000
vn 0.000000 -1.000000 0.000000
vn 0.000000 -1.000000 0.000000
vn 0.000000 -1.000000 0.000000
vn -1.000000 0.000000 0.000000
vn -1.000000 0.000000 0.000000
vn -1.000000 0.000000 0.000000
vn -1.000000 0.000000 0.000000
vn 1.000000 0.000000 0.000000
vn 1.000000 0.000000 0.000000
vn 1.000000 0.000000 0.000000
vn 1.000000 0.000000 0.000000
vn 0.000000 -1.000000 0.000000
vn 0.000000 -1.000000 0.000000
vn 0.000000 -1.000000 0.000000
vn 0.000000 -1.000000 0.000000
vn 0.000000 1.000000 0.000000
vn 0.000000 1.000000 0.000000
vn 0.000000 1.000000 0.000000
vn 0.000000 1.000000 0.000000
vn -1.000000 0.000000 0.000000
vn -1.000000 0.000000 0.000000
vn -1.000000 0.000000 0.000000
vn -1.000000 0.000000 0.000000
vn 0.000000 1.000000 0.000000
vn 0.000000 1.000000 0.000000
vn 0.000000 1.000000 0.000000
vn 0.000000 1.000000 0.000000
vn 0.000000 -1.000000 0.000000
vn 0.000000 -1.000000 0.000000
vn 0.000000 -1.000000 0.000000
vn 0.000000 -1.000000 0.000000
vn -1.000000 0.000000 0.000000
vn -1.000000 0.000000 0.000000
vn -1.000000 0.000000 0.000000
vn -1.000000 0.000000 0.000000
s 1
g Level_00
usemtl initialShadingGroup
f 1/1/1 2/2/2 3/4/3
f 3/4/3 2/2/2 4/3/4
s 2
f 2/2/5 1/1/6 32/6/7
f 32/6/7 1/1/6 31/5/8
s 3
f 7/13/9 2/2/10 33/14/11
f 33/14/11 2/2/10 32/6/12
s 4
f 10/21/13 7/13/14 34/22/15
f 34/22/15 7/13/14 33/14/16
s 5
f 7/13/17 10/21/18 11/26/19
f 11/26/19 10/21/18 12/25/20
s 6
f 14/8/21 13/9/22 6/7/23
f 13/9/22 5/10/24 6/7/23
f 6/7/23 5/10/24 4/3/25
f 5/10/24 3/4/26 4/3/25
s 7
f 15/16/27 14/8/28 9/15/29
f 14/8/28 6/7/30 9/15/29
f 9/15/29 6/7/30 8/17/31
f 6/7/30 4/3/32 8/17/31
s 8
f 13/9/33 14/8/34 16/19/35
f 16/19/35 14/8/34 17/18/36
s 9
f 14/8/37 15/16/38 17/18/39
f 17/18/39 15/16/38 18/23/40
s 10
f 18/23/41 15/16/42 20/30/43
f 20/30/43 15/16/42 19/29/44
s 11
f 24/32/45 20/30/46 23/33/47
f 23/33/47 20/30/46 19/29/48
s 12
f 35/27/49 22/28/50 34/22/51
f 34/22/51 22/28/50 10/21/52
s 13
f 21/36/53 25/37/54 19/29/55
f 19/29/55 25/37/54 23/33/56
s 14
f 24/32/57 23/33/58 27/39/59
f 27/39/59 23/33/58 26/38/60
s 15
f 23/33/61 25/37/62 26/38/63
f 26/38/63 25/37/62 28/42/64
s 16
f 28/42/65 25/37/66 30/50/67
f 30/50/67 25/37/66 29/49/68
s 17
f 32/6/69 31/5/70 37/12/71
f 37/12/71 31/5/70 36/11/72
s 18
f 33/14/73 32/6/74 38/20/75
f 38/20/75 32/6/74 37/12/76
s 19
f 34/22/77 33/14/78 39/24/79
f 39/24/79 33/14/78 38/20/80
s 20
f 35/27/81 34/22/82 40/31/83
f 40/31/83 34/22/82 39/24/84
s 21
f 35/27/85 40/31/86 41/35/87
f 41/35/87 40/31/86 42/34/88
s 22
f 41/35/89 42/34/90 43/41/91
f 43/41/91 42/34/90 44/40/92
s 23
f 41/35/93 43/41/94 45/48/95
f 45/48/95 43/41/94 46/47/96
s 24
f 27/39/97 26/38/98 48/44/99
f 48/44/99 26/38/98 47/43/100
s 25
f 26/38/101 28/42/102 47/43/103
f 47/43/103 28/42/102 49/51/104
s 26
f 43/41/105 44/40/106 50/46/107
f 50/46/107 44/40/106 51/45/108
s 27
f 46/47/109 43/41/110 52/54/111
f 52/54/111 43/41/110 50/46/112
s 28
f 48/44/113 47/43/114 54/53/115
f 54/53/115 47/43/114 53/52/116
s 29
f 47/43/117 49/51/118 53/52/119
f 53/52/119 49/51/118 55/55/120
s 30
f 46/47/121 52/54/122 49/51/123
f 49/51/123 52/54/122 55/55/124
s 31
f 4/56/125 2/57/126 57/59/127
f 57/59/127 2/57/126 56/58/128
s 32
f 2/98/129 7/99/130 56/101/131
f 56/101/131 7/99/130 58/100/132
s 33
f 8/102/133 4/103/134 59/105/135
f 59/105/135 4/103/134 57/104/136
s 34
f 9/60/137 8/61/138 60/63/139
f 60/63/139 8/61/138 59/62/140
s 35
f 7/66/141 11/67/142 58/69/143
f 58/69/143 11/67/142 61/68/144
s 36
f 12/70/145 10/71/146 63/73/147
f 63/73/147 10/71/146 62/72/148
s 37
f 11/106/149 12/107/150 61/109/151
f 61/109/151 12/107/150 63/108/152
s 38
f 15/64/153 9/60/154 64/65/155
f 64/65/155 9/60/154 60/63/156
s 39
f 19/110/157 15/111/158 65/113/159
f 65/113/159 15/111/158 64/112/160
s 40
f 21/74/161 19/75/162 66/77/163
f 66/77/163 19/75/162 65/76/164
s 41
f 10/114/165 22/115/166 62/117/167
f 62/117/167 22/115/166 67/116/168
s 42
f 22/78/169 35/79/170 67/81/171
f 67/81/171 35/79/170 68/80/172
s 43
f 25/118/173 21/119/174 69/121/175
f 69/121/175 21/119/174 66/120/176
s 44
f 29/82/177 25/83/178 70/85/179
f 70/85/179 25/83/178 69/84/180
s 45
f 28/86/181 30/87/182 71/89/183
f 71/89/183 30/87/182 72/88/184
s 46
f 30/122/185 29/123/186 72/125/187
f 72/125/187 29/123/186 70/124/188
s 47
f 35/126/189 41/127/190 68/129/191
f 68/129/191 41/127/190 73/128/192
s 48
f 41/90/193 45/91/194 73/93/195
f 73/93/195 45/91/194 74/92/196
s 49
f 45/130/197 46/131/198 74/133/199
f 74/133/199 46/131/198 75/132/200
s 50
f 49/134/201 28/135/202 76/137/203
f 76/137/203 28/135/202 71/136/204
s 51
f 46/94/205 49/95/206 75/97/207
f 75/97/207 49/95/206 76/96/208
