# This file uses centimeters as units for non-parametric coordinates.

v -0.146446 0.353554 -0.923880
v -0.270598 0.270598 -0.923880
v -0.353553 0.146447 -0.923880
v -0.382683 0.000000 -0.923880
v -0.353553 -0.146446 -0.923880
v -0.270598 -0.270598 -0.923880
v -0.146447 -0.353553 -0.923880
v -0.000000 -0.382683 -0.923880
v 0.146446 -0.353553 -0.923880
v 0.270598 -0.270598 -0.923880
v 0.353553 -0.146447 -0.923880
v 0.382683 -0.000000 -0.923880
v 0.353553 0.146447 -0.923880
v 0.270598 0.270598 -0.923880
v 0.146447 0.353553 -0.923880
v 0.000000 0.382683 -0.923880
v -0.270598 0.653282 -0.707107
v -0.500000 0.500000 -0.707107
v -0.653281 0.270598 -0.707107
v -0.707107 0.000000 -0.707107
v -0.653282 -0.270598 -0.707107
v -0.500000 -0.500000 -0.707107
v -0.270598 -0.653281 -0.707107
v -0.000000 -0.707107 -0.707107
v 0.270598 -0.653282 -0.707107
v 0.500000 -0.500000 -0.707107
v 0.653281 -0.270598 -0.707107
v 0.707107 -0.000000 -0.707107
v 0.653282 0.270598 -0.707107
v 0.500000 0.500000 -0.707107
v 0.270598 0.653281 -0.707107
v 0.000000 0.707107 -0.707107
v -0.353553 0.853554 -0.382683
v -0.653281 0.653282 -0.382683
v -0.853553 0.353554 -0.382683
v -0.923879 0.000000 -0.382683
v -0.853553 -0.353553 -0.382683
v -0.653282 -0.653281 -0.382683
v -0.353554 -0.853553 -0.382683
v -0.000000 -0.923880 -0.382683
v 0.353553 -0.853553 -0.382683
v 0.653281 -0.653282 -0.382683
v 0.853553 -0.353554 -0.382683
v 0.923880 -0.000000 -0.382683
v 0.853553 0.353553 -0.382683
v 0.653282 0.653281 -0.382683
v 0.353553 0.853553 -0.382683
v 0.000000 0.923880 -0.382683
v -0.382683 0.923880 0.000000
v -0.707106 0.707107 0.000000
v -0.923879 0.382684 -0.000000
v -1.000000 0.000001 -0.000000
v -0.923880 -0.382683 -0.000000
v -0.707107 -0.707106 -0.000000
v -0.382684 -0.923879 -0.000000
v -0.000000 -1.000000 -0.000000
v 0.382683 -0.923880 -0.000000
v 0.707107 -0.707107 -0.000000
v 0.923879 -0.382684 0.000000
v 1.000000 -0.000000 0.000000
v 0.923880 0.382683 0.000000
v 0.707107 0.707107 0.000000
v 0.382683 0.923880 0.000000
v -0.000000 1.000000 0.000000
v -0.353553 0.853554 0.382683
v -0.653281 0.653282 0.382683
v -0.853553 0.353554 0.382683
v -0.923879 0.000000 0.382683
v -0.853553 -0.353553 0.382683
v -0.653282 -0.653281 0.382683
v -0.353554 -0.853553 0.382683
v -0.000000 -0.923880 0.382683
v 0.353553 -0.853553 0.382683
v 0.653281 -0.653282 0.382683
v 0.853553 -0.353554 0.382683
v 0.923880 -0.000000 0.382683
v 0.853553 0.353553 0.382683
v 0.653282 0.653281 0.382683
v 0.353553 0.853553 0.382683
v -0.000000 0.923880 0.382683
v -0.270598 0.653282 0.707107
v -0.500000 0.500000 0.707107
v -0.653281 0.270598 0.707107
v -0.707107 0.000000 0.707107
v -0.653282 -0.270598 0.707107
v -0.500000 -0.500000 0.707107
v -0.270598 -0.653281 0.707107
v -0.000000 -0.707107 0.707107
v 0.270598 -0.653282 0.707107
v 0.500000 -0.500000 0.707107
v 0.653281 -0.270598 0.707107
v 0.707107 -0.000000 0.707107
v 0.653282 0.270598 0.707107
v 0.500000 0.500000 0.707107
v 0.270598 0.653281 0.707107
v -0.000000 0.707107 0.707107
v -0.146446 0.353554 0.923880
v -0.270598 0.270598 0.923880
v -0.353553 0.146447 0.923880
v -0.382683 0.000000 0.923880
v -0.353553 -0.146446 0.923880
v -0.270598 -0.270598 0.923880
v -0.146447 -0.353553 0.923880
v -0.000000 -0.382683 0.923880
v 0.146446 -0.353553 0.923880
v 0.270598 -0.270598 0.923880
v 0.353553 -0.146447 0.923880
v 0.382683 -0.000000 0.923880
v 0.353553 0.146447 0.923880
v 0.270598 0.270598 0.923880
v 0.146447 0.353553 0.923880
v -0.000000 0.382683 0.923880
v 0.000000 0.000000 -1.000000
v -0.000000 -0.000000 1.000000
vt 0.000000 0.125000
vt 0.062500 0.125000
vt 0.125000 0.125000
vt 0.187500 0.125000
vt 0.250000 0.125000
vt 0.312500 0.125000
vt 0.375000 0.125000
vt 0.437500 0.125000
vt 0.500000 0.125000
vt 0.562500 0.125000
vt 0.625000 0.125000
vt 0.687500 0.125000
vt 0.750000 0.125000
vt 0.812500 0.125000
vt 0.875000 0.125000
vt 0.937500 0.125000
vt 1.000000 0.125000
vt 0.000000 0.250000
vt 0.062500 0.250000
vt 0.125000 0.250000
vt 0.187500 0.250000
vt 0.250000 0.250000
vt 0.312500 0.250000
vt 0.375000 0.250000
vt 0.437500 0.250000
vt 0.500000 0.250000
vt 0.562500 0.250000
vt 0.625000 0.250000
vt 0.687500 0.250000
vt 0.750000 0.250000
vt 0.812500 0.250000
vt 0.875000 0.250000
vt 0.937500 0.250000
vt 1.000000 0.250000
vt 0.000000 0.375000
vt 0.062500 0.375000
vt 0.125000 0.375000
vt 0.187500 0.375000
vt 0.250000 0.375000
vt 0.312500 0.375000
vt 0.375000 0.375000
vt 0.437500 0.375000
vt 0.500000 0.375000
vt 0.562500 0.375000
vt 0.625000 0.375000
vt 0.687500 0.375000
vt 0.750000 0.375000
vt 0.812500 0.375000
vt 0.875000 0.375000
vt 0.937500 0.375000
vt 1.000000 0.375000
vt 0.000000 0.500000
vt 0.062500 0.500000
vt 0.125000 0.500000
vt 0.187500 0.500000
vt 0.250000 0.500000
vt 0.312500 0.500000
vt 0.375000 0.500000
vt 0.437500 0.500000
vt 0.500000 0.500000
vt 0.562500 0.500000
vt 0.625000 0.500000
vt 0.687500 0.500000
vt 0.750000 0.500000
vt 0.812500 0.500000
vt 0.875000 0.500000
vt 0.937500 0.500000
vt 1.000000 0.500000
vt 0.000000 0.625000
vt 0.062500 0.625000
vt 0.125000 0.625000
vt 0.187500 0.625000
vt 0.250000 0.625000
vt 0.312500 0.625000
vt 0.375000 0.625000
vt 0.437500 0.625000
vt 0.500000 0.625000
vt 0.562500 0.625000
vt 0.625000 0.625000
vt 0.687500 0.625000
vt 0.750000 0.625000
vt 0.812500 0.625000
vt 0.875000 0.625000
vt 0.937500 0.625000
vt 1.000000 0.625000
vt 0.000000 0.750000
vt 0.062500 0.750000
vt 0.125000 0.750000
vt 0.187500 0.750000
vt 0.250000 0.750000
vt 0.312500 0.750000
vt 0.375000 0.750000
vt 0.437500 0.750000
vt 0.500000 0.750000
vt 0.562500 0.750000
vt 0.625000 0.750000
vt 0.687500 0.750000
vt 0.750000 0.750000
vt 0.812500 0.750000
vt 0.875000 0.750000
vt 0.937500 0.750000
vt 1.000000 0.750000
vt 0.000000 0.875000
vt 0.062500 0.875000
vt 0.125000 0.875000
vt 0.187500 0.875000
vt 0.250000 0.875000
vt 0.312500 0.875000
vt 0.375000 0.875000
vt 0.437500 0.875000
vt 0.500000 0.875000
vt 0.562500 0.875000
vt 0.625000 0.875000
vt 0.687500 0.875000
vt 0.750000 0.875000
vt 0.812500 0.875000
vt 0.875000 0.875000
vt 0.937500 0.875000
vt 1.000000 0.875000
vt 0.031250 0.000000
vt 0.093750 0.000000
vt 0.156250 0.000000
vt 0.218750 0.000000
vt 0.281250 0.000000
vt 0.343750 0.000000
vt 0.406250 0.000000
vt 0.468750 0.000000
vt 0.531250 0.000000
vt 0.593750 0.000000
vt 0.656250 0.000000
vt 0.718750 0.000000
vt 0.781250 0.000000
vt 0.843750 0.000000
vt 0.906250 0.000000
vt 0.968750 0.000000
vt 0.031250 1.000000
vt 0.093750 1.000000
vt 0.156250 1.000000
vt 0.218750 1.000000
vt 0.281250 1.000000
vt 0.343750 1.000000
vt 0.406250 1.000000
vt 0.468750 1.000000
vt 0.531250 1.000000
vt 0.593750 1.000000
vt 0.656250 1.000000
vt 0.718750 1.000000
vt 0.781250 1.000000
vt 0.843750 1.000000
vt 0.906250 1.000000
vt 0.968750 1.000000
vn -0.184919 0.446435 -0.875500
vn -0.341686 0.341687 -0.875500
vn -0.527211 0.527212 -0.666405
vn -0.285325 0.688835 -0.666405
vn -0.446435 0.184920 -0.875500
vn -0.688835 0.285325 -0.666405
vn -0.483217 0.000000 -0.875500
vn -0.745590 0.000000 -0.666405
vn -0.446435 -0.184919 -0.875500
vn -0.688835 -0.285324 -0.666405
vn -0.341687 -0.341686 -0.875500
vn -0.527212 -0.527211 -0.666405
vn -0.184920 -0.446435 -0.875500
vn -0.285325 -0.688835 -0.666405
vn -0.000000 -0.483217 -0.875500
vn -0.000000 -0.745590 -0.666405
vn 0.184919 -0.446435 -0.875501
vn 0.285325 -0.688835 -0.666405
vn 0.341686 -0.341687 -0.875500
vn 0.527211 -0.527212 -0.666405
vn 0.446435 -0.184919 -0.875500
vn 0.688835 -0.285325 -0.666405
vn 0.483218 -0.000000 -0.875500
vn 0.745590 -0.000000 -0.666405
vn 0.446435 0.184919 -0.875500
vn 0.688835 0.285325 -0.666405
vn 0.341686 0.341686 -0.875500
vn 0.527212 0.527212 -0.666405
vn 0.184919 0.446435 -0.875501
vn 0.285325 0.688835 -0.666405
vn 0.000000 0.483217 -0.875500
vn 0.000000 0.745590 -0.666405
vn -0.660040 0.660040 -0.358740
vn -0.357211 0.862384 -0.358740
vn -0.862384 0.357211 -0.358740
vn -0.933438 0.000000 -0.358740
vn -0.862384 -0.357211 -0.358740
vn -0.660040 -0.660040 -0.358740
vn -0.357211 -0.862384 -0.358740
vn -0.000000 -0.933438 -0.358740
vn 0.357211 -0.862384 -0.358740
vn 0.660040 -0.660040 -0.358740
vn 0.862384 -0.357211 -0.358740
vn 0.933438 -0.000000 -0.358740
vn 0.862384 0.357211 -0.358740
vn 0.660040 0.660040 -0.358740
vn 0.357211 0.862384 -0.358740
vn 0.000000 0.933438 -0.358740
vn -0.707106 0.707107 -0.000000
vn -0.382683 0.923880 -0.000000
vn -0.923879 0.382684 -0.000000
vn -1.000000 0.000000 0.000000
vn -0.923880 -0.382683 0.000000
vn -0.707107 -0.707106 0.000000
vn -0.382684 -0.923879 0.000000
vn -0.000000 -1.000000 -0.000000
vn 0.382683 -0.923880 -0.000000
vn 0.707107 -0.707107 0.000000
vn 0.923879 -0.382684 0.000000
vn 1.000000 -0.000000 -0.000000
vn 0.923880 0.382683 -0.000000
vn 0.707107 0.707107 -0.000000
vn 0.382684 0.923880 -0.000000
vn 0.000000 1.000000 0.000000
vn -0.660040 0.660040 0.358740
vn -0.357211 0.862384 0.358740
vn -0.862384 0.357211 0.358740
vn -0.933438 0.000000 0.358740
vn -0.862384 -0.357211 0.358740
vn -0.660040 -0.660040 0.358740
vn -0.357212 -0.862384 0.358740
vn -0.000000 -0.933438 0.358740
vn 0.357211 -0.862384 0.358740
vn 0.660040 -0.660040 0.358740
vn 0.862384 -0.357211 0.358740
vn 0.933438 -0.000000 0.358740
vn 0.862384 0.357211 0.358740
vn 0.660040 0.660040 0.358740
vn 0.357211 0.862384 0.358740
vn 0.000000 0.933438 0.358740
vn -0.527211 0.527212 0.666405
vn -0.285325 0.688835 0.666405
vn -0.688835 0.285325 0.666405
vn -0.745590 0.000000 0.666405
vn -0.688835 -0.285324 0.666405
vn -0.527212 -0.527211 0.666405
vn -0.285325 -0.688835 0.666405
vn -0.000000 -0.745590 0.666405
vn 0.285325 -0.688835 0.666405
vn 0.527211 -0.527212 0.666405
vn 0.688835 -0.285325 0.666405
vn 0.745590 -0.000000 0.666405
vn 0.688835 0.285325 0.666405
vn 0.527212 0.527212 0.666405
vn 0.285325 0.688835 0.666405
vn 0.000000 0.745590 0.666405
vn -0.341686 0.341687 0.875500
vn -0.184919 0.446435 0.875500
vn -0.446435 0.184920 0.875500
vn -0.483217 0.000000 0.875500
vn -0.446435 -0.184919 0.875500
vn -0.341687 -0.341686 0.875500
vn -0.184919 -0.446435 0.875500
vn 0.000000 -0.483217 0.875500
vn 0.184919 -0.446435 0.875501
vn 0.341686 -0.341687 0.875500
vn 0.446435 -0.184919 0.875500
vn 0.483217 -0.000000 0.875500
vn 0.446435 0.184919 0.875500
vn 0.341686 0.341686 0.875500
vn 0.184919 0.446435 0.875500
vn 0.000000 0.483218 0.875500
vn 0.000000 -0.000000 -1.000000
vn 0.000000 -0.000000 1.000000
f 1/1/1 2/2/2 18/19/3 17/18/4
f 2/2/2 3/3/5 19/20/6 18/19/3
f 3/3/5 4/4/7 20/21/8 19/20/6
f 4/4/7 5/5/9 21/22/10 20/21/8
f 5/5/9 6/6/11 22/23/12 21/22/10
f 6/6/11 7/7/13 23/24/14 22/23/12
f 7/7/13 8/8/15 24/25/16 23/24/14
f 8/8/15 9/9/17 25/26/18 24/25/16
f 9/9/17 10/10/19 26/27/20 25/26/18
f 10/10/19 11/11/21 27/28/22 26/27/20
f 11/11/21 12/12/23 28/29/24 27/28/22
f 12/12/23 13/13/25 29/30/26 28/29/24
f 13/13/25 14/14/27 30/31/28 29/30/26
f 14/14/27 15/15/29 31/32/30 30/31/28
f 15/15/29 16/16/31 32/33/32 31/32/30
f 16/16/31 1/17/1 17/34/4 32/33/32
f 17/18/4 18/19/3 34/36/33 33/35/34
f 18/19/3 19/20/6 35/37/35 34/36/33
f 19/20/6 20/21/8 36/38/36 35/37/35
f 20/21/8 21/22/10 37/39/37 36/38/36
f 21/22/10 22/23/12 38/40/38 37/39/37
f 22/23/12 23/24/14 39/41/39 38/40/38
f 23/24/14 24/25/16 40/42/40 39/41/39
f 24/25/16 25/26/18 41/43/41 40/42/40
f 25/26/18 26/27/20 42/44/42 41/43/41
f 26/27/20 27/28/22 43/45/43 42/44/42
f 27/28/22 28/29/24 44/46/44 43/45/43
f 28/29/24 29/30/26 45/47/45 44/46/44
f 29/30/26 30/31/28 46/48/46 45/47/45
f 30/31/28 31/32/30 47/49/47 46/48/46
f 31/32/30 32/33/32 48/50/48 47/49/47
f 32/33/32 17/34/4 33/51/34 48/50/48
f 33/35/34 34/36/33 50/53/49 49/52/50
f 34/36/33 35/37/35 51/54/51 50/53/49
f 35/37/35 36/38/36 52/55/52 51/54/51
f 36/38/36 37/39/37 53/56/53 52/55/52
f 37/39/37 38/40/38 54/57/54 53/56/53
f 38/40/38 39/41/39 55/58/55 54/57/54
f 39/41/39 40/42/40 56/59/56 55/58/55
f 40/42/40 41/43/41 57/60/57 56/59/56
f 41/43/41 42/44/42 58/61/58 57/60/57
f 42/44/42 43/45/43 59/62/59 58/61/58
f 43/45/43 44/46/44 60/63/60 59/62/59
f 44/46/44 45/47/45 61/64/61 60/63/60
f 45/47/45 46/48/46 62/65/62 61/64/61
f 46/48/46 47/49/47 63/66/63 62/65/62
f 47/49/47 48/50/48 64/67/64 63/66/63
f 48/50/48 33/51/34 49/68/50 64/67/64
f 49/52/50 50/53/49 66/70/65 65/69/66
f 50/53/49 51/54/51 67/71/67 66/70/65
f 51/54/51 52/55/52 68/72/68 67/71/67
f 52/55/52 53/56/53 69/73/69 68/72/68
f 53/56/53 54/57/54 70/74/70 69/73/69
f 54/57/54 55/58/55 71/75/71 70/74/70
f 55/58/55 56/59/56 72/76/72 71/75/71
f 56/59/56 57/60/57 73/77/73 72/76/72
f 57/60/57 58/61/58 74/78/74 73/77/73
f 58/61/58 59/62/59 75/79/75 74/78/74
f 59/62/59 60/63/60 76/80/76 75/79/75
f 60/63/60 61/64/61 77/81/77 76/80/76
f 61/64/61 62/65/62 78/82/78 77/81/77
f 62/65/62 63/66/63 79/83/79 78/82/78
f 63/66/63 64/67/64 80/84/80 79/83/79
f 64/67/64 49/68/50 65/85/66 80/84/80
f 65/69/66 66/70/65 82/87/81 81/86/82
f 66/70/65 67/71/67 83/88/83 82/87/81
f 67/71/67 68/72/68 84/89/84 83/88/83
f 68/72/68 69/73/69 85/90/85 84/89/84
f 69/73/69 70/74/70 86/91/86 85/90/85
f 70/74/70 71/75/71 87/92/87 86/91/86
f 71/75/71 72/76/72 88/93/88 87/92/87
f 72/76/72 73/77/73 89/94/89 88/93/88
f 73/77/73 74/78/74 90/95/90 89/94/89
f 74/78/74 75/79/75 91/96/91 90/95/90
f 75/79/75 76/80/76 92/97/92 91/96/91
f 76/80/76 77/81/77 93/98/93 92/97/92
f 77/81/77 78/82/78 94/99/94 93/98/93
f 78/82/78 79/83/79 95/100/95 94/99/94
f 79/83/79 80/84/80 96/101/96 95/100/95
f 80/84/80 65/85/66 81/102/82 96/101/96
f 81/86/82 82/87/81 98/104/97 97/103/98
f 82/87/81 83/88/83 99/105/99 98/104/97
f 83/88/83 84/89/84 100/106/100 99/105/99
f 84/89/84 85/90/85 101/107/101 100/106/100
f 85/90/85 86/91/86 102/108/102 101/107/101
f 86/91/86 87/92/87 103/109/103 102/108/102
f 87/92/87 88/93/88 104/110/104 103/109/103
f 88/93/88 89/94/89 105/111/105 104/110/104
f 89/94/89 90/95/90 106/112/106 105/111/105
f 90/95/90 91/96/91 107/113/107 106/112/106
f 91/96/91 92/97/92 108/114/108 107/113/107
f 92/97/92 93/98/93 109/115/109 108/114/108
f 93/98/93 94/99/94 110/116/110 109/115/109
f 94/99/94 95/100/95 111/117/111 110/116/110
f 95/100/95 96/101/96 112/118/112 111/117/111
f 96/101/96 81/102/82 97/119/98 112/118/112
f 2/2/2 1/1/1 113/120/113
f 3/3/5 2/2/2 113/121/113
f 4/4/7 3/3/5 113/122/113
f 5/5/9 4/4/7 113/123/113
f 6/6/11 5/5/9 113/124/113
f 7/7/13 6/6/11 113/125/113
f 8/8/15 7/7/13 113/126/113
f 9/9/17 8/8/15 113/127/113
f 10/10/19 9/9/17 113/128/113
f 11/11/21 10/10/19 113/129/113
f 12/12/23 11/11/21 113/130/113
f 13/13/25 12/12/23 113/131/113
f 14/14/27 13/13/25 113/132/113
f 15/15/29 14/14/27 113/133/113
f 16/16/31 15/15/29 113/134/113
f 1/17/1 16/16/31 113/135/113
f 97/103/98 98/104/97 114/136/114
f 98/104/97 99/105/99 114/137/114
f 99/105/99 100/106/100 114/138/114
f 100/106/100 101/107/101 114/139/114
f 101/107/101 102/108/102 114/140/114
f 102/108/102 103/109/103 114/141/114
f 103/109/103 104/110/104 114/142/114
f 104/110/104 105/111/105 114/143/114
f 105/111/105 106/112/106 114/144/114
f 106/112/106 107/113/107 114/145/114
f 107/113/107 108/114/108 114/146/114
f 108/114/108 109/115/109 114/147/114
f 109/115/109 110/116/110 114/148/114
f 110/116/110 111/117/111 114/149/114
f 111/117/111 112/118/112 114/150/114
f 112/118/112 97/119/98 114/151/114
