# This file uses centimeters as units for non-parametric coordinates.

g default
v -0.028532 0.000000 -0.009271
v -0.017634 0.000000 0.024270
v 0.017634 0.000000 0.024270
v 0.028532 0.000000 -0.009271
v 0.000000 0.000000 -0.030000
v -0.028532 1.030274 -0.009271
v -0.017634 1.030274 0.024270
v 0.017634 1.030274 0.024270
v 0.028532 1.030274 -0.009271
v 0.000000 1.030274 -0.030000
v -0.147149 1.291772 -0.035902
v -0.090943 1.291772 0.137082
v 0.090943 1.291772 0.137082
v 0.147149 1.291772 -0.035902
v 0.000000 1.291772 -0.142812
v -0.083753 1.030274 -0.027213
v -0.051762 1.030274 0.071244
v -0.051762 1.161745 0.071244
v -0.083753 1.161745 -0.027213
v 0.051762 1.030274 0.071244
v 0.051762 1.161745 0.071244
v 0.083753 1.030274 -0.027213
v 0.083753 1.161745 -0.027213
v 0.000000 1.030274 -0.088063
v 0.000000 1.161745 -0.088063
v 0.000000 0.000000 -0.000000
vt 0.522887 0.000000
vt 0.403052 0.000000
vt 0.403052 0.800000
vt 0.522887 0.800000
vt 0.403052 0.000000
vt 0.403052 0.800000
vt 0.522887 0.000000
vt 0.522887 0.800000
vt 0.596948 0.000000
vt 0.596948 0.800000
vt 0.618035 1.000000
vt 0.000000 1.000000
vt 0.000000 1.000000
vt 0.618035 1.000000
vt 1.000000 1.000000
vt 0.586991 0.800000
vt 0.235225 0.800000
vt 0.235225 0.899342
vt 0.586991 0.899342
vt 0.235225 0.800000
vt 0.235225 0.899342
vt 0.586991 0.800000
vt 0.586991 0.899342
vt 0.804394 0.800000
vt 0.804394 0.899342
vt 0.489765 0.000000
vn -0.951057 0.000000 0.309016
vn -0.951057 0.000000 0.309016
vn -0.951057 0.000000 0.309016
vn -0.951057 0.000000 0.309016
vn -0.000000 0.000000 1.000000
vn -0.000000 0.000000 1.000000
vn -0.000000 0.000000 1.000000
vn -0.000000 0.000000 1.000000
vn 0.951057 0.000000 0.309017
vn 0.951057 0.000000 0.309017
vn 0.951057 0.000000 0.309016
vn 0.951057 0.000000 0.309016
vn 0.587784 0.000000 -0.809018
vn 0.587784 0.000000 -0.809018
vn 0.587784 0.000000 -0.809018
vn 0.587784 0.000000 -0.809018
vn -0.587784 0.000000 -0.809018
vn -0.587784 0.000000 -0.809018
vn -0.587784 0.000000 -0.809018
vn -0.587784 0.000000 -0.809018
vn 0.000001 1.000000 0.000000
vn 0.000000 1.000000 0.000000
vn -0.000000 1.000000 -0.000000
vn -0.000000 1.000000 -0.000000
vn -0.000002 1.000000 -0.000000
vn -0.951057 0.000000 0.309017
vn -0.951057 0.000000 0.309016
vn -0.926215 -0.227064 0.300945
vn -0.915766 -0.269883 0.297550
vn -0.000000 0.000000 1.000000
vn -0.000000 0.000000 1.000000
vn -0.000000 -0.261847 0.965110
vn -0.000000 -0.300608 0.953748
vn 0.951057 0.000000 0.309016
vn 0.951057 0.000000 0.309016
vn 0.915766 -0.269883 0.297550
vn 0.926215 -0.227064 0.300945
vn 0.587785 0.000000 -0.809017
vn 0.587785 0.000000 -0.809017
vn 0.574608 -0.210545 -0.790883
vn 0.578386 -0.178116 -0.796081
vn -0.587785 0.000000 -0.809017
vn -0.587785 0.000000 -0.809017
vn -0.578386 -0.178116 -0.796081
vn -0.574608 -0.210545 -0.790883
vn 0.000001 -1.000000 0.000000
vn -0.000002 -1.000000 -0.000000
vn -0.000001 -1.000000 -0.000000
vn -0.000002 -1.000000 -0.000000
vn -0.869535 -0.405075 0.282529
vn -0.869535 -0.405075 0.282529
vn 0.000000 -1.000000 0.000000
vn 0.000001 -1.000000 0.000000
vn -0.000000 -0.451735 0.892152
vn -0.000000 -0.451735 0.892152
vn 0.000002 -1.000000 0.000000
vn 0.000002 -1.000000 0.000000
vn 0.869535 -0.405075 0.282529
vn 0.869535 -0.405075 0.282529
vn 0.000001 -1.000000 0.000000
vn 0.000000 -1.000000 0.000000
vn 0.556387 -0.322452 -0.765806
vn 0.556387 -0.322451 -0.765806
vn -0.556387 -0.322451 -0.765806
vn -0.556388 -0.322451 -0.765805
vn 0.000000 -1.000000 0.000000
vn 0.000000 -1.000000 0.000000
vn 0.000000 -1.000000 0.000000
vn 0.000000 -1.000000 0.000000
vn 0.000000 -1.000000 0.000000
vn 0.000000 -1.000000 0.000000
s 1
g Antina03 antina Character
f 1/1/1 2/2/2 6/4/3
f 6/4/3 2/2/2 7/3/4
s 2
f 2/2/5 3/5/6 7/3/7
f 7/3/7 3/5/6 8/6/8
s 3
f 3/5/9 4/7/10 8/6/11
f 8/6/11 4/7/10 9/8/12
s 4
f 4/7/13 5/9/14 9/8/15
f 9/8/15 5/9/14 10/10/16
s 5
f 5/9/17 1/1/18 10/10/19
f 10/10/19 1/1/18 6/4/20
s 6
f 11/11/21 12/12/22 15/15/23
f 12/12/22 13/13/24 15/15/23
f 13/13/24 14/14/25 15/15/23
s 7
f 16/16/26 17/17/27 19/19/28
f 19/19/28 17/17/27 18/18/29
s 8
f 17/17/30 20/20/31 18/18/32
f 18/18/32 20/20/31 21/21/33
s 9
f 20/20/34 22/22/35 21/21/36
f 21/21/36 22/22/35 23/23/37
s 10
f 22/22/38 24/24/39 23/23/40
f 23/23/40 24/24/39 25/25/41
s 11
f 24/24/42 16/16/43 25/25/44
f 25/25/44 16/16/43 19/19/45
s 12
f 6/4/46 7/3/47 16/16/48
f 16/16/48 7/3/47 17/17/49
s 7
f 12/12/50 11/11/51 18/18/29
f 18/18/29 11/11/51 19/19/28
s 12
f 7/3/47 8/6/52 17/17/49
f 17/17/49 8/6/52 20/20/53
s 8
f 13/13/54 12/12/55 21/21/33
f 21/21/33 12/12/55 18/18/32
s 12
f 8/6/52 9/8/56 20/20/53
f 20/20/53 9/8/56 22/22/57
s 9
f 13/13/58 21/21/36 14/14/59
f 14/14/59 21/21/36 23/23/37
s 12
f 9/8/56 10/10/60 22/22/57
f 22/22/57 10/10/60 24/24/61
s 10
f 14/14/62 23/23/40 15/15/63
f 15/15/63 23/23/40 25/25/41
s 12
f 10/10/60 6/4/46 24/24/61
f 24/24/61 6/4/46 16/16/48
s 11
f 11/11/64 15/15/65 19/19/45
f 19/19/45 15/15/65 25/25/44
s 13
f 1/1/66 5/9/67 26/26/68
f 5/9/67 4/7/69 26/26/68
f 4/7/69 3/5/70 26/26/68
f 3/5/70 2/2/71 26/26/68
f 2/2/71 1/1/66 26/26/68
