# This file uses centimeters as units for non-parametric coordinates.

v -0.028532 0.000000 -0.009271
v -0.017634 0.000000 0.024270
v 0.017634 0.000000 0.024270
v 0.028532 0.000000 -0.009271
v 0.000000 0.000000 -0.030000
v -0.028532 1.030274 -0.009271
v -0.017634 1.030274 0.024270
v 0.017634 1.030274 0.024270
v 0.028532 1.030274 -0.009271
v 0.000000 1.030274 -0.030000
v -0.147149 1.291772 -0.035902
v -0.090943 1.291772 0.137082
v 0.090943 1.291772 0.137082
v 0.147149 1.291772 -0.035902
v 0.000000 1.291772 -0.142812
v -0.083753 1.030274 -0.027213
v -0.051762 1.030274 0.071244
v -0.051762 1.161745 0.071244
v -0.083753 1.161745 -0.027213
v 0.051762 1.030274 0.071244
v 0.051762 1.161745 0.071244
v 0.083753 1.030274 -0.027213
v 0.083753 1.161745 -0.027213
v 0.000000 1.030274 -0.088063
v 0.000000 1.161745 -0.088063
v 0.000000 0.000000 -0.000000
vt 0.522887 0.000000
vt 0.403052 0.000000
vt 0.403052 0.800000
vt 0.522887 0.800000
vt 0.403052 0.000000
vt 0.403052 0.800000
vt 0.522887 0.000000
vt 0.522887 0.800000
vt 0.596948 0.000000
vt 0.596948 0.800000
vt 0.618035 1.000000
vt 0.000000 1.000000
vt 0.000000 1.000000
vt 0.618035 1.000000
vt 1.000000 1.000000
vt 0.586991 0.800000
vt 0.235225 0.800000
vt 0.235225 0.899342
vt 0.586991 0.899342
vt 0.235225 0.800000
vt 0.235225 0.899342
vt 0.586991 0.800000
vt 0.586991 0.899342
vt 0.804394 0.800000
vt 0.804394 0.899342
vt 0.489765 0.000000
vn -0.951057 0.000000 0.309016
vn -0.951057 0.000000 0.309016
vn -0.951057 0.000000 0.309016
vn -0.951057 0.000000 0.309016
vn -0.000000 0.000000 1.000000
vn -0.000000 0.000000 1.000000
vn -0.000000 0.000000 1.000000
vn -0.000000 0.000000 1.000000
vn 0.951057 0.000000 0.309016
vn 0.951057 0.000000 0.309016
vn 0.951057 0.000000 0.309016
vn 0.951057 0.000000 0.309016
vn 0.587784 0.000000 -0.809018
vn 0.587784 0.000000 -0.809018
vn 0.587784 0.000000 -0.809018
vn 0.587784 0.000000 -0.809018
vn -0.587784 0.000000 -0.809018
vn -0.587784 0.000000 -0.809018
vn -0.587784 0.000000 -0.809018
vn -0.587784 0.000000 -0.809018
vn 0.000000 1.000000 0.000000
vn 0.000000 1.000000 0.000000
vn 0.000000 1.000000 0.000000
vn 0.000000 1.000000 0.000000
vn 0.000000 1.000000 0.000000
vn -0.951057 0.000000 0.309016
vn -0.951057 0.000000 0.309016
vn -0.916671 -0.266466 0.297844
vn -0.918635 -0.258879 0.298482
vn -0.000000 0.000000 1.000000
vn -0.000000 0.000000 1.000000
vn -0.000000 -0.296918 0.954903
vn -0.000000 -0.296918 0.954903
vn 0.951057 0.000000 0.309016
vn 0.951057 0.000000 0.309016
vn 0.918635 -0.258879 0.298482
vn 0.916671 -0.266466 0.297844
vn 0.587785 0.000000 -0.809017
vn 0.587785 0.000000 -0.809017
vn 0.575497 -0.203398 -0.792106
vn 0.575022 -0.207250 -0.791453
vn -0.587785 0.000000 -0.809017
vn -0.587785 0.000000 -0.809017
vn -0.575022 -0.207249 -0.791453
vn -0.575497 -0.203398 -0.792106
vn -0.000001 -1.000000 -0.000000
vn -0.000001 -1.000000 -0.000000
vn -0.000001 -1.000000 -0.000000
vn -0.000001 -1.000000 -0.000000
vn -0.869535 -0.405075 0.282529
vn -0.869535 -0.405075 0.282529
vn 0.000001 -1.000000 0.000000
vn 0.000001 -1.000000 0.000000
vn -0.000000 -0.451735 0.892152
vn -0.000000 -0.451735 0.892152
vn 0.000001 -1.000000 0.000000
vn 0.000001 -1.000000 0.000000
vn 0.869535 -0.405075 0.282529
vn 0.869535 -0.405075 0.282529
vn 0.000000 -1.000000 0.000000
vn 0.000000 -1.000000 0.000000
vn 0.556388 -0.322451 -0.765806
vn 0.556388 -0.322451 -0.765805
vn -0.556388 -0.322451 -0.765805
vn -0.556388 -0.322451 -0.765805
vn 0.000000 -1.000000 0.000000
vn 0.000000 -1.000000 0.000000
vn 0.000000 -1.000000 0.000000
vn 0.000000 -1.000000 0.000000
vn 0.000000 -1.000000 0.000000
vn 0.000000 -1.000000 0.000000
f 1/1/1 2/2/2 7/3/3 6/4/4
f 2/2/5 3/5/6 8/6/7 7/3/8
f 3/5/9 4/7/10 9/8/11 8/6/12
f 4/7/13 5/9/14 10/10/15 9/8/16
f 5/9/17 1/1/18 6/4/19 10/10/20
f 11/11/21 12/12/22 13/13/23 14/14/24 15/15/25
f 16/16/26 17/17/27 18/18/28 19/19/29
f 17/17/30 20/20/31 21/21/32 18/18/33
f 20/20/34 22/22/35 23/23/36 21/21/37
f 22/22/38 24/24/39 25/25/40 23/23/41
f 24/24/42 16/16/43 19/19/44 25/25/45
f 6/4/46 7/3/47 17/17/48 16/16/49
f 12/12/50 11/11/51 19/19/29 18/18/28
f 7/3/47 8/6/52 20/20/53 17/17/48
f 13/13/54 12/12/55 18/18/33 21/21/32
f 8/6/52 9/8/56 22/22/57 20/20/53
f 14/14/58 13/13/59 21/21/37 23/23/36
f 9/8/56 10/10/60 24/24/61 22/22/57
f 15/15/62 14/14/63 23/23/41 25/25/40
f 10/10/60 6/4/46 16/16/49 24/24/61
f 11/11/64 15/15/65 25/25/45 19/19/44
f 1/1/66 5/9/67 26/26/68
f 5/9/67 4/7/69 26/26/68
f 4/7/69 3/5/70 26/26/68
f 3/5/70 2/2/71 26/26/68
f 2/2/71 1/1/66 26/26/68
