# This file uses centimeters as units for non-parametric coordinates.

g default
v -0.028532 0.000000 -0.009271
v -0.017634 0.000000 0.024271
v 0.017634 0.000000 0.024271
v 0.028532 0.000000 -0.009271
v 0.000000 0.000000 -0.030000
v -0.028532 1.030274 -0.009271
v -0.017634 1.030274 0.024271
v 0.017634 1.030274 0.024271
v 0.028532 1.030274 -0.009271
v 0.000000 1.030274 -0.030000
v -0.032878 1.031921 -0.046331
v -0.053197 1.031921 -0.018364
v -0.053197 1.031921 0.016206
v -0.032878 1.031921 0.044173
v 0.000000 1.031921 0.054856
v 0.032878 1.031921 0.044173
v 0.053197 1.031921 0.016206
v 0.053197 1.031921 -0.018364
v 0.032878 1.031921 -0.046331
v 0.000000 1.031921 -0.057014
v -0.053197 1.079502 -0.074299
v -0.086075 1.079502 -0.029046
v -0.086075 1.079502 0.026888
v -0.053197 1.079502 0.072141
v 0.000000 1.079502 0.089426
v 0.053197 1.079502 0.072141
v 0.086075 1.079502 0.026888
v 0.086075 1.079502 -0.029046
v 0.053197 1.079502 -0.074299
v 0.000000 1.079502 -0.091584
v -0.053197 1.138316 -0.074299
v -0.086075 1.138316 -0.029046
v -0.086075 1.138316 0.026888
v -0.053197 1.138316 0.072141
v 0.000000 1.138316 0.089426
v 0.053197 1.138316 0.072141
v 0.086075 1.138316 0.026888
v 0.086075 1.138316 -0.029046
v 0.053197 1.138316 -0.074299
v 0.000000 1.138316 -0.091584
v -0.032878 1.185897 -0.046331
v -0.053197 1.185897 -0.018364
v -0.053197 1.185897 0.016206
v -0.032878 1.185897 0.044173
v 0.000000 1.185897 0.054856
v 0.032878 1.185897 0.044173
v 0.053197 1.185897 0.016206
v 0.053197 1.185897 -0.018364
v 0.032878 1.185897 -0.046331
v 0.000000 1.185897 -0.057014
v 0.000000 1.013747 -0.001079
v 0.000000 1.204071 -0.001079
v 0.000000 0.000000 0.000000
vt 0.545255 -0.000000
vt 0.359955 -0.000000
vt 0.359955 0.806179
vt 0.545255 0.806179
vt 0.359955 -0.000000
vt 0.359955 0.806179
vt 0.545255 -0.000000
vt 0.545255 0.806179
vt 0.659776 -0.000000
vt 0.659776 0.806179
vt 0.750000 0.807547
vt 0.595492 0.807547
vt 0.654509 0.861195
vt 0.904509 0.861195
vt 0.404509 0.807547
vt 0.345492 0.861195
vt 0.250000 0.807547
vt 0.095492 0.861195
vt 0.190983 0.807547
vt 0.000000 0.861195
vt 0.250000 0.807547
vt 0.095492 0.861195
vt 0.404509 0.807547
vt 0.345492 0.861195
vt 0.595492 0.807547
vt 0.654509 0.861195
vt 0.750000 0.807547
vt 0.904509 0.861195
vt 0.809017 0.807547
vt 1.000000 0.861195
vt 0.654509 0.927715
vt 0.904509 0.927715
vt 0.345492 0.927715
vt 0.095492 0.927715
vt 0.000000 0.927715
vt 0.095492 0.927715
vt 0.345492 0.927715
vt 0.654509 0.927715
vt 0.904509 0.927715
vt 1.000000 0.927715
vt 0.595492 0.984906
vt 0.750000 0.984906
vt 0.404509 0.984906
vt 0.250000 0.984906
vt 0.190983 0.984906
vt 0.250000 0.984906
vt 0.404509 0.984906
vt 0.595492 0.984906
vt 0.750000 0.984906
vt 0.809017 0.984906
vt 0.500000 0.792453
vt 0.500000 1.000000
vt 0.494040 -0.000000
vn -0.951057 0.000000 0.309016
vn -0.951057 0.000000 0.309016
vn -0.951057 0.000000 0.309016
vn -0.951057 0.000000 0.309016
vn -0.000000 0.000000 1.000000
vn -0.000000 0.000000 1.000000
vn -0.000000 0.000000 1.000000
vn -0.000000 0.000000 1.000000
vn 0.951057 0.000000 0.309017
vn 0.951057 0.000000 0.309017
vn 0.951057 0.000000 0.309016
vn 0.951057 0.000000 0.309016
vn 0.587784 0.000000 -0.809018
vn 0.587784 0.000000 -0.809018
vn 0.587784 0.000000 -0.809018
vn 0.587784 0.000000 -0.809018
vn -0.587784 0.000000 -0.809018
vn -0.587784 0.000000 -0.809018
vn -0.587784 0.000000 -0.809018
vn -0.587784 0.000000 -0.809018
vn -0.665578 -0.568475 -0.483573
vn -0.665580 -0.568474 -0.483571
vn -0.665580 -0.568473 -0.483571
vn -0.665581 -0.568473 -0.483571
vn -0.822701 -0.568475 -0.000000
vn -0.822701 -0.568474 -0.000000
vn -0.822701 -0.568474 -0.000000
vn -0.822702 -0.568473 -0.000000
vn -0.665580 -0.568473 0.483572
vn -0.665580 -0.568473 0.483571
vn -0.665580 -0.568473 0.483571
vn -0.665581 -0.568473 0.483571
vn -0.254228 -0.568475 0.782435
vn -0.254228 -0.568474 0.782435
vn -0.254228 -0.568474 0.782435
vn -0.254229 -0.568474 0.782436
vn 0.254230 -0.568473 0.782435
vn 0.254229 -0.568474 0.782435
vn 0.254229 -0.568474 0.782435
vn 0.254229 -0.568475 0.782435
vn 0.665578 -0.568475 0.483573
vn 0.665580 -0.568474 0.483572
vn 0.665580 -0.568473 0.483571
vn 0.665581 -0.568473 0.483571
vn 0.822701 -0.568475 -0.000000
vn 0.822701 -0.568474 -0.000000
vn 0.822701 -0.568474 -0.000000
vn 0.822702 -0.568473 0.000000
vn 0.665579 -0.568473 -0.483573
vn 0.665580 -0.568473 -0.483571
vn 0.665581 -0.568473 -0.483571
vn 0.665581 -0.568473 -0.483570
vn 0.254228 -0.568475 -0.782435
vn 0.254228 -0.568474 -0.782435
vn 0.254229 -0.568474 -0.782435
vn 0.254229 -0.568474 -0.782435
vn -0.254230 -0.568474 -0.782435
vn -0.254229 -0.568474 -0.782435
vn -0.254229 -0.568474 -0.782435
vn -0.254229 -0.568475 -0.782435
vn -0.809018 0.000000 -0.587784
vn -0.809017 0.000000 -0.587785
vn -0.809017 0.000000 -0.587785
vn -0.809017 0.000000 -0.587786
vn -1.000000 0.000000 -0.000000
vn -1.000000 0.000000 0.000000
vn -1.000000 0.000000 0.000000
vn -1.000000 0.000000 0.000000
vn -0.809018 0.000000 0.587785
vn -0.809017 0.000000 0.587785
vn -0.809017 0.000000 0.587785
vn -0.809017 0.000000 0.587786
vn -0.309018 0.000000 0.951056
vn -0.309017 0.000000 0.951056
vn -0.309017 0.000000 0.951056
vn -0.309017 0.000000 0.951057
vn 0.309018 0.000000 0.951056
vn 0.309017 0.000000 0.951057
vn 0.309017 0.000000 0.951057
vn 0.309017 0.000000 0.951057
vn 0.809018 0.000000 0.587784
vn 0.809017 0.000000 0.587785
vn 0.809017 0.000000 0.587785
vn 0.809017 0.000000 0.587785
vn 1.000000 0.000000 -0.000000
vn 1.000000 0.000000 -0.000000
vn 1.000000 0.000000 -0.000000
vn 1.000000 0.000000 0.000000
vn 0.809018 0.000000 -0.587784
vn 0.809017 0.000000 -0.587785
vn 0.809017 0.000000 -0.587785
vn 0.809017 0.000000 -0.587786
vn 0.309018 0.000000 -0.951056
vn 0.309017 0.000000 -0.951057
vn 0.309017 0.000000 -0.951057
vn 0.309017 0.000000 -0.951057
vn -0.309018 0.000000 -0.951056
vn -0.309017 0.000000 -0.951056
vn -0.309017 0.000000 -0.951056
vn -0.309017 0.000000 -0.951057
vn -0.665581 0.568473 -0.483571
vn -0.665580 0.568473 -0.483571
vn -0.665580 0.568474 -0.483571
vn -0.665579 0.568474 -0.483573
vn -0.822702 0.568473 -0.000000
vn -0.822701 0.568474 -0.000000
vn -0.822701 0.568474 -0.000000
vn -0.822700 0.568476 -0.000000
vn -0.665581 0.568473 0.483571
vn -0.665581 0.568473 0.483571
vn -0.665580 0.568473 0.483571
vn -0.665580 0.568473 0.483571
vn -0.254229 0.568474 0.782435
vn -0.254229 0.568474 0.782435
vn -0.254230 0.568474 0.782435
vn -0.254232 0.568473 0.782435
vn 0.254229 0.568474 0.782435
vn 0.254229 0.568474 0.782435
vn 0.254229 0.568474 0.782435
vn 0.254230 0.568475 0.782435
vn 0.665581 0.568473 0.483571
vn 0.665580 0.568473 0.483571
vn 0.665580 0.568474 0.483571
vn 0.665578 0.568474 0.483573
vn 0.822702 0.568473 -0.000000
vn 0.822702 0.568474 -0.000000
vn 0.822701 0.568474 -0.000000
vn 0.822700 0.568476 0.000000
vn 0.665581 0.568473 -0.483571
vn 0.665581 0.568473 -0.483571
vn 0.665580 0.568473 -0.483571
vn 0.665580 0.568473 -0.483571
vn 0.254229 0.568474 -0.782435
vn 0.254229 0.568474 -0.782435
vn 0.254230 0.568474 -0.782435
vn 0.254232 0.568473 -0.782435
vn -0.254229 0.568474 -0.782436
vn -0.254229 0.568474 -0.782435
vn -0.254229 0.568474 -0.782435
vn -0.254230 0.568475 -0.782435
vn -0.261550 -0.946299 -0.190028
vn -0.261550 -0.946299 -0.190028
vn -0.261550 -0.946299 -0.190028
vn -0.323295 -0.946298 0.000000
vn -0.323295 -0.946298 0.000000
vn -0.323295 -0.946298 0.000000
vn -0.261551 -0.946298 0.190028
vn -0.261551 -0.946298 0.190028
vn -0.261551 -0.946298 0.190028
vn -0.099902 -0.946299 0.307471
vn -0.099902 -0.946299 0.307471
vn -0.099902 -0.946299 0.307471
vn 0.099902 -0.946299 0.307471
vn 0.099902 -0.946299 0.307471
vn 0.099902 -0.946299 0.307471
vn 0.261550 -0.946299 0.190028
vn 0.261550 -0.946299 0.190028
vn 0.261550 -0.946299 0.190028
vn 0.323295 -0.946298 -0.000000
vn 0.323295 -0.946298 -0.000000
vn 0.323295 -0.946298 -0.000000
vn 0.261551 -0.946298 -0.190028
vn 0.261551 -0.946298 -0.190028
vn 0.261552 -0.946298 -0.190028
vn 0.099902 -0.946299 -0.307471
vn 0.099902 -0.946299 -0.307471
vn 0.099902 -0.946299 -0.307471
vn -0.099902 -0.946299 -0.307471
vn -0.099902 -0.946299 -0.307471
vn -0.099902 -0.946299 -0.307471
vn -0.261551 0.946298 -0.190028
vn -0.261551 0.946298 -0.190028
vn -0.261551 0.946298 -0.190028
vn -0.323295 0.946298 0.000000
vn -0.323295 0.946298 0.000000
vn -0.323295 0.946298 0.000000
vn -0.261550 0.946299 0.190028
vn -0.261550 0.946299 0.190028
vn -0.261550 0.946299 0.190028
vn -0.099909 0.946298 0.307471
vn -0.099909 0.946298 0.307471
vn -0.099909 0.946298 0.307471
vn 0.099909 0.946298 0.307471
vn 0.099909 0.946298 0.307471
vn 0.099909 0.946298 0.307471
vn 0.261551 0.946298 0.190028
vn 0.261551 0.946298 0.190028
vn 0.261551 0.946298 0.190028
vn 0.323295 0.946298 -0.000000
vn 0.323295 0.946298 -0.000000
vn 0.323295 0.946298 -0.000000
vn 0.261550 0.946299 -0.190028
vn 0.261550 0.946299 -0.190028
vn 0.261550 0.946299 -0.190028
vn 0.099909 0.946298 -0.307471
vn 0.099909 0.946298 -0.307471
vn 0.099909 0.946298 -0.307471
vn -0.099909 0.946298 -0.307471
vn -0.099909 0.946298 -0.307471
vn -0.099909 0.946298 -0.307471
vn 0.000000 -1.000000 0.000000
vn 0.000000 -1.000000 0.000000
vn 0.000000 -1.000000 0.000000
vn 0.000000 -1.000000 0.000000
vn 0.000000 -1.000000 0.000000
vn 0.000000 -1.000000 0.000000
vn 0.000000 -1.000000 0.000000
vn 0.000000 -1.000000 0.000000
vn 0.000000 -1.000000 0.000000
vn 0.000000 -1.000000 0.000000
vn 0.000000 -1.000000 0.000000
vn 0.000000 -1.000000 0.000000
vn 0.000000 -1.000000 0.000000
vn 0.000000 -1.000000 0.000000
vn 0.000000 -1.000000 0.000000
s 1
g Antina02 antina Character
f 1/1/1 2/2/2 6/4/3
f 6/4/3 2/2/2 7/3/4
s 2
f 2/2/5 3/5/6 7/3/7
f 7/3/7 3/5/6 8/6/8
s 3
f 3/5/9 4/7/10 8/6/11
f 8/6/11 4/7/10 9/8/12
s 4
f 4/7/13 5/9/14 9/8/15
f 9/8/15 5/9/14 10/10/16
s 5
f 5/9/17 1/1/18 10/10/19
f 10/10/19 1/1/18 6/4/20
s 6
f 11/11/21 12/12/22 21/14/23
f 21/14/23 12/12/22 22/13/24
s 7
f 12/12/25 13/15/26 22/13/27
f 22/13/27 13/15/26 23/16/28
s 8
f 13/15/29 14/17/30 23/16/31
f 23/16/31 14/17/30 24/18/32
s 9
f 14/17/33 15/19/34 24/18/35
f 24/18/35 15/19/34 25/20/36
s 10
f 15/19/37 16/21/38 25/20/39
f 25/20/39 16/21/38 26/22/40
s 11
f 16/21/41 17/23/42 26/22/43
f 26/22/43 17/23/42 27/24/44
s 12
f 17/23/45 18/25/46 27/24/47
f 27/24/47 18/25/46 28/26/48
s 13
f 18/25/49 19/27/50 28/26/51
f 28/26/51 19/27/50 29/28/52
s 14
f 19/27/53 20/29/54 29/28/55
f 29/28/55 20/29/54 30/30/56
s 15
f 20/29/57 11/11/58 30/30/59
f 30/30/59 11/11/58 21/14/60
s 16
f 21/14/61 22/13/62 31/32/63
f 31/32/63 22/13/62 32/31/64
s 17
f 22/13/65 23/16/66 32/31/67
f 32/31/67 23/16/66 33/33/68
s 18
f 23/16/69 24/18/70 33/33/71
f 33/33/71 24/18/70 34/34/72
s 19
f 24/18/73 25/20/74 34/34/75
f 34/34/75 25/20/74 35/35/76
s 20
f 25/20/77 26/22/78 35/35/79
f 35/35/79 26/22/78 36/36/80
s 21
f 26/22/81 27/24/82 36/36/83
f 36/36/83 27/24/82 37/37/84
s 22
f 27/24/85 28/26/86 37/37/87
f 37/37/87 28/26/86 38/38/88
s 23
f 28/26/89 29/28/90 38/38/91
f 38/38/91 29/28/90 39/39/92
s 24
f 29/28/93 30/30/94 39/39/95
f 39/39/95 30/30/94 40/40/96
s 25
f 30/30/97 21/14/98 40/40/99
f 40/40/99 21/14/98 31/32/100
s 26
f 31/32/101 32/31/102 41/42/103
f 41/42/103 32/31/102 42/41/104
s 27
f 32/31/105 33/33/106 42/41/107
f 42/41/107 33/33/106 43/43/108
s 28
f 33/33/109 34/34/110 43/43/111
f 43/43/111 34/34/110 44/44/112
s 29
f 34/34/113 35/35/114 44/44/115
f 44/44/115 35/35/114 45/45/116
s 30
f 35/35/117 36/36/118 45/45/119
f 45/45/119 36/36/118 46/46/120
s 31
f 36/36/121 37/37/122 46/46/123
f 46/46/123 37/37/122 47/47/124
s 32
f 37/37/125 38/38/126 47/47/127
f 47/47/127 38/38/126 48/48/128
s 33
f 38/38/129 39/39/130 48/48/131
f 48/48/131 39/39/130 49/49/132
s 34
f 39/39/133 40/40/134 49/49/135
f 49/49/135 40/40/134 50/50/136
s 35
f 40/40/137 31/32/138 50/50/139
f 50/50/139 31/32/138 41/42/140
s off
f 12/12/141 11/11/142 51/51/143
f 13/15/144 12/12/145 51/51/146
f 14/17/147 13/15/148 51/51/149
f 15/19/150 14/17/151 51/51/152
f 16/21/153 15/19/154 51/51/155
f 17/23/156 16/21/157 51/51/158
f 18/25/159 17/23/160 51/51/161
f 19/27/162 18/25/163 51/51/164
f 20/29/165 19/27/166 51/51/167
f 11/11/168 20/29/169 51/51/170
f 41/42/171 42/41/172 52/52/173
f 42/41/174 43/43/175 52/52/176
f 43/43/177 44/44/178 52/52/179
f 44/44/180 45/45/181 52/52/182
f 45/45/183 46/46/184 52/52/185
f 46/46/186 47/47/187 52/52/188
f 47/47/189 48/48/190 52/52/191
f 48/48/192 49/49/193 52/52/194
f 49/49/195 50/50/196 52/52/197
f 50/50/198 41/42/199 52/52/200
f 1/1/201 5/9/202 53/53/203
f 5/9/204 4/7/205 53/53/206
f 4/7/207 3/5/208 53/53/209
f 3/5/210 2/2/211 53/53/212
f 2/2/213 1/1/214 53/53/215
