# This file uses centimeters as units for non-parametric coordinates.

g default
v -0.146446 0.353554 -0.923880
v -0.270598 0.270598 -0.923880
v -0.353553 0.146447 -0.923880
v -0.382683 0.000000 -0.923880
v -0.353553 -0.146446 -0.923880
v -0.270598 -0.270598 -0.923880
v -0.146447 -0.353553 -0.923880
v -0.000000 -0.382683 -0.923880
v 0.146446 -0.353553 -0.923880
v 0.270598 -0.270598 -0.923880
v 0.353553 -0.146447 -0.923880
v 0.382683 -0.000000 -0.923880
v 0.353553 0.146447 -0.923880
v 0.270598 0.270598 -0.923880
v 0.146447 0.353553 -0.923880
v 0.000000 0.382683 -0.923880
v -0.270598 0.653282 -0.707107
v -0.500000 0.500000 -0.707107
v -0.653281 0.270598 -0.707107
v -0.707107 0.000000 -0.707107
v -0.653282 -0.270598 -0.707107
v -0.500000 -0.500000 -0.707107
v -0.270598 -0.653281 -0.707107
v -0.000000 -0.707107 -0.707107
v 0.270598 -0.653282 -0.707107
v 0.500000 -0.500000 -0.707107
v 0.653281 -0.270598 -0.707107
v 0.707107 -0.000000 -0.707107
v 0.653282 0.270598 -0.707107
v 0.500000 0.500000 -0.707107
v 0.270598 0.653281 -0.707107
v 0.000000 0.707107 -0.707107
v -0.353553 0.853554 -0.382683
v -0.653281 0.653282 -0.382683
v -0.853553 0.353554 -0.382683
v -0.923879 0.000000 -0.382683
v -0.853553 -0.353553 -0.382683
v -0.653282 -0.653281 -0.382683
v -0.353554 -0.853553 -0.382683
v -0.000000 -0.923880 -0.382683
v 0.353553 -0.853553 -0.382683
v 0.653281 -0.653282 -0.382683
v 0.853553 -0.353554 -0.382683
v 0.923880 -0.000000 -0.382683
v 0.853553 0.353553 -0.382683
v 0.653282 0.653281 -0.382683
v 0.353553 0.853553 -0.382683
v 0.000000 0.923880 -0.382683
v -0.382683 0.923880 0.000000
v -0.707106 0.707107 0.000000
v -0.923879 0.382684 -0.000000
v -1.000000 0.000001 -0.000000
v -0.923880 -0.382683 -0.000000
v -0.707107 -0.707106 -0.000000
v -0.382684 -0.923879 -0.000000
v -0.000000 -1.000000 -0.000000
v 0.382683 -0.923880 -0.000000
v 0.707107 -0.707107 -0.000000
v 0.923879 -0.382684 0.000000
v 1.000000 -0.000000 0.000000
v 0.923880 0.382683 0.000000
v 0.707107 0.707107 0.000000
v 0.382683 0.923880 0.000000
v -0.000000 1.000000 0.000000
v -0.353553 0.853554 0.382683
v -0.653281 0.653282 0.382683
v -0.853553 0.353554 0.382683
v -0.923879 0.000000 0.382683
v -0.853553 -0.353553 0.382683
v -0.653282 -0.653281 0.382683
v -0.353554 -0.853553 0.382683
v -0.000000 -0.923880 0.382683
v 0.353553 -0.853553 0.382683
v 0.653281 -0.653282 0.382683
v 0.853553 -0.353554 0.382683
v 0.923880 -0.000000 0.382683
v 0.853553 0.353553 0.382683
v 0.653282 0.653281 0.382683
v 0.353553 0.853553 0.382683
v -0.000000 0.923880 0.382683
v -0.270598 0.653282 0.707107
v -0.500000 0.500000 0.707107
v -0.653281 0.270598 0.707107
v -0.707107 0.000000 0.707107
v -0.653282 -0.270598 0.707107
v -0.500000 -0.500000 0.707107
v -0.270598 -0.653281 0.707107
v -0.000000 -0.707107 0.707107
v 0.270598 -0.653282 0.707107
v 0.500000 -0.500000 0.707107
v 0.653281 -0.270598 0.707107
v 0.707107 -0.000000 0.707107
v 0.653282 0.270598 0.707107
v 0.500000 0.500000 0.707107
v 0.270598 0.653281 0.707107
v -0.000000 0.707107 0.707107
v -0.146446 0.353554 0.923880
v -0.270598 0.270598 0.923880
v -0.353553 0.146447 0.923880
v -0.382683 0.000000 0.923880
v -0.353553 -0.146446 0.923880
v -0.270598 -0.270598 0.923880
v -0.146447 -0.353553 0.923880
v -0.000000 -0.382683 0.923880
v 0.146446 -0.353553 0.923880
v 0.270598 -0.270598 0.923880
v 0.353553 -0.146447 0.923880
v 0.382683 -0.000000 0.923880
v 0.353553 0.146447 0.923880
v 0.270598 0.270598 0.923880
v 0.146447 0.353553 0.923880
v -0.000000 0.382683 0.923880
v 0.000000 0.000000 -1.000000
v -0.000000 -0.000000 1.000000
vt 0.000000 0.125000
vt 0.062500 0.125000
vt 0.125000 0.125000
vt 0.187500 0.125000
vt 0.250000 0.125000
vt 0.312500 0.125000
vt 0.375000 0.125000
vt 0.437500 0.125000
vt 0.500000 0.125000
vt 0.562500 0.125000
vt 0.625000 0.125000
vt 0.687500 0.125000
vt 0.750000 0.125000
vt 0.812500 0.125000
vt 0.875000 0.125000
vt 0.937500 0.125000
vt 1.000000 0.125000
vt 0.000000 0.250000
vt 0.062500 0.250000
vt 0.125000 0.250000
vt 0.187500 0.250000
vt 0.250000 0.250000
vt 0.312500 0.250000
vt 0.375000 0.250000
vt 0.437500 0.250000
vt 0.500000 0.250000
vt 0.562500 0.250000
vt 0.625000 0.250000
vt 0.687500 0.250000
vt 0.750000 0.250000
vt 0.812500 0.250000
vt 0.875000 0.250000
vt 0.937500 0.250000
vt 1.000000 0.250000
vt 0.000000 0.375000
vt 0.062500 0.375000
vt 0.125000 0.375000
vt 0.187500 0.375000
vt 0.250000 0.375000
vt 0.312500 0.375000
vt 0.375000 0.375000
vt 0.437500 0.375000
vt 0.500000 0.375000
vt 0.562500 0.375000
vt 0.625000 0.375000
vt 0.687500 0.375000
vt 0.750000 0.375000
vt 0.812500 0.375000
vt 0.875000 0.375000
vt 0.937500 0.375000
vt 1.000000 0.375000
vt 0.000000 0.500000
vt 0.062500 0.500000
vt 0.125000 0.500000
vt 0.187500 0.500000
vt 0.250000 0.500000
vt 0.312500 0.500000
vt 0.375000 0.500000
vt 0.437500 0.500000
vt 0.500000 0.500000
vt 0.562500 0.500000
vt 0.625000 0.500000
vt 0.687500 0.500000
vt 0.750000 0.500000
vt 0.812500 0.500000
vt 0.875000 0.500000
vt 0.937500 0.500000
vt 1.000000 0.500000
vt 0.000000 0.625000
vt 0.062500 0.625000
vt 0.125000 0.625000
vt 0.187500 0.625000
vt 0.250000 0.625000
vt 0.312500 0.625000
vt 0.375000 0.625000
vt 0.437500 0.625000
vt 0.500000 0.625000
vt 0.562500 0.625000
vt 0.625000 0.625000
vt 0.687500 0.625000
vt 0.750000 0.625000
vt 0.812500 0.625000
vt 0.875000 0.625000
vt 0.937500 0.625000
vt 1.000000 0.625000
vt 0.000000 0.750000
vt 0.062500 0.750000
vt 0.125000 0.750000
vt 0.187500 0.750000
vt 0.250000 0.750000
vt 0.312500 0.750000
vt 0.375000 0.750000
vt 0.437500 0.750000
vt 0.500000 0.750000
vt 0.562500 0.750000
vt 0.625000 0.750000
vt 0.687500 0.750000
vt 0.750000 0.750000
vt 0.812500 0.750000
vt 0.875000 0.750000
vt 0.937500 0.750000
vt 1.000000 0.750000
vt 0.000000 0.875000
vt 0.062500 0.875000
vt 0.125000 0.875000
vt 0.187500 0.875000
vt 0.250000 0.875000
vt 0.312500 0.875000
vt 0.375000 0.875000
vt 0.437500 0.875000
vt 0.500000 0.875000
vt 0.562500 0.875000
vt 0.625000 0.875000
vt 0.687500 0.875000
vt 0.750000 0.875000
vt 0.812500 0.875000
vt 0.875000 0.875000
vt 0.937500 0.875000
vt 1.000000 0.875000
vt 0.031250 0.000000
vt 0.093750 0.000000
vt 0.156250 0.000000
vt 0.218750 0.000000
vt 0.281250 0.000000
vt 0.343750 0.000000
vt 0.406250 0.000000
vt 0.468750 0.000000
vt 0.531250 0.000000
vt 0.593750 0.000000
vt 0.656250 0.000000
vt 0.718750 0.000000
vt 0.781250 0.000000
vt 0.843750 0.000000
vt 0.906250 0.000000
vt 0.968750 0.000000
vt 0.031250 1.000000
vt 0.093750 1.000000
vt 0.156250 1.000000
vt 0.218750 1.000000
vt 0.281250 1.000000
vt 0.343750 1.000000
vt 0.406250 1.000000
vt 0.468750 1.000000
vt 0.531250 1.000000
vt 0.593750 1.000000
vt 0.656250 1.000000
vt 0.718750 1.000000
vt 0.781250 1.000000
vt 0.843750 1.000000
vt 0.906250 1.000000
vt 0.968750 1.000000
vn -0.150883 0.388784 -0.908890
vn -0.288179 0.301449 -0.908890
vn -0.269903 0.676125 -0.685571
vn -0.508099 0.521371 -0.685571
vn -0.381603 0.168221 -0.908890
vn -0.668943 0.287243 -0.685571
vn -0.416930 0.009383 -0.908890
vn -0.727945 0.009384 -0.685571
vn -0.388784 -0.150883 -0.908890
vn -0.676125 -0.269903 -0.685571
vn -0.301449 -0.288179 -0.908890
vn -0.521371 -0.508099 -0.685571
vn -0.168221 -0.381602 -0.908890
vn -0.287243 -0.668943 -0.685571
vn -0.009383 -0.416930 -0.908890
vn -0.009384 -0.727945 -0.685571
vn 0.150883 -0.388784 -0.908890
vn 0.269903 -0.676125 -0.685571
vn 0.288179 -0.301449 -0.908890
vn 0.508099 -0.521371 -0.685571
vn 0.381603 -0.168221 -0.908890
vn 0.668942 -0.287243 -0.685571
vn 0.416930 -0.009383 -0.908890
vn 0.727945 -0.009384 -0.685571
vn 0.388784 0.150883 -0.908890
vn 0.676125 0.269903 -0.685571
vn 0.301449 0.288179 -0.908890
vn 0.521371 0.508100 -0.685571
vn 0.168221 0.381603 -0.908890
vn 0.287242 0.668943 -0.685571
vn 0.009383 0.416930 -0.908890
vn 0.009384 0.727945 -0.685571
vn -0.350390 0.861434 -0.367639
vn -0.653374 0.661773 -0.367639
vn -0.856889 0.361363 -0.367639
vn -0.929950 0.005939 -0.367639
vn -0.861434 -0.350389 -0.367639
vn -0.661773 -0.653374 -0.367639
vn -0.361363 -0.856889 -0.367639
vn -0.005939 -0.929950 -0.367639
vn 0.350389 -0.861434 -0.367639
vn 0.653374 -0.661773 -0.367639
vn 0.856889 -0.361363 -0.367639
vn 0.929950 -0.005939 -0.367639
vn 0.861434 0.350390 -0.367639
vn 0.661773 0.653374 -0.367639
vn 0.361363 0.856889 -0.367639
vn 0.005939 0.929950 -0.367639
vn -0.382683 0.923880 -0.000000
vn -0.707106 0.707107 0.000000
vn -0.923879 0.382684 0.000000
vn -1.000000 0.000000 0.000000
vn -0.923880 -0.382683 -0.000000
vn -0.707107 -0.707106 0.000000
vn -0.382684 -0.923879 -0.000000
vn -0.000000 -1.000000 0.000000
vn 0.382683 -0.923880 0.000000
vn 0.707107 -0.707107 -0.000000
vn 0.923880 -0.382684 -0.000000
vn 1.000000 -0.000000 0.000000
vn 0.923880 0.382683 -0.000000
vn 0.707107 0.707107 0.000000
vn 0.382684 0.923880 0.000000
vn 0.000000 1.000000 -0.000000
vn -0.361363 0.856889 0.367639
vn -0.661773 0.653375 0.367639
vn -0.861434 0.350390 0.367639
vn -0.929950 -0.005938 0.367639
vn -0.856889 -0.361362 0.367639
vn -0.653375 -0.661773 0.367639
vn -0.350390 -0.861434 0.367639
vn 0.005938 -0.929950 0.367639
vn 0.361363 -0.856889 0.367639
vn 0.661773 -0.653375 0.367639
vn 0.861434 -0.350390 0.367639
vn 0.929950 0.005939 0.367639
vn 0.856889 0.361363 0.367639
vn 0.653375 0.661773 0.367639
vn 0.350390 0.861434 0.367639
vn -0.005938 0.929950 0.367639
vn -0.287242 0.668943 0.685571
vn -0.521370 0.508100 0.685571
vn -0.676125 0.269903 0.685571
vn -0.727945 -0.009384 0.685571
vn -0.668943 -0.287242 0.685571
vn -0.508100 -0.521370 0.685571
vn -0.269903 -0.676125 0.685571
vn 0.009384 -0.727945 0.685571
vn 0.287242 -0.668943 0.685571
vn 0.521370 -0.508100 0.685571
vn 0.676125 -0.269903 0.685571
vn 0.727945 0.009384 0.685571
vn 0.668943 0.287242 0.685571
vn 0.508099 0.521371 0.685571
vn 0.269903 0.676125 0.685571
vn -0.009384 0.727945 0.685571
vn -0.168221 0.381602 0.908890
vn -0.301449 0.288179 0.908890
vn -0.388784 0.150884 0.908890
vn -0.416930 -0.009383 0.908890
vn -0.381603 -0.168221 0.908890
vn -0.288180 -0.301449 0.908890
vn -0.150883 -0.388784 0.908890
vn 0.009383 -0.416930 0.908890
vn 0.168221 -0.381603 0.908890
vn 0.301449 -0.288179 0.908890
vn 0.388784 -0.150883 0.908890
vn 0.416930 0.009383 0.908890
vn 0.381603 0.168221 0.908890
vn 0.288179 0.301449 0.908890
vn 0.150883 0.388784 0.908890
vn -0.009383 0.416930 0.908890
vn 0.000000 -0.000000 -1.000000
vn 0.000000 -0.000000 1.000000
s 1
g Ball Character
f 1/1/1 2/2/2 17/18/3
f 17/18/3 2/2/2 18/19/4
f 2/2/2 3/3/5 18/19/4
f 18/19/4 3/3/5 19/20/6
f 3/3/5 4/4/7 19/20/6
f 19/20/6 4/4/7 20/21/8
f 4/4/7 5/5/9 20/21/8
f 20/21/8 5/5/9 21/22/10
f 5/5/9 6/6/11 21/22/10
f 21/22/10 6/6/11 22/23/12
f 6/6/11 7/7/13 22/23/12
f 22/23/12 7/7/13 23/24/14
f 7/7/13 8/8/15 23/24/14
f 23/24/14 8/8/15 24/25/16
f 8/8/15 9/9/17 24/25/16
f 24/25/16 9/9/17 25/26/18
f 9/9/17 10/10/19 25/26/18
f 25/26/18 10/10/19 26/27/20
f 10/10/19 11/11/21 26/27/20
f 26/27/20 11/11/21 27/28/22
f 11/11/21 12/12/23 27/28/22
f 27/28/22 12/12/23 28/29/24
f 12/12/23 13/13/25 28/29/24
f 28/29/24 13/13/25 29/30/26
f 13/13/25 14/14/27 29/30/26
f 29/30/26 14/14/27 30/31/28
f 14/14/27 15/15/29 30/31/28
f 30/31/28 15/15/29 31/32/30
f 15/15/29 16/16/31 31/32/30
f 31/32/30 16/16/31 32/33/32
f 16/16/31 1/17/1 32/33/32
f 32/33/32 1/17/1 17/34/3
f 17/18/3 18/19/4 33/35/33
f 33/35/33 18/19/4 34/36/34
f 18/19/4 19/20/6 34/36/34
f 34/36/34 19/20/6 35/37/35
f 19/20/6 20/21/8 35/37/35
f 35/37/35 20/21/8 36/38/36
f 20/21/8 21/22/10 36/38/36
f 36/38/36 21/22/10 37/39/37
f 21/22/10 22/23/12 37/39/37
f 37/39/37 22/23/12 38/40/38
f 22/23/12 23/24/14 38/40/38
f 38/40/38 23/24/14 39/41/39
f 23/24/14 24/25/16 39/41/39
f 39/41/39 24/25/16 40/42/40
f 24/25/16 25/26/18 40/42/40
f 40/42/40 25/26/18 41/43/41
f 25/26/18 26/27/20 41/43/41
f 41/43/41 26/27/20 42/44/42
f 26/27/20 27/28/22 42/44/42
f 42/44/42 27/28/22 43/45/43
f 27/28/22 28/29/24 43/45/43
f 43/45/43 28/29/24 44/46/44
f 28/29/24 29/30/26 44/46/44
f 44/46/44 29/30/26 45/47/45
f 29/30/26 30/31/28 45/47/45
f 45/47/45 30/31/28 46/48/46
f 30/31/28 31/32/30 46/48/46
f 46/48/46 31/32/30 47/49/47
f 31/32/30 32/33/32 47/49/47
f 47/49/47 32/33/32 48/50/48
f 32/33/32 17/34/3 48/50/48
f 48/50/48 17/34/3 33/51/33
f 33/35/33 34/36/34 49/52/49
f 49/52/49 34/36/34 50/53/50
f 34/36/34 35/37/35 50/53/50
f 50/53/50 35/37/35 51/54/51
f 35/37/35 36/38/36 51/54/51
f 51/54/51 36/38/36 52/55/52
f 36/38/36 37/39/37 52/55/52
f 52/55/52 37/39/37 53/56/53
f 37/39/37 38/40/38 53/56/53
f 53/56/53 38/40/38 54/57/54
f 38/40/38 39/41/39 54/57/54
f 54/57/54 39/41/39 55/58/55
f 39/41/39 40/42/40 55/58/55
f 55/58/55 40/42/40 56/59/56
f 40/42/40 41/43/41 56/59/56
f 56/59/56 41/43/41 57/60/57
f 41/43/41 42/44/42 57/60/57
f 57/60/57 42/44/42 58/61/58
f 42/44/42 43/45/43 58/61/58
f 58/61/58 43/45/43 59/62/59
f 43/45/43 44/46/44 59/62/59
f 59/62/59 44/46/44 60/63/60
f 44/46/44 45/47/45 60/63/60
f 60/63/60 45/47/45 61/64/61
f 45/47/45 46/48/46 61/64/61
f 61/64/61 46/48/46 62/65/62
f 46/48/46 47/49/47 62/65/62
f 62/65/62 47/49/47 63/66/63
f 47/49/47 48/50/48 63/66/63
f 63/66/63 48/50/48 64/67/64
f 48/50/48 33/51/33 64/67/64
f 64/67/64 33/51/33 49/68/49
f 49/52/49 50/53/50 65/69/65
f 65/69/65 50/53/50 66/70/66
f 50/53/50 51/54/51 66/70/66
f 66/70/66 51/54/51 67/71/67
f 51/54/51 52/55/52 67/71/67
f 67/71/67 52/55/52 68/72/68
f 52/55/52 53/56/53 68/72/68
f 68/72/68 53/56/53 69/73/69
f 53/56/53 54/57/54 69/73/69
f 69/73/69 54/57/54 70/74/70
f 54/57/54 55/58/55 70/74/70
f 70/74/70 55/58/55 71/75/71
f 55/58/55 56/59/56 71/75/71
f 71/75/71 56/59/56 72/76/72
f 56/59/56 57/60/57 72/76/72
f 72/76/72 57/60/57 73/77/73
f 57/60/57 58/61/58 73/77/73
f 73/77/73 58/61/58 74/78/74
f 58/61/58 59/62/59 74/78/74
f 74/78/74 59/62/59 75/79/75
f 59/62/59 60/63/60 75/79/75
f 75/79/75 60/63/60 76/80/76
f 60/63/60 61/64/61 76/80/76
f 76/80/76 61/64/61 77/81/77
f 61/64/61 62/65/62 77/81/77
f 77/81/77 62/65/62 78/82/78
f 62/65/62 63/66/63 78/82/78
f 78/82/78 63/66/63 79/83/79
f 63/66/63 64/67/64 79/83/79
f 79/83/79 64/67/64 80/84/80
f 64/67/64 49/68/49 80/84/80
f 80/84/80 49/68/49 65/85/65
f 65/69/65 66/70/66 81/86/81
f 81/86/81 66/70/66 82/87/82
f 66/70/66 67/71/67 82/87/82
f 82/87/82 67/71/67 83/88/83
f 67/71/67 68/72/68 83/88/83
f 83/88/83 68/72/68 84/89/84
f 68/72/68 69/73/69 84/89/84
f 84/89/84 69/73/69 85/90/85
f 69/73/69 70/74/70 85/90/85
f 85/90/85 70/74/70 86/91/86
f 70/74/70 71/75/71 86/91/86
f 86/91/86 71/75/71 87/92/87
f 71/75/71 72/76/72 87/92/87
f 87/92/87 72/76/72 88/93/88
f 72/76/72 73/77/73 88/93/88
f 88/93/88 73/77/73 89/94/89
f 73/77/73 74/78/74 89/94/89
f 89/94/89 74/78/74 90/95/90
f 74/78/74 75/79/75 90/95/90
f 90/95/90 75/79/75 91/96/91
f 75/79/75 76/80/76 91/96/91
f 91/96/91 76/80/76 92/97/92
f 76/80/76 77/81/77 92/97/92
f 92/97/92 77/81/77 93/98/93
f 77/81/77 78/82/78 93/98/93
f 93/98/93 78/82/78 94/99/94
f 78/82/78 79/83/79 94/99/94
f 94/99/94 79/83/79 95/100/95
f 79/83/79 80/84/80 95/100/95
f 95/100/95 80/84/80 96/101/96
f 80/84/80 65/85/65 96/101/96
f 96/101/96 65/85/65 81/102/81
f 81/86/81 82/87/82 97/103/97
f 97/103/97 82/87/82 98/104/98
f 82/87/82 83/88/83 98/104/98
f 98/104/98 83/88/83 99/105/99
f 83/88/83 84/89/84 99/105/99
f 99/105/99 84/89/84 100/106/100
f 84/89/84 85/90/85 100/106/100
f 100/106/100 85/90/85 101/107/101
f 85/90/85 86/91/86 101/107/101
f 101/107/101 86/91/86 102/108/102
f 86/91/86 87/92/87 102/108/102
f 102/108/102 87/92/87 103/109/103
f 87/92/87 88/93/88 103/109/103
f 103/109/103 88/93/88 104/110/104
f 88/93/88 89/94/89 104/110/104
f 104/110/104 89/94/89 105/111/105
f 89/94/89 90/95/90 105/111/105
f 105/111/105 90/95/90 106/112/106
f 90/95/90 91/96/91 106/112/106
f 106/112/106 91/96/91 107/113/107
f 91/96/91 92/97/92 107/113/107
f 107/113/107 92/97/92 108/114/108
f 92/97/92 93/98/93 108/114/108
f 108/114/108 93/98/93 109/115/109
f 93/98/93 94/99/94 109/115/109
f 109/115/109 94/99/94 110/116/110
f 94/99/94 95/100/95 110/116/110
f 110/116/110 95/100/95 111/117/111
f 95/100/95 96/101/96 111/117/111
f 111/117/111 96/101/96 112/118/112
f 96/101/96 81/102/81 112/118/112
f 112/118/112 81/102/81 97/119/97
f 2/2/2 1/1/1 113/120/113
f 3/3/5 2/2/2 113/121/113
f 4/4/7 3/3/5 113/122/113
f 5/5/9 4/4/7 113/123/113
f 6/6/11 5/5/9 113/124/113
f 7/7/13 6/6/11 113/125/113
f 8/8/15 7/7/13 113/126/113
f 9/9/17 8/8/15 113/127/113
f 10/10/19 9/9/17 113/128/113
f 11/11/21 10/10/19 113/129/113
f 12/12/23 11/11/21 113/130/113
f 13/13/25 12/12/23 113/131/113
f 14/14/27 13/13/25 113/132/113
f 15/15/29 14/14/27 113/133/113
f 16/16/31 15/15/29 113/134/113
f 1/17/1 16/16/31 113/135/113
f 97/103/97 98/104/98 114/136/114
f 98/104/98 99/105/99 114/137/114
f 99/105/99 100/106/100 114/138/114
f 100/106/100 101/107/101 114/139/114
f 101/107/101 102/108/102 114/140/114
f 102/108/102 103/109/103 114/141/114
f 103/109/103 104/110/104 114/142/114
f 104/110/104 105/111/105 114/143/114
f 105/111/105 106/112/106 114/144/114
f 106/112/106 107/113/107 114/145/114
f 107/113/107 108/114/108 114/146/114
f 108/114/108 109/115/109 114/147/114
f 109/115/109 110/116/110 114/148/114
f 110/116/110 111/117/111 114/149/114
f 111/117/111 112/118/112 114/150/114
f 112/118/112 97/119/97 114/151/114
