# This file uses centimeters as units for non-parametric coordinates.

v -0.130112 0.314119 1.000000
v -0.240416 0.240416 1.000000
v -0.314119 0.130113 1.000000
v -0.340000 0.000000 1.000000
v -0.314119 -0.130112 1.000000
v -0.240416 -0.240416 1.000000
v -0.130112 -0.314119 1.000000
v -0.000000 -0.340000 1.000000
v 0.130112 -0.314119 1.000000
v 0.240416 -0.240416 1.000000
v 0.314119 -0.130112 1.000000
v 0.340000 -0.000000 1.000000
v 0.314119 0.130112 1.000000
v 0.240416 0.240416 1.000000
v 0.130112 0.314119 1.000000
v -0.000000 0.340000 1.000000
v -0.091990 0.222083 1.097554
v -0.169975 0.169975 1.097554
v -0.222083 0.091990 1.097554
v -0.240381 0.000000 1.097554
v -0.222083 -0.091990 1.097554
v -0.169975 -0.169975 1.097554
v -0.091990 -0.222083 1.097554
v -0.000000 -0.240381 1.097554
v 0.091990 -0.222083 1.097554
v 0.169975 -0.169975 1.097554
v 0.222083 -0.091990 1.097554
v 0.240381 -0.000000 1.097554
v 0.222083 0.091990 1.097554
v 0.169975 0.169975 1.097554
v 0.091990 0.222083 1.097554
v 0.000000 0.240381 1.097554
v -0.082707 0.199672 1.189305
v -0.152822 0.152822 1.189305
v -0.199672 0.082707 1.189305
v -0.216123 0.000000 1.189305
v -0.199672 -0.082707 1.189305
v -0.152822 -0.152822 1.189305
v -0.082707 -0.199672 1.189305
v -0.000000 -0.216123 1.189305
v 0.082707 -0.199672 1.189305
v 0.152822 -0.152822 1.189305
v 0.199672 -0.082707 1.189305
v 0.216123 -0.000000 1.189305
v 0.199672 0.082707 1.189305
v 0.152822 0.152822 1.189305
v 0.082707 0.199672 1.189305
v 0.000000 0.216123 1.189305
v -0.061408 0.148253 1.232147
v -0.113468 0.113468 1.232147
v -0.148253 0.061408 1.232147
v -0.160468 0.000000 1.232147
v -0.148253 -0.061408 1.232147
v -0.113468 -0.113468 1.232147
v -0.061408 -0.148253 1.232147
v -0.000000 -0.160468 1.232147
v 0.061408 -0.148253 1.232147
v 0.113468 -0.113468 1.232147
v 0.148253 -0.061408 1.232147
v 0.160468 -0.000000 1.232147
v 0.148253 0.061408 1.232147
v 0.113468 0.113468 1.232147
v 0.061408 0.148253 1.232147
v 0.000000 0.160468 1.232147
v -0.020825 0.050277 1.232147
v -0.038480 0.038480 1.232147
v -0.050277 0.020826 1.232147
v -0.054420 0.000000 1.232147
v -0.050277 -0.020825 1.232147
v -0.038480 -0.038480 1.232147
v -0.020825 -0.050277 1.232147
v -0.000000 -0.054420 1.232147
v 0.020825 -0.050277 1.232147
v 0.038480 -0.038480 1.232147
v 0.050277 -0.020825 1.232147
v 0.054420 -0.000000 1.232147
v 0.050277 0.020825 1.232147
v 0.038480 0.038480 1.232147
v 0.020826 0.050277 1.232147
v 0.000000 0.054420 1.232147
v -0.020825 0.050277 1.189264
v -0.038480 0.038480 1.189264
v -0.050277 0.020826 1.189264
v -0.054420 0.000000 1.189264
v -0.050277 -0.020825 1.189264
v -0.038480 -0.038480 1.189264
v -0.020825 -0.050277 1.189264
v -0.000000 -0.054420 1.189264
v 0.020825 -0.050277 1.189264
v 0.038480 -0.038480 1.189264
v 0.050277 -0.020825 1.189264
v 0.054420 -0.000000 1.189264
v 0.050277 0.020825 1.189264
v 0.038480 0.038480 1.189264
v 0.020826 0.050277 1.189264
v 0.000000 0.054420 1.189264
v -0.130112 0.314119 0.799920
v -0.240416 0.240416 0.799920
v -0.314119 0.130113 0.799920
v -0.340000 0.000000 0.799920
v -0.314119 -0.130112 0.799920
v -0.240416 -0.240416 0.799920
v -0.130112 -0.314119 0.799920
v -0.000000 -0.340000 0.799920
v 0.130112 -0.314119 0.799920
v 0.240416 -0.240416 0.799920
v 0.314119 -0.130112 0.799920
v 0.340000 -0.000000 0.799920
v 0.314119 0.130112 0.799920
v 0.240416 0.240416 0.799920
v 0.130112 0.314119 0.799920
v -0.000000 0.340000 0.799920
vt 0.464792 0.414297
vt 0.480174 0.478299
vt 0.466315 0.482208
vt 0.452327 0.483173
vt 0.438918 0.481022
vt 0.426690 0.475711
vt 0.415662 0.467511
vt 0.509141 0.362706
vt 0.517539 0.374045
vt 0.524262 0.385775
vt 0.528181 0.398514
vt 0.529079 0.412020
vt 0.527023 0.425780
vt 0.522156 0.439204
vt 0.514687 0.451694
vt 0.504912 0.462686
vt 0.657725 0.758445
vt 0.579884 0.792314
vt 0.549147 0.698691
vt 0.608419 0.673045
vt 0.496580 0.808787
vt 0.485375 0.711008
vt 0.411551 0.807385
vt 0.419803 0.709433
vt 0.328214 0.788708
vt 0.355033 0.694104
vt 0.249014 0.754453
vt 0.293368 0.665954
vt 0.174457 0.707285
vt 0.236778 0.626844
vt 0.102033 0.650392
vt 0.651221 0.158209
vt 0.780945 0.158298
vt 0.693372 0.212018
vt 0.820048 0.237575
vt 0.727019 0.272112
vt 0.846058 0.320065
vt 0.749213 0.336351
vt 0.856241 0.405013
vt 0.758199 0.402517
vt 0.849102 0.489842
vt 0.753317 0.468113
vt 0.824371 0.571123
vt 0.734747 0.530492
vt 0.782890 0.645208
vt 0.703357 0.587022
vt 0.726470 0.708642
vt 0.660599 0.635252
vt 0.527971 0.634856
vt 0.574293 0.614857
vt 0.477993 0.644452
vt 0.426401 0.643038
vt 0.375308 0.630378
vt 0.326903 0.606561
vt 0.283521 0.571937
vt 0.593870 0.210474
vt 0.634842 0.252609
vt 0.665159 0.299978
vt 0.684086 0.350904
vt 0.691553 0.403241
vt 0.687724 0.454874
vt 0.673079 0.503735
vt 0.648455 0.547855
vt 0.615032 0.585423
vt 0.512685 0.586050
vt 0.548816 0.570248
vt 0.473679 0.593817
vt 0.433400 0.593010
vt 0.393608 0.583319
vt 0.356322 0.564624
vt 0.324122 0.536924
vt 0.560772 0.262002
vt 0.595719 0.289439
vt 0.620350 0.324790
vt 0.635347 0.364114
vt 0.641052 0.404925
vt 0.637816 0.445260
vt 0.626147 0.483409
vt 0.606767 0.517838
vt 0.580613 0.547180
vt 0.490602 0.506621
vt 0.509281 0.497323
vt 0.470605 0.512075
vt 0.450203 0.513459
vt 0.430444 0.510731
vt 0.412547 0.504091
vt 0.397972 0.494052
vt 0.532063 0.348533
vt 0.543837 0.359066
vt 0.552609 0.374073
vt 0.557896 0.391985
vt 0.559305 0.411509
vt 0.556661 0.431496
vt 0.550015 0.450921
vt 0.539606 0.468874
vt 0.525843 0.484563
vt 0.728516 0.877600
vt 0.624713 0.923646
vt 0.514207 0.946754
vt 0.402469 0.946733
vt 0.294704 0.925250
vt 0.195033 0.886046
vt 0.105257 0.835070
vt 0.022666 0.780819
vt 0.912060 0.103273
vt 0.953956 0.196494
vt 0.983604 0.298714
vt 0.994995 0.407559
vt 0.984676 0.518538
vt 0.951417 0.626254
vt 0.895907 0.725224
vt 0.820423 0.810414
vt 0.867526 0.017458
vt 0.732552 0.079828
vt 0.388615 0.481498
vt 0.301309 0.500382
vt 0.246585 0.527083
vt 0.187824 0.579803
vt 0.455853 0.401975
vt 0.493238 0.471688
vt 0.442845 0.394003
vt 0.427796 0.391614
vt 0.412993 0.395164
vt 0.400689 0.404105
vt 0.392761 0.417071
vt 0.390417 0.432080
vt 0.394019 0.446836
vt 0.403021 0.459075
vt 0.430772 0.469822
vt 0.445624 0.466207
vt 0.457972 0.457206
vt 0.465945 0.444185
vt 0.468338 0.429118
vn -0.000000 -0.000001 1.000000
vn -0.000000 -0.000001 1.000000
vn -0.000000 -0.000001 1.000000
vn -0.000000 -0.000001 1.000000
vn -0.000000 -0.000001 1.000000
vn -0.000000 -0.000001 1.000000
vn -0.000000 -0.000001 1.000000
vn -0.000000 -0.000001 1.000000
vn -0.000000 -0.000001 1.000000
vn -0.000000 -0.000001 1.000000
vn -0.000000 -0.000001 1.000000
vn -0.000000 -0.000001 1.000000
vn -0.000000 -0.000001 1.000000
vn -0.000000 -0.000001 1.000000
vn -0.000000 -0.000001 1.000000
vn -0.000000 -0.000001 1.000000
vn -0.267749 0.646405 0.714473
vn -0.494736 0.494737 0.714473
vn -0.494736 0.494737 0.714473
vn -0.267749 0.646405 0.714473
vn -0.646405 0.267750 0.714473
vn -0.646405 0.267750 0.714473
vn -0.699663 0.000000 0.714473
vn -0.699663 0.000000 0.714473
vn -0.646405 -0.267749 0.714473
vn -0.646405 -0.267749 0.714473
vn -0.494737 -0.494736 0.714473
vn -0.494737 -0.494736 0.714473
vn -0.267750 -0.646404 0.714473
vn -0.267750 -0.646404 0.714473
vn -0.000000 -0.699663 0.714473
vn -0.000000 -0.699663 0.714473
vn 0.267749 -0.646405 0.714473
vn 0.267749 -0.646405 0.714473
vn 0.494737 -0.494737 0.714473
vn 0.494737 -0.494737 0.714473
vn 0.646405 -0.267750 0.714473
vn 0.646405 -0.267750 0.714473
vn 0.699663 -0.000000 0.714473
vn 0.699663 0.000000 0.714473
vn 0.646405 0.267749 0.714473
vn 0.646405 0.267749 0.714473
vn 0.494737 0.494736 0.714473
vn 0.494737 0.494736 0.714473
vn 0.267750 0.646404 0.714473
vn 0.267750 0.646404 0.714473
vn 0.000000 0.699663 0.714473
vn 0.000000 0.699663 0.714473
vn -0.369971 0.893189 0.255608
vn -0.683617 0.683617 0.255608
vn -0.683617 0.683617 0.255608
vn -0.369971 0.893189 0.255608
vn -0.893189 0.369971 0.255608
vn -0.893189 0.369971 0.255608
vn -0.966781 0.000001 0.255608
vn -0.966781 0.000001 0.255608
vn -0.893189 -0.369970 0.255608
vn -0.893189 -0.369970 0.255608
vn -0.683617 -0.683617 0.255608
vn -0.683617 -0.683617 0.255608
vn -0.369972 -0.893189 0.255608
vn -0.369972 -0.893189 0.255608
vn -0.000000 -0.966781 0.255608
vn -0.000000 -0.966781 0.255608
vn 0.369971 -0.893189 0.255608
vn 0.369971 -0.893189 0.255608
vn 0.683617 -0.683617 0.255608
vn 0.683617 -0.683617 0.255608
vn 0.893189 -0.369971 0.255608
vn 0.893189 -0.369971 0.255608
vn 0.966781 -0.000000 0.255608
vn 0.966781 -0.000000 0.255608
vn 0.893189 0.369971 0.255608
vn 0.893189 0.369971 0.255608
vn 0.683618 0.683617 0.255608
vn 0.683618 0.683617 0.255608
vn 0.369971 0.893189 0.255608
vn 0.369971 0.893189 0.255608
vn 0.000000 0.966781 0.255608
vn 0.000000 0.966781 0.255608
vn -0.233429 0.563547 0.792418
vn -0.431320 0.431321 0.792418
vn -0.269679 0.269680 0.924417
vn -0.145949 0.352352 0.924417
vn -0.563547 0.233429 0.792418
vn -0.352352 0.145950 0.924417
vn -0.609979 0.000000 0.792418
vn -0.381384 -0.000000 0.924417
vn -0.563547 -0.233429 0.792418
vn -0.352352 -0.145949 0.924417
vn -0.431320 -0.431320 0.792418
vn -0.269679 -0.269679 0.924417
vn -0.233429 -0.563547 0.792418
vn -0.145949 -0.352352 0.924417
vn -0.000000 -0.609978 0.792418
vn -0.000000 -0.381383 0.924417
vn 0.233429 -0.563547 0.792418
vn 0.145949 -0.352352 0.924417
vn 0.431320 -0.431321 0.792417
vn 0.269679 -0.269679 0.924417
vn 0.563547 -0.233429 0.792418
vn 0.352352 -0.145949 0.924417
vn 0.609979 -0.000000 0.792418
vn 0.381384 -0.000001 0.924417
vn 0.563547 0.233429 0.792418
vn 0.352352 0.145949 0.924417
vn 0.431320 0.431320 0.792418
vn 0.269679 0.269679 0.924417
vn 0.233429 0.563547 0.792417
vn 0.145949 0.352352 0.924417
vn 0.000000 0.609979 0.792418
vn 0.000000 0.381383 0.924417
vn -0.000000 0.000001 1.000000
vn -0.000000 -0.000000 1.000000
vn -0.000000 0.000002 1.000000
vn -0.000000 -0.000001 1.000000
vn -0.000000 -0.000001 1.000000
vn -0.000000 -0.000000 1.000000
vn -0.000000 -0.000000 1.000000
vn -0.000000 0.000001 1.000000
vn -0.000000 0.000001 1.000000
vn -0.000000 0.000000 1.000000
vn -0.000000 -0.000001 1.000000
vn -0.000000 -0.000001 1.000000
vn -0.000000 0.000000 1.000000
vn -0.000000 -0.000001 1.000000
vn -0.000000 -0.000001 1.000000
vn -0.000000 -0.000000 1.000000
vn 0.382684 -0.923879 0.000000
vn 0.707106 -0.707107 0.000000
vn 0.707106 -0.707107 0.000000
vn 0.382684 -0.923879 0.000000
vn 0.923879 -0.382684 0.000000
vn 0.923879 -0.382684 0.000000
vn 1.000000 -0.000000 0.000000
vn 1.000000 -0.000000 0.000000
vn 0.923880 0.382683 0.000000
vn 0.923880 0.382683 0.000000
vn 0.707107 0.707106 0.000000
vn 0.707107 0.707106 0.000000
vn 0.382684 0.923879 0.000000
vn 0.382684 0.923879 0.000000
vn 0.000000 1.000000 0.000000
vn 0.000000 1.000000 0.000000
vn -0.382684 0.923880 -0.000000
vn -0.382684 0.923880 -0.000000
vn -0.707107 0.707107 -0.000000
vn -0.707107 0.707107 -0.000000
vn -0.923879 0.382684 -0.000000
vn -0.923879 0.382684 -0.000000
vn -1.000000 -0.000000 -0.000000
vn -1.000000 -0.000000 -0.000000
vn -0.923880 -0.382683 -0.000000
vn -0.923880 -0.382683 -0.000000
vn -0.707107 -0.707107 -0.000000
vn -0.707107 -0.707107 -0.000000
vn -0.382684 -0.923879 -0.000000
vn -0.382684 -0.923879 -0.000000
vn -0.000000 -1.000000 -0.000000
vn -0.000000 -1.000000 -0.000000
vn -0.382683 0.923880 -0.000000
vn -0.707106 0.707107 -0.000000
vn -0.707106 0.707107 -0.000000
vn -0.382683 0.923880 -0.000000
vn -0.923879 0.382684 -0.000000
vn -0.923879 0.382684 -0.000000
vn -1.000000 0.000001 -0.000000
vn -1.000000 0.000001 -0.000000
vn -0.923880 -0.382683 -0.000000
vn -0.923880 -0.382683 -0.000000
vn -0.707107 -0.707106 -0.000000
vn -0.707107 -0.707106 -0.000000
vn -0.382684 -0.923879 -0.000000
vn -0.382684 -0.923879 -0.000000
vn -0.000000 -1.000000 -0.000000
vn -0.000000 -1.000000 -0.000000
vn 0.382683 -0.923880 0.000000
vn 0.382683 -0.923880 0.000000
vn 0.707107 -0.707107 0.000000
vn 0.707107 -0.707107 0.000000
vn 0.923880 -0.382684 0.000000
vn 0.923880 -0.382684 0.000000
vn 1.000000 -0.000000 0.000000
vn 1.000000 -0.000000 0.000000
vn 0.923880 0.382683 0.000000
vn 0.923880 0.382683 0.000000
vn 0.707107 0.707107 0.000000
vn 0.707107 0.707107 0.000000
vn 0.382683 0.923880 0.000000
vn 0.382683 0.923880 0.000000
vn 0.000000 1.000000 0.000000
vn 0.000000 1.000000 0.000000
f 81/1/1 82/133/2 83/132/3 84/131/4 85/130/5 86/129/6 87/7/7 88/128/8 89/127/9 90/126/10 91/125/11 92/124/12 93/123/13 94/122/14 95/121/15 96/119/16
f 1/17/17 2/18/18 18/19/19 17/20/20
f 2/18/18 3/21/21 19/22/22 18/19/19
f 3/21/21 4/23/23 20/24/24 19/22/22
f 4/23/23 5/25/25 21/26/26 20/24/24
f 5/25/25 6/27/27 22/28/28 21/26/26
f 6/27/27 7/29/29 23/30/30 22/28/28
f 7/29/29 8/31/31 24/118/32 23/30/30
f 8/114/31 9/33/33 25/34/34 24/32/32
f 9/33/33 10/35/35 26/36/36 25/34/34
f 10/35/35 11/37/37 27/38/38 26/36/36
f 11/37/37 12/39/39 28/40/40 27/38/38
f 12/39/39 13/41/41 29/42/42 28/40/40
f 13/41/41 14/43/43 30/44/44 29/42/42
f 14/43/43 15/45/45 31/46/46 30/44/44
f 15/45/45 16/47/47 32/48/48 31/46/46
f 16/47/47 1/17/17 17/20/20 32/48/48
f 17/20/49 18/19/50 34/49/51 33/50/52
f 18/19/50 19/22/53 35/51/54 34/49/51
f 19/22/53 20/24/55 36/52/56 35/51/54
f 20/24/55 21/26/57 37/53/58 36/52/56
f 21/26/57 22/28/59 38/54/60 37/53/58
f 22/28/59 23/30/61 39/55/62 38/54/60
f 23/30/61 24/118/63 40/117/64 39/55/62
f 24/32/63 25/34/65 41/57/66 40/56/64
f 25/34/65 26/36/67 42/58/68 41/57/66
f 26/36/67 27/38/69 43/59/70 42/58/68
f 27/38/69 28/40/71 44/60/72 43/59/70
f 28/40/71 29/42/73 45/61/74 44/60/72
f 29/42/73 30/44/75 46/62/76 45/61/74
f 30/44/75 31/46/77 47/63/78 46/62/76
f 31/46/77 32/48/79 48/64/80 47/63/78
f 32/48/79 17/20/49 33/50/52 48/64/80
f 33/50/81 34/49/82 50/65/83 49/66/84
f 34/49/82 35/51/85 51/67/86 50/65/83
f 35/51/85 36/52/87 52/68/88 51/67/86
f 36/52/87 37/53/89 53/69/90 52/68/88
f 37/53/89 38/54/91 54/70/92 53/69/90
f 38/54/91 39/55/93 55/71/94 54/70/92
f 39/55/93 40/117/95 56/116/96 55/71/94
f 40/56/95 41/57/97 57/73/98 56/72/96
f 41/57/97 42/58/99 58/74/100 57/73/98
f 42/58/99 43/59/101 59/75/102 58/74/100
f 43/59/101 44/60/103 60/76/104 59/75/102
f 44/60/103 45/61/105 61/77/106 60/76/104
f 45/61/105 46/62/107 62/78/108 61/77/106
f 46/62/107 47/63/109 63/79/110 62/78/108
f 47/63/109 48/64/111 64/80/112 63/79/110
f 48/64/111 33/50/81 49/66/84 64/80/112
f 49/66/84 50/65/83 66/81/113 65/82/114
f 50/65/83 51/67/86 67/83/115 66/81/113
f 51/67/86 52/68/88 68/84/116 67/83/115
f 52/68/88 53/69/90 69/85/117 68/84/116
f 53/69/90 54/70/92 70/86/118 69/85/117
f 54/70/92 55/71/94 71/87/119 70/86/118
f 55/71/94 56/116/96 72/115/120 71/87/119
f 56/72/96 57/73/98 73/89/121 72/88/120
f 57/73/98 58/74/100 74/90/122 73/89/121
f 58/74/100 59/75/102 75/91/123 74/90/122
f 59/75/102 60/76/104 76/92/124 75/91/123
f 60/76/104 61/77/106 77/93/125 76/92/124
f 61/77/106 62/78/108 78/94/126 77/93/125
f 62/78/108 63/79/110 79/95/127 78/94/126
f 63/79/110 64/80/112 80/96/128 79/95/127
f 64/80/112 49/66/84 65/82/114 80/96/128
f 65/82/129 66/81/130 82/2/131 81/120/132
f 66/81/130 67/83/133 83/3/134 82/2/131
f 67/83/133 68/84/135 84/4/136 83/3/134
f 68/84/135 69/85/137 85/5/138 84/4/136
f 69/85/137 70/86/139 86/6/140 85/5/138
f 70/86/139 71/87/141 87/7/142 86/6/140
f 71/87/141 72/115/143 88/128/144 87/7/142
f 72/88/143 73/89/145 89/9/146 88/8/144
f 73/89/145 74/90/147 90/10/148 89/9/146
f 74/90/147 75/91/149 91/11/150 90/10/148
f 75/91/149 76/92/151 92/12/152 91/11/150
f 76/92/151 77/93/153 93/13/154 92/12/152
f 77/93/153 78/94/155 94/14/156 93/13/154
f 78/94/155 79/95/157 95/15/158 94/14/156
f 79/95/157 80/96/159 96/16/160 95/15/158
f 80/96/159 65/82/129 81/120/132 96/16/160
f 97/97/161 98/98/162 2/18/163 1/17/164
f 98/98/162 99/99/165 3/21/166 2/18/163
f 99/99/165 100/100/167 4/23/168 3/21/166
f 100/100/167 101/101/169 5/25/170 4/23/168
f 101/101/169 102/102/171 6/27/172 5/25/170
f 102/102/171 103/103/173 7/29/174 6/27/172
f 103/103/173 104/104/175 8/31/176 7/29/174
f 104/113/175 105/105/177 9/33/178 8/114/176
f 105/105/177 106/106/179 10/35/180 9/33/178
f 106/106/179 107/107/181 11/37/182 10/35/180
f 107/107/181 108/108/183 12/39/184 11/37/182
f 108/108/183 109/109/185 13/41/186 12/39/184
f 109/109/185 110/110/187 14/43/188 13/41/186
f 110/110/187 111/111/189 15/45/190 14/43/188
f 111/111/189 112/112/191 16/47/192 15/45/190
f 112/112/191 97/97/161 1/17/164 16/47/192
