# This file uses centimeters as units for non-parametric coordinates.

g default
v -0.130112 0.314119 0.976312
v -0.240416 0.240416 0.976312
v -0.314119 0.130113 0.976312
v -0.340000 0.000000 0.976312
v -0.314119 -0.130112 0.976312
v -0.240416 -0.240416 0.976312
v -0.130112 -0.314119 0.976312
v 0.000000 -0.340000 0.976312
v 0.130112 -0.314119 0.976312
v 0.240416 -0.240416 0.976312
v 0.314119 -0.130112 0.976312
v 0.340000 -0.000000 0.976312
v 0.314119 0.130112 0.976312
v 0.240417 0.240416 0.976312
v 0.130113 0.314119 0.976312
v 0.000000 0.340000 0.976312
v -0.104638 0.252619 1.107800
v -0.193346 0.193346 1.107800
v -0.252618 0.104638 1.107800
v -0.273432 0.000000 1.107800
v -0.252618 -0.104638 1.107800
v -0.193346 -0.193346 1.107800
v -0.104638 -0.252619 1.107800
v 0.000000 -0.273432 1.107800
v 0.104638 -0.252619 1.107800
v 0.193346 -0.193346 1.107800
v 0.252619 -0.104638 1.107800
v 0.273433 -0.000000 1.107800
v 0.252619 0.104638 1.107800
v 0.193346 0.193346 1.107800
v 0.104638 0.252619 1.107800
v 0.000000 0.273432 1.107800
v -0.062198 0.150161 1.046704
v -0.114928 0.114929 1.046704
v -0.150161 0.062199 1.046704
v -0.162533 0.000000 1.046704
v -0.150161 -0.062199 1.046704
v -0.114928 -0.114928 1.046704
v -0.062199 -0.150161 1.046704
v 0.000000 -0.162533 1.046704
v 0.062199 -0.150161 1.046704
v 0.114929 -0.114929 1.046704
v 0.150161 -0.062199 1.046704
v 0.162534 -0.000000 1.046704
v 0.150161 0.062199 1.046704
v 0.114929 0.114928 1.046704
v 0.062199 0.150161 1.046704
v 0.000000 0.162533 1.046704
v -0.035712 0.086217 1.254520
v -0.065987 0.065987 1.254520
v -0.086216 0.035712 1.254520
v -0.093320 0.000000 1.254520
v -0.086216 -0.035712 1.254520
v -0.065987 -0.065987 1.254520
v -0.035712 -0.086217 1.254520
v 0.000000 -0.093320 1.254520
v 0.035712 -0.086217 1.254520
v 0.065988 -0.065987 1.254520
v 0.086217 -0.035712 1.254520
v 0.093320 -0.000000 1.254520
v 0.086217 0.035712 1.254520
v 0.065988 0.065987 1.254520
v 0.035712 0.086217 1.254520
v 0.000000 0.093320 1.254520
v -0.044221 0.106759 1.118809
v -0.081710 0.081710 1.118809
v -0.106759 0.044221 1.118809
v -0.115555 0.000000 1.118809
v -0.106759 -0.044221 1.118809
v -0.081710 -0.081710 1.118809
v -0.044221 -0.106759 1.118809
v 0.000000 -0.115556 1.118809
v 0.044221 -0.106759 1.118809
v 0.081710 -0.081710 1.118809
v 0.106760 -0.044221 1.118809
v 0.115556 -0.000000 1.118809
v 0.106760 0.044221 1.118809
v 0.081710 0.081710 1.118809
v 0.044221 0.106759 1.118809
v 0.000000 0.115556 1.118809
v -0.130112 0.314119 0.799920
v -0.240416 0.240416 0.799920
v -0.314119 0.130113 0.799920
v -0.340000 0.000000 0.799920
v -0.314119 -0.130112 0.799920
v -0.240416 -0.240416 0.799920
v -0.130112 -0.314119 0.799920
v 0.000000 -0.340000 0.799920
v 0.130112 -0.314119 0.799920
v 0.240416 -0.240416 0.799920
v 0.314119 -0.130112 0.799920
v 0.340000 -0.000000 0.799920
v 0.314119 0.130112 0.799920
v 0.240417 0.240416 0.799920
v 0.130113 0.314119 0.799920
v 0.000000 0.340000 0.799920
vt 0.439407 0.474867
vt 0.419250 0.485609
vt 0.397293 0.492623
vt 0.374105 0.495783
vt 0.350187 0.495176
vt 0.325856 0.491177
vt 0.301100 0.484565
vt 0.274938 0.479748
vt 0.486896 0.306264
vt 0.492836 0.330717
vt 0.495991 0.355018
vt 0.495671 0.378936
vt 0.491570 0.402025
vt 0.483652 0.423731
vt 0.472086 0.443471
vt 0.457192 0.460684
vt 0.645413 0.778916
vt 0.569015 0.820965
vt 0.525516 0.722120
vt 0.584955 0.689229
vt 0.486224 0.848729
vt 0.461060 0.744043
vt 0.399535 0.861165
vt 0.393386 0.754197
vt 0.311500 0.857710
vt 0.324268 0.752011
vt 0.224414 0.838496
vt 0.255410 0.737020
vt 0.139596 0.804814
vt 0.188721 0.708572
vt 0.056023 0.760068
vt 0.671515 0.134110
vt 0.810829 0.152217
vt 0.713309 0.198279
vt 0.841951 0.238283
vt 0.739894 0.266422
vt 0.858624 0.326187
vt 0.752801 0.336004
vt 0.859479 0.414465
vt 0.752841 0.405333
vt 0.844477 0.500839
vt 0.740593 0.472772
vt 0.814272 0.582816
vt 0.716700 0.536592
vt 0.769983 0.657958
vt 0.682015 0.595041
vt 0.713096 0.724000
vt 0.637646 0.646430
vt 0.488359 0.634070
vt 0.532457 0.609088
vt 0.440696 0.651127
vt 0.390925 0.659818
vt 0.340587 0.659927
vt 0.291426 0.651323
vt 0.245925 0.633633
vt 0.607201 0.214309
vt 0.634951 0.252976
vt 0.651729 0.298836
vt 0.659400 0.347950
vt 0.658336 0.398126
vt 0.648656 0.447633
vt 0.630609 0.494892
vt 0.604684 0.538427
vt 0.571634 0.576887
vt 0.495775 0.554783
vt 0.461945 0.574140
vt 0.425564 0.587494
vt 0.387893 0.594625
vt 0.350264 0.595601
vt 0.314040 0.590757
vt 0.280514 0.580690
vt 0.567133 0.256075
vt 0.580908 0.286258
vt 0.590411 0.319908
vt 0.594673 0.356077
vt 0.593093 0.393517
vt 0.585332 0.430907
vt 0.571338 0.466925
vt 0.551354 0.500311
vt 0.525907 0.529921
vt 0.716748 0.883496
vt 0.620745 0.936467
vt 0.516893 0.971472
vt 0.408694 0.987363
vt 0.300040 0.983927
vt 0.194958 0.962520
vt 0.096656 0.927128
vt 0.004859 0.886114
vt 0.932070 0.113472
vt 0.964954 0.211792
vt 0.984069 0.317059
vt 0.985021 0.425731
vt 0.966469 0.533549
vt 0.928780 0.636512
vt 0.873268 0.731111
vt 0.801820 0.814310
vt 0.894809 0.022396
vt 0.769738 0.067319
vt 0.250425 0.566334
vt 0.208938 0.605736
vt 0.127780 0.665227
vt 0.315813 0.350762
vt 0.339075 0.363557
vt 0.289315 0.347845
vt 0.263767 0.355257
vt 0.243043 0.371852
vt 0.230288 0.395085
vt 0.227440 0.421399
vt 0.234931 0.446760
vt 0.251614 0.467268
vt 0.479442 0.281548
vt 0.326711 0.476821
vt 0.347475 0.459946
vt 0.360262 0.436467
vt 0.363146 0.409922
vt 0.355702 0.384326
vn -0.000000 -0.000029 1.000000
vn -0.000000 -0.000001 1.000000
vn -0.000000 -0.000000 1.000000
vn -0.000000 -0.000005 1.000000
vn -0.000000 0.000002 1.000000
vn -0.000000 0.000001 1.000000
vn -0.000000 0.000000 1.000000
vn -0.000000 0.000000 1.000000
vn -0.000000 -0.000000 1.000000
vn -0.000000 -0.000001 1.000000
vn -0.000000 -0.000001 1.000000
vn -0.000000 0.000000 1.000000
vn -0.000000 0.000000 1.000000
vn -0.000000 -0.000001 1.000000
vn -0.000000 -0.000009 1.000000
vn -0.000000 0.000029 1.000000
vn -0.377919 0.903968 0.200048
vn -0.695085 0.690534 0.200048
vn -0.350198 0.820589 0.451659
vn -0.637566 0.624110 0.451659
vn -0.906431 0.371973 0.200048
vn -0.827871 0.332617 0.451658
vn -0.979781 -0.003218 0.200048
vn -0.892140 -0.009514 0.451659
vn -0.903968 -0.377919 0.200048
vn -0.820589 -0.350197 0.451659
vn -0.690534 -0.695085 0.200048
vn -0.624110 -0.637566 0.451659
vn -0.371973 -0.906431 0.200048
vn -0.332617 -0.827871 0.451659
vn 0.003218 -0.979781 0.200048
vn 0.009515 -0.892140 0.451659
vn 0.377919 -0.903968 0.200048
vn 0.350197 -0.820589 0.451658
vn 0.695085 -0.690534 0.200048
vn 0.637566 -0.624111 0.451659
vn 0.906431 -0.371973 0.200048
vn 0.827871 -0.332617 0.451659
vn 0.979781 0.003218 0.200048
vn 0.892140 0.009515 0.451658
vn 0.903968 0.377919 0.200048
vn 0.820589 0.350198 0.451659
vn 0.690534 0.695085 0.200048
vn 0.624110 0.637566 0.451659
vn 0.371973 0.906431 0.200048
vn 0.332617 0.827871 0.451659
vn -0.003218 0.979781 0.200048
vn -0.009514 0.892140 0.451659
vn 0.190500 -0.443377 0.875858
vn 0.345672 -0.336726 0.875858
vn 0.196262 -0.440959 0.875806
vn 0.350070 -0.332286 0.875807
vn 0.448218 -0.178810 0.875858
vn 0.450583 -0.173025 0.875807
vn 0.482527 0.006327 0.875858
vn 0.482499 0.012575 0.875807
vn 0.443376 0.190500 0.875858
vn 0.440959 0.196262 0.875806
vn 0.336724 0.345672 0.875858
vn 0.332287 0.350070 0.875806
vn 0.178810 0.448218 0.875858
vn 0.173027 0.450583 0.875807
vn -0.006327 0.482527 0.875858
vn -0.012575 0.482498 0.875807
vn -0.190500 0.443376 0.875858
vn -0.196262 0.440958 0.875807
vn -0.345672 0.336725 0.875858
vn -0.350069 0.332287 0.875806
vn -0.448218 0.178810 0.875858
vn -0.450583 0.173026 0.875807
vn -0.482527 -0.006327 0.875858
vn -0.482499 -0.012575 0.875806
vn -0.443376 -0.190500 0.875858
vn -0.440959 -0.196262 0.875806
vn -0.336724 -0.345672 0.875858
vn -0.332286 -0.350070 0.875806
vn -0.178810 -0.448218 0.875858
vn -0.173027 -0.450583 0.875806
vn 0.006327 -0.482527 0.875858
vn 0.012574 -0.482499 0.875807
vn -0.380603 0.910494 0.161686
vn -0.700062 0.695536 0.161686
vn -0.381855 0.909970 0.161685
vn -0.701018 0.694573 0.161685
vn -0.912943 0.374690 0.161686
vn -0.913458 0.373433 0.161685
vn -0.986837 -0.003200 0.161686
vn -0.986832 -0.004558 0.161685
vn -0.910494 -0.380602 0.161686
vn -0.909970 -0.381855 0.161685
vn -0.695537 -0.700062 0.161686
vn -0.694573 -0.701019 0.161685
vn -0.374690 -0.912943 0.161686
vn -0.373433 -0.913458 0.161685
vn 0.003200 -0.986837 0.161686
vn 0.004558 -0.986832 0.161685
vn 0.380603 -0.910494 0.161686
vn 0.381855 -0.909970 0.161685
vn 0.700062 -0.695536 0.161686
vn 0.701018 -0.694573 0.161685
vn 0.912944 -0.374689 0.161686
vn 0.913458 -0.373433 0.161685
vn 0.986837 0.003201 0.161686
vn 0.986832 0.004558 0.161685
vn 0.910494 0.380602 0.161686
vn 0.909970 0.381855 0.161685
vn 0.695537 0.700062 0.161686
vn 0.694572 0.701019 0.161685
vn 0.374689 0.912943 0.161686
vn 0.373432 0.913459 0.161685
vn -0.003200 0.986837 0.161686
vn -0.004558 0.986832 0.161685
vn -0.327921 0.771037 0.545866
vn -0.598022 0.586855 0.545867
vn -0.332199 0.769221 0.545841
vn -0.601281 0.583540 0.545841
vn -0.777080 0.313330 0.545866
vn -0.778822 0.309020 0.545841
vn -0.837835 -0.007897 0.545866
vn -0.837795 -0.012544 0.545841
vn -0.771036 -0.327922 0.545867
vn -0.769222 -0.332199 0.545841
vn -0.586855 -0.598023 0.545867
vn -0.583541 -0.601280 0.545841
vn -0.313329 -0.777081 0.545867
vn -0.309021 -0.778822 0.545841
vn 0.007897 -0.837835 0.545867
vn 0.012544 -0.837795 0.545841
vn 0.327921 -0.771036 0.545867
vn 0.332199 -0.769222 0.545841
vn 0.598023 -0.586854 0.545867
vn 0.601280 -0.583541 0.545841
vn 0.777081 -0.313329 0.545867
vn 0.778822 -0.309022 0.545840
vn 0.837835 0.007898 0.545866
vn 0.837795 0.012543 0.545841
vn 0.771037 0.327922 0.545867
vn 0.769222 0.332199 0.545841
vn 0.586854 0.598023 0.545867
vn 0.583540 0.601280 0.545841
vn 0.313329 0.777081 0.545866
vn 0.309021 0.778822 0.545841
vn -0.007897 0.837835 0.545866
vn -0.012543 0.837795 0.545841
vn -0.382683 0.923880 -0.000000
vn -0.707107 0.707107 -0.000000
vn -0.923879 0.382684 -0.000000
vn -1.000000 0.000001 -0.000000
vn -0.923880 -0.382683 -0.000000
vn -0.707107 -0.707106 -0.000000
vn -0.382684 -0.923879 -0.000000
vn -0.000000 -1.000000 -0.000000
vn 0.382683 -0.923880 0.000000
vn 0.707107 -0.707107 0.000000
vn 0.923880 -0.382684 0.000000
vn 1.000000 -0.000000 0.000000
vn 0.923880 0.382683 0.000000
vn 0.707107 0.707107 0.000000
vn 0.382684 0.923879 0.000000
vn 0.000000 1.000000 0.000000
s 1
g Ear_mount02 Ear_mount Character
f 49/103/1 50/116/2 64/102/3
f 50/116/2 51/115/4 64/102/3
f 51/115/4 52/114/5 64/102/3
f 52/114/5 53/113/6 64/102/3
f 53/113/6 54/112/7 64/102/3
f 54/112/7 55/7/8 64/102/3
f 55/7/8 56/8/9 64/102/3
f 56/8/9 57/110/10 64/102/3
f 57/110/10 58/109/11 64/102/3
f 58/109/11 59/108/12 64/102/3
f 59/108/12 60/107/13 64/102/3
f 60/107/13 61/106/14 64/102/3
f 61/106/14 62/105/15 64/102/3
f 62/105/15 63/104/16 64/102/3
s 2
f 1/17/17 2/18/18 17/20/19
f 17/20/19 2/18/18 18/19/20
f 2/18/18 3/21/21 18/19/20
f 18/19/20 3/21/21 19/22/22
f 3/21/21 4/23/23 19/22/22
f 19/22/22 4/23/23 20/24/24
f 4/23/23 5/25/25 20/24/24
f 20/24/24 5/25/25 21/26/26
f 5/25/25 6/27/27 21/26/26
f 21/26/26 6/27/27 22/28/28
f 6/27/27 7/29/29 22/28/28
f 22/28/28 7/29/29 23/30/30
f 7/29/29 8/31/31 23/30/30
f 23/30/30 8/31/31 24/101/32
f 8/98/31 9/33/33 24/32/32
f 24/32/32 9/33/33 25/34/34
f 9/33/33 10/35/35 25/34/34
f 25/34/34 10/35/35 26/36/36
f 10/35/35 11/37/37 26/36/36
f 26/36/36 11/37/37 27/38/38
f 11/37/37 12/39/39 27/38/38
f 27/38/38 12/39/39 28/40/40
f 12/39/39 13/41/41 28/40/40
f 28/40/40 13/41/41 29/42/42
f 13/41/41 14/43/43 29/42/42
f 29/42/42 14/43/43 30/44/44
f 14/43/43 15/45/45 30/44/44
f 30/44/44 15/45/45 31/46/46
f 15/45/45 16/47/47 31/46/46
f 31/46/46 16/47/47 32/48/48
f 16/47/47 1/17/17 32/48/48
f 32/48/48 1/17/17 17/20/19
s 3
f 17/20/49 18/19/50 33/50/51
f 33/50/51 18/19/50 34/49/52
f 18/19/50 19/22/53 34/49/52
f 34/49/52 19/22/53 35/51/54
f 19/22/53 20/24/55 35/51/54
f 35/51/54 20/24/55 36/52/56
f 20/24/55 21/26/57 36/52/56
f 36/52/56 21/26/57 37/53/58
f 21/26/57 22/28/59 37/53/58
f 37/53/58 22/28/59 38/54/60
f 22/28/59 23/30/61 38/54/60
f 38/54/60 23/30/61 39/55/62
f 23/30/61 24/101/63 39/55/62
f 39/55/62 24/101/63 40/100/64
f 24/32/63 25/34/65 40/56/64
f 40/56/64 25/34/65 41/57/66
f 25/34/65 26/36/67 41/57/66
f 41/57/66 26/36/67 42/58/68
f 26/36/67 27/38/69 42/58/68
f 42/58/68 27/38/69 43/59/70
f 27/38/69 28/40/71 43/59/70
f 43/59/70 28/40/71 44/60/72
f 28/40/71 29/42/73 44/60/72
f 44/60/72 29/42/73 45/61/74
f 29/42/73 30/44/75 45/61/74
f 45/61/74 30/44/75 46/62/76
f 30/44/75 31/46/77 46/62/76
f 46/62/76 31/46/77 47/63/78
f 31/46/77 32/48/79 47/63/78
f 47/63/78 32/48/79 48/64/80
f 32/48/79 17/20/49 48/64/80
f 48/64/80 17/20/49 33/50/51
s 4
f 65/65/81 66/66/82 49/1/83
f 49/1/83 66/66/82 50/2/84
f 66/66/82 67/67/85 50/2/84
f 50/2/84 67/67/85 51/3/86
f 67/67/85 68/68/87 51/3/86
f 51/3/86 68/68/87 52/4/88
f 68/68/87 69/69/89 52/4/88
f 52/4/88 69/69/89 53/5/90
f 69/69/89 70/70/91 53/5/90
f 53/5/90 70/70/91 54/6/92
f 70/70/91 71/71/93 54/6/92
f 54/6/92 71/71/93 55/7/94
f 71/71/93 72/99/95 55/7/94
f 55/7/94 72/99/95 56/8/96
f 72/72/95 73/73/97 56/111/96
f 56/111/96 73/73/97 57/9/98
f 73/73/97 74/74/99 57/9/98
f 57/9/98 74/74/99 58/10/100
f 74/74/99 75/75/101 58/10/100
f 58/10/100 75/75/101 59/11/102
f 75/75/101 76/76/103 59/11/102
f 59/11/102 76/76/103 60/12/104
f 76/76/103 77/77/105 60/12/104
f 60/12/104 77/77/105 61/13/106
f 77/77/105 78/78/107 61/13/106
f 61/13/106 78/78/107 62/14/108
f 78/78/107 79/79/109 62/14/108
f 62/14/108 79/79/109 63/15/110
f 79/79/109 80/80/111 63/15/110
f 63/15/110 80/80/111 64/16/112
f 80/80/111 65/65/81 64/16/112
f 64/16/112 65/65/81 49/1/83
s 5
f 33/50/113 34/49/114 65/65/115
f 65/65/115 34/49/114 66/66/116
f 34/49/114 35/51/117 66/66/116
f 66/66/116 35/51/117 67/67/118
f 35/51/117 36/52/119 67/67/118
f 67/67/118 36/52/119 68/68/120
f 36/52/119 37/53/121 68/68/120
f 68/68/120 37/53/121 69/69/122
f 37/53/121 38/54/123 69/69/122
f 69/69/122 38/54/123 70/70/124
f 38/54/123 39/55/125 70/70/124
f 70/70/124 39/55/125 71/71/126
f 39/55/125 40/100/127 71/71/126
f 71/71/126 40/100/127 72/99/128
f 40/56/127 41/57/129 72/72/128
f 72/72/128 41/57/129 73/73/130
f 41/57/129 42/58/131 73/73/130
f 73/73/130 42/58/131 74/74/132
f 42/58/131 43/59/133 74/74/132
f 74/74/132 43/59/133 75/75/134
f 43/59/133 44/60/135 75/75/134
f 75/75/134 44/60/135 76/76/136
f 44/60/135 45/61/137 76/76/136
f 76/76/136 45/61/137 77/77/138
f 45/61/137 46/62/139 77/77/138
f 77/77/138 46/62/139 78/78/140
f 46/62/139 47/63/141 78/78/140
f 78/78/140 47/63/141 79/79/142
f 47/63/141 48/64/143 79/79/142
f 79/79/142 48/64/143 80/80/144
f 48/64/143 33/50/113 80/80/144
f 80/80/144 33/50/113 65/65/115
s 2
f 81/81/145 82/82/146 1/17/17
f 1/17/17 82/82/146 2/18/18
f 82/82/146 83/83/147 2/18/18
f 2/18/18 83/83/147 3/21/21
f 83/83/147 84/84/148 3/21/21
f 3/21/21 84/84/148 4/23/23
f 84/84/148 85/85/149 4/23/23
f 4/23/23 85/85/149 5/25/25
f 85/85/149 86/86/150 5/25/25
f 5/25/25 86/86/150 6/27/27
f 86/86/150 87/87/151 6/27/27
f 6/27/27 87/87/151 7/29/29
f 87/87/151 88/88/152 7/29/29
f 7/29/29 88/88/152 8/31/31
f 88/97/152 89/89/153 8/98/31
f 8/98/31 89/89/153 9/33/33
f 89/89/153 90/90/154 9/33/33
f 9/33/33 90/90/154 10/35/35
f 90/90/154 91/91/155 10/35/35
f 10/35/35 91/91/155 11/37/37
f 91/91/155 92/92/156 11/37/37
f 11/37/37 92/92/156 12/39/39
f 92/92/156 93/93/157 12/39/39
f 12/39/39 93/93/157 13/41/41
f 93/93/157 94/94/158 13/41/41
f 13/41/41 94/94/158 14/43/43
f 94/94/158 95/95/159 14/43/43
f 14/43/43 95/95/159 15/45/45
f 95/95/159 96/96/160 15/45/45
f 15/45/45 96/96/160 16/47/47
f 96/96/160 81/81/145 16/47/47
f 16/47/47 81/81/145 1/17/17
