# This file uses centimeters as units for non-parametric coordinates.

g default
v 0.880423 0.000000 0.376393
v 0.735114 0.000000 0.176393
v 0.500000 0.000000 0.100000
v 0.264886 0.000000 0.176393
v 0.119577 0.000000 0.376393
v 0.119577 0.000000 0.623607
v 0.264886 0.000000 0.823607
v 0.500000 0.000000 0.900000
v 0.735114 0.000000 0.823607
v 0.880423 0.000000 0.623607
v 0.500000 0.800000 0.500000
v -0.119577 0.000000 -0.623607
v -0.264886 0.000000 -0.823607
v -0.500000 0.000000 -0.900000
v -0.735114 0.000000 -0.823607
v -0.880423 0.000000 -0.623607
v -0.880423 0.000000 -0.376393
v -0.735114 0.000000 -0.176393
v -0.500000 0.000000 -0.100000
v -0.264886 0.000000 -0.176393
v -0.119577 0.000000 -0.376393
v -0.500000 0.800000 -0.500000
v -0.119577 0.000000 0.376393
v -0.264886 0.000000 0.176393
v -0.500000 0.000000 0.100000
v -0.735114 0.000000 0.176393
v -0.880423 0.000000 0.376393
v -0.880423 0.000000 0.623607
v -0.735114 0.000000 0.823607
v -0.500000 0.000000 0.900000
v -0.264886 0.000000 0.823607
v -0.119577 0.000000 0.623607
v -0.500000 0.800000 0.500000
v 0.880423 0.000000 -0.623607
v 0.735114 0.000000 -0.823607
v 0.500000 0.000000 -0.900000
v 0.264886 0.000000 -0.823607
v 0.119577 0.000000 -0.623607
v 0.119577 0.000000 -0.376393
v 0.264886 0.000000 -0.176393
v 0.500000 0.000000 -0.100000
v 0.735114 0.000000 -0.176393
v 0.880423 0.000000 -0.376393
v 0.500000 0.800000 -0.500000
vt 0.453463 0.961771
vt 0.453463 0.965316
vt 0.451379 0.968184
vt 0.448008 0.969279
vt 0.444637 0.968184
vt 0.442553 0.965316
vt 0.442553 0.961771
vt 0.444637 0.958904
vt 0.448008 0.957808
vt 0.451379 0.958904
vt 0.448008 0.980751
vt 0.442272 0.969279
vt 0.443419 0.969279
vt 0.444567 0.969279
vt 0.445714 0.969279
vt 0.446861 0.969279
vt 0.448008 0.969279
vt 0.449155 0.969279
vt 0.450302 0.969279
vt 0.451449 0.969279
vt 0.452596 0.969279
vt 0.453743 0.969279
vt 0.453463 0.961771
vt 0.453463 0.965316
vt 0.451379 0.968184
vt 0.448008 0.969279
vt 0.444637 0.968184
vt 0.442553 0.965316
vt 0.442553 0.961771
vt 0.444637 0.958904
vt 0.448008 0.957808
vt 0.451379 0.958904
vt 0.448008 0.980751
vt 0.442272 0.969279
vt 0.443419 0.969279
vt 0.444567 0.969279
vt 0.445714 0.969279
vt 0.446861 0.969279
vt 0.448008 0.969279
vt 0.449155 0.969279
vt 0.450302 0.969279
vt 0.451449 0.969279
vt 0.452596 0.969279
vt 0.453743 0.969279
vt 0.453463 0.961771
vt 0.453463 0.965316
vt 0.451379 0.968184
vt 0.448008 0.969279
vt 0.444637 0.968184
vt 0.442553 0.965316
vt 0.442553 0.961771
vt 0.444637 0.958904
vt 0.448008 0.957808
vt 0.451379 0.958904
vt 0.448008 0.980751
vt 0.442272 0.969279
vt 0.443419 0.969279
vt 0.444567 0.969279
vt 0.445714 0.969279
vt 0.446861 0.969279
vt 0.448008 0.969279
vt 0.449155 0.969279
vt 0.450302 0.969279
vt 0.451449 0.969279
vt 0.452596 0.969279
vt 0.453743 0.969279
vt 0.453463 0.961771
vt 0.453463 0.965316
vt 0.451379 0.968184
vt 0.448008 0.969279
vt 0.444637 0.968184
vt 0.442553 0.965316
vt 0.442553 0.961771
vt 0.444637 0.958904
vt 0.448008 0.957808
vt 0.451379 0.958904
vt 0.448008 0.980751
vt 0.442272 0.969279
vt 0.443419 0.969279
vt 0.444567 0.969279
vt 0.445714 0.969279
vt 0.446861 0.969279
vt 0.448008 0.969279
vt 0.449155 0.969279
vt 0.450302 0.969279
vt 0.451449 0.969279
vt 0.452596 0.969279
vt 0.453743 0.969279
vn 0.000000 -1.000000 0.000000
vn 0.000000 -1.000000 0.000000
vn 0.000000 -1.000000 0.000000
vn 0.000000 -1.000000 0.000000
vn 0.000000 -1.000000 0.000000
vn 0.000000 -1.000000 0.000000
vn 0.000000 -1.000000 0.000000
vn 0.000000 -1.000000 0.000000
vn 0.000000 -1.000000 0.000000
vn 0.000000 -1.000000 0.000000
vn 0.730617 0.429446 -0.530824
vn 0.730617 0.429446 -0.530824
vn 0.730617 0.429446 -0.530824
vn 0.279067 0.429446 -0.858893
vn 0.279067 0.429446 -0.858893
vn 0.279067 0.429446 -0.858893
vn -0.279067 0.429446 -0.858893
vn -0.279067 0.429446 -0.858893
vn -0.279067 0.429446 -0.858893
vn -0.730617 0.429446 -0.530824
vn -0.730617 0.429446 -0.530824
vn -0.730617 0.429446 -0.530824
vn -0.903092 0.429446 0.000000
vn -0.903092 0.429446 0.000000
vn -0.903092 0.429446 0.000000
vn -0.730617 0.429446 0.530824
vn -0.730617 0.429446 0.530824
vn -0.730617 0.429446 0.530824
vn -0.279068 0.429446 0.858893
vn -0.279068 0.429446 0.858893
vn -0.279068 0.429446 0.858893
vn 0.279068 0.429446 0.858893
vn 0.279068 0.429446 0.858893
vn 0.279068 0.429446 0.858893
vn 0.730617 0.429446 0.530824
vn 0.730617 0.429446 0.530824
vn 0.730617 0.429446 0.530824
vn 0.903092 0.429446 0.000000
vn 0.903092 0.429447 0.000000
vn 0.903092 0.429447 0.000000
vn 0.000000 -1.000000 0.000000
vn 0.000000 -1.000000 0.000000
vn 0.000000 -1.000000 0.000000
vn 0.000000 -1.000000 0.000000
vn 0.000000 -1.000000 0.000000
vn 0.000000 -1.000000 0.000000
vn 0.000000 -1.000000 0.000000
vn 0.000000 -1.000000 0.000000
vn 0.000000 -1.000000 0.000000
vn 0.000000 -1.000000 0.000000
vn 0.730618 0.429446 -0.530823
vn 0.730618 0.429446 -0.530823
vn 0.730618 0.429446 -0.530823
vn 0.279068 0.429446 -0.858893
vn 0.279068 0.429446 -0.858893
vn 0.279068 0.429446 -0.858893
vn -0.279068 0.429446 -0.858893
vn -0.279068 0.429446 -0.858893
vn -0.279068 0.429446 -0.858893
vn -0.730618 0.429446 -0.530823
vn -0.730618 0.429446 -0.530823
vn -0.730618 0.429446 -0.530823
vn -0.903093 0.429446 0.000000
vn -0.903093 0.429446 0.000000
vn -0.903093 0.429446 0.000000
vn -0.730618 0.429446 0.530823
vn -0.730618 0.429446 0.530823
vn -0.730618 0.429446 0.530823
vn -0.279067 0.429446 0.858893
vn -0.279067 0.429446 0.858893
vn -0.279067 0.429446 0.858893
vn 0.279067 0.429446 0.858893
vn 0.279067 0.429446 0.858893
vn 0.279067 0.429446 0.858893
vn 0.730618 0.429446 0.530823
vn 0.730618 0.429446 0.530823
vn 0.730618 0.429446 0.530823
vn 0.903093 0.429446 0.000000
vn 0.903093 0.429446 0.000000
vn 0.903093 0.429446 0.000000
vn 0.000000 -1.000000 0.000000
vn 0.000000 -1.000000 0.000000
vn 0.000000 -1.000000 0.000000
vn 0.000000 -1.000000 0.000000
vn 0.000000 -1.000000 0.000000
vn 0.000000 -1.000000 0.000000
vn 0.000000 -1.000000 0.000000
vn 0.000000 -1.000000 0.000000
vn 0.000000 -1.000000 0.000000
vn 0.000000 -1.000000 0.000000
vn 0.730618 0.429446 -0.530823
vn 0.730618 0.429446 -0.530823
vn 0.730618 0.429446 -0.530823
vn 0.279067 0.429446 -0.858893
vn 0.279067 0.429446 -0.858893
vn 0.279067 0.429446 -0.858893
vn -0.279067 0.429446 -0.858893
vn -0.279067 0.429446 -0.858893
vn -0.279067 0.429446 -0.858893
vn -0.730618 0.429446 -0.530823
vn -0.730618 0.429446 -0.530823
vn -0.730618 0.429446 -0.530823
vn -0.903093 0.429446 0.000000
vn -0.903093 0.429446 0.000000
vn -0.903093 0.429446 0.000000
vn -0.730618 0.429446 0.530823
vn -0.730618 0.429446 0.530823
vn -0.730618 0.429446 0.530823
vn -0.279068 0.429446 0.858893
vn -0.279068 0.429446 0.858893
vn -0.279068 0.429446 0.858893
vn 0.279068 0.429446 0.858893
vn 0.279068 0.429446 0.858893
vn 0.279068 0.429446 0.858893
vn 0.730618 0.429446 0.530823
vn 0.730618 0.429446 0.530823
vn 0.730618 0.429446 0.530823
vn 0.903093 0.429446 0.000000
vn 0.903093 0.429446 0.000000
vn 0.903093 0.429446 0.000000
vn 0.000000 -1.000000 0.000000
vn 0.000000 -1.000000 0.000000
vn 0.000000 -1.000000 0.000000
vn 0.000000 -1.000000 0.000000
vn 0.000000 -1.000000 0.000000
vn 0.000000 -1.000000 0.000000
vn 0.000000 -1.000000 0.000000
vn 0.000000 -1.000000 0.000000
vn 0.000000 -1.000000 0.000000
vn 0.000000 -1.000000 0.000000
vn 0.730617 0.429446 -0.530824
vn 0.730617 0.429446 -0.530824
vn 0.730617 0.429446 -0.530824
vn 0.279068 0.429446 -0.858893
vn 0.279068 0.429446 -0.858893
vn 0.279068 0.429446 -0.858893
vn -0.279068 0.429446 -0.858893
vn -0.279068 0.429446 -0.858893
vn -0.279068 0.429446 -0.858893
vn -0.730617 0.429446 -0.530824
vn -0.730617 0.429446 -0.530824
vn -0.730617 0.429446 -0.530824
vn -0.903092 0.429446 0.000000
vn -0.903092 0.429446 0.000000
vn -0.903092 0.429446 0.000000
vn -0.730617 0.429446 0.530824
vn -0.730617 0.429446 0.530824
vn -0.730617 0.429446 0.530824
vn -0.279067 0.429446 0.858893
vn -0.279067 0.429446 0.858893
vn -0.279067 0.429446 0.858893
vn 0.279067 0.429446 0.858893
vn 0.279067 0.429446 0.858893
vn 0.279067 0.429446 0.858893
vn 0.730617 0.429446 0.530824
vn 0.730617 0.429446 0.530824
vn 0.730617 0.429446 0.530824
vn 0.903092 0.429446 0.000000
vn 0.903092 0.429447 0.000000
vn 0.903092 0.429447 0.000000
s 1
g Spikes
f 1/1/1 10/2/2 2/10/3
f 10/2/2 9/3/4 2/10/3
f 9/3/4 8/4/5 2/10/3
f 8/4/5 7/5/6 2/10/3
f 7/5/6 6/6/7 2/10/3
f 6/6/7 5/7/8 2/10/3
f 5/7/8 4/8/9 2/10/3
f 4/8/9 3/9/10 2/10/3
s off
f 11/11/11 1/12/12 2/13/13
f 11/11/14 2/13/15 3/14/16
f 11/11/17 3/14/18 4/15/19
f 11/11/20 4/15/21 5/16/22
f 11/11/23 5/16/24 6/17/25
f 11/11/26 6/17/27 7/18/28
f 11/11/29 7/18/30 8/19/31
f 11/11/32 8/19/33 9/20/34
f 11/11/35 9/20/36 10/21/37
f 11/11/38 10/21/39 1/22/40
s 2
f 12/23/41 21/24/42 13/32/43
f 21/24/42 20/25/44 13/32/43
f 20/25/44 19/26/45 13/32/43
f 19/26/45 18/27/46 13/32/43
f 18/27/46 17/28/47 13/32/43
f 17/28/47 16/29/48 13/32/43
f 16/29/48 15/30/49 13/32/43
f 15/30/49 14/31/50 13/32/43
s off
f 22/33/51 12/34/52 13/35/53
f 22/33/54 13/35/55 14/36/56
f 22/33/57 14/36/58 15/37/59
f 22/33/60 15/37/61 16/38/62
f 22/33/63 16/38/64 17/39/65
f 22/33/66 17/39/67 18/40/68
f 22/33/69 18/40/70 19/41/71
f 22/33/72 19/41/73 20/42/74
f 22/33/75 20/42/76 21/43/77
f 22/33/78 21/43/79 12/44/80
s 3
f 23/45/81 32/46/82 24/54/83
f 32/46/82 31/47/84 24/54/83
f 31/47/84 30/48/85 24/54/83
f 30/48/85 29/49/86 24/54/83
f 29/49/86 28/50/87 24/54/83
f 28/50/87 27/51/88 24/54/83
f 27/51/88 26/52/89 24/54/83
f 26/52/89 25/53/90 24/54/83
s off
f 33/55/91 23/56/92 24/57/93
f 33/55/94 24/57/95 25/58/96
f 33/55/97 25/58/98 26/59/99
f 33/55/100 26/59/101 27/60/102
f 33/55/103 27/60/104 28/61/105
f 33/55/106 28/61/107 29/62/108
f 33/55/109 29/62/110 30/63/111
f 33/55/112 30/63/113 31/64/114
f 33/55/115 31/64/116 32/65/117
f 33/55/118 32/65/119 23/66/120
s 4
f 34/67/121 43/68/122 35/76/123
f 43/68/122 42/69/124 35/76/123
f 42/69/124 41/70/125 35/76/123
f 41/70/125 40/71/126 35/76/123
f 40/71/126 39/72/127 35/76/123
f 39/72/127 38/73/128 35/76/123
f 38/73/128 37/74/129 35/76/123
f 37/74/129 36/75/130 35/76/123
s off
f 44/77/131 34/78/132 35/79/133
f 44/77/134 35/79/135 36/80/136
f 44/77/137 36/80/138 37/81/139
f 44/77/140 37/81/141 38/82/142
f 44/77/143 38/82/144 39/83/145
f 44/77/146 39/83/147 40/84/148
f 44/77/149 40/84/150 41/85/151
f 44/77/152 41/85/153 42/86/154
f 44/77/155 42/86/156 43/87/157
f 44/77/158 43/87/159 34/88/160
