# This file uses centimeters as units for non-parametric coordinates.

mtllib Trail.mtl
g curveWarp1Set tweakSet1
v 4.230376 3.234252 0.000000
v 4.196780 5.233970 0.000000
v 3.919487 3.224468 0.000000
v 3.827899 5.222370 0.000000
v 3.581190 3.203475 0.000000
v 3.425694 5.197422 0.000000
v 3.215993 3.168496 0.000000
v 2.990803 5.155778 0.000000
v 2.880353 3.124869 0.000000
v 2.590703 5.103784 0.000000
v 2.518627 3.065323 0.000000
v 2.159355 5.032789 0.000000
v 2.186722 2.999058 0.000000
v 1.763689 4.953807 0.000000
v 1.829593 2.915126 0.000000
v 1.338384 4.853866 0.000000
v 1.502416 2.826564 0.000000
v 0.949404 4.748588 0.000000
v 1.150894 2.718798 0.000000
v 0.532472 4.620785 0.000000
v 0.829295 2.608614 0.000000
v 0.152188 4.490508 0.000000
v 0.484202 2.477917 0.000000
v -0.254376 4.336546 0.000000
v 0.168836 2.347092 0.000000
v -0.624320 4.183094 0.000000
v -0.169256 2.194676 0.000000
v -1.018973 4.005196 0.000000
v -0.478005 2.044454 0.000000
v -1.377387 3.830822 0.000000
v -0.808858 1.871787 0.000000
v -1.759101 3.631627 0.000000
v -1.110963 1.703621 0.000000
v -2.105273 3.438945 0.000000
v -1.434797 1.512372 0.000000
v -2.473530 3.221475 0.000000
v -1.730739 1.327877 0.000000
v -2.807208 3.013467 0.000000
v -2.048461 1.119862 0.000000
v -3.161961 2.781223 0.000000
v -2.339548 0.920767 0.000000
v -3.483283 2.561459 0.000000
v -2.653284 0.697902 0.000000
v -3.824832 2.318851 0.000000
v -2.942442 0.485996 0.000000
v -4.134135 2.092192 0.000000
v -3.257033 0.250194 0.000000
v -4.462718 1.845914 0.000000
v -3.576201 0.008299 0.000000
v -4.784147 1.602309 0.000000
vt 0.000000 0.000000
vt 0.091575 0.000000
vt 0.000000 0.041667
vt 0.091575 0.041667
vt 0.000000 0.083333
vt 0.091575 0.083333
vt 0.000000 0.125000
vt 0.091575 0.125000
vt 0.000000 0.166667
vt 0.091575 0.166667
vt 0.000000 0.208333
vt 0.091575 0.208333
vt 0.000000 0.250000
vt 0.091575 0.250000
vt 0.000000 0.291667
vt 0.091575 0.291667
vt 0.000000 0.333333
vt 0.091575 0.333333
vt 0.000000 0.375000
vt 0.091575 0.375000
vt 0.000000 0.416667
vt 0.091575 0.416667
vt 0.000000 0.458333
vt 0.091575 0.458333
vt 0.000000 0.500000
vt 0.091575 0.500000
vt 0.000000 0.541667
vt 0.091575 0.541667
vt 0.000000 0.583333
vt 0.091575 0.583333
vt 0.000000 0.625000
vt 0.091575 0.625000
vt 0.000000 0.666667
vt 0.091575 0.666667
vt 0.000000 0.708333
vt 0.091575 0.708333
vt 0.000000 0.750000
vt 0.091575 0.750000
vt 0.000000 0.791667
vt 0.091575 0.791667
vt 0.000000 0.833333
vt 0.091575 0.833333
vt 0.000000 0.875000
vt 0.091575 0.875000
vt 0.000000 0.916667
vt 0.091575 0.916667
vt 0.000000 0.958333
vt 0.091575 0.958333
vt 0.000000 1.000000
vt 0.091575 1.000000
vn 0.000000 0.000000 1.000000
vn 0.000000 0.000000 1.000000
vn 0.000000 0.000000 1.000000
vn 0.000000 0.000000 1.000000
vn 0.000000 0.000000 1.000000
vn 0.000000 0.000000 1.000000
vn 0.000000 0.000000 1.000000
vn 0.000000 0.000000 1.000000
vn 0.000000 0.000000 1.000000
vn 0.000000 0.000000 1.000000
vn 0.000000 0.000000 1.000000
vn 0.000000 0.000000 1.000000
vn 0.000000 0.000000 1.000000
vn 0.000000 0.000000 1.000000
vn 0.000000 0.000000 1.000000
vn 0.000000 0.000000 1.000000
vn 0.000000 0.000000 1.000000
vn 0.000000 0.000000 1.000000
vn 0.000000 0.000000 1.000000
vn 0.000000 0.000000 1.000000
vn 0.000000 0.000000 1.000000
vn 0.000000 0.000000 1.000000
vn 0.000000 0.000000 1.000000
vn 0.000000 0.000000 1.000000
vn 0.000000 0.000000 1.000000
vn 0.000000 0.000000 1.000000
vn 0.000000 0.000000 1.000000
vn 0.000000 0.000000 1.000000
vn 0.000000 0.000000 1.000000
vn 0.000000 0.000000 1.000000
vn 0.000000 0.000000 1.000000
vn 0.000000 0.000000 1.000000
vn 0.000000 0.000000 1.000000
vn 0.000000 0.000000 1.000000
vn 0.000000 0.000000 1.000000
vn 0.000000 0.000000 1.000000
vn 0.000000 0.000000 1.000000
vn 0.000000 0.000000 1.000000
vn 0.000000 0.000000 1.000000
vn 0.000000 0.000000 1.000000
vn 0.000000 0.000000 1.000000
vn 0.000000 0.000000 1.000000
vn 0.000000 0.000000 1.000000
vn 0.000000 0.000000 1.000000
vn 0.000000 0.000000 1.000000
vn 0.000000 0.000000 1.000000
vn 0.000000 0.000000 1.000000
vn 0.000000 0.000000 1.000000
vn 0.000000 0.000000 1.000000
vn 0.000000 0.000000 1.000000
s 1
g Trail
usemtl initialShadingGroup
f 1/1/1 2/2/2 3/3/3
f 3/3/3 2/2/2 4/4/4
f 3/3/3 4/4/4 5/5/5
f 5/5/5 4/4/4 6/6/6
f 5/5/5 6/6/6 7/7/7
f 7/7/7 6/6/6 8/8/8
f 7/7/7 8/8/8 9/9/9
f 9/9/9 8/8/8 10/10/10
f 9/9/9 10/10/10 11/11/11
f 11/11/11 10/10/10 12/12/12
f 11/11/11 12/12/12 13/13/13
f 13/13/13 12/12/12 14/14/14
f 13/13/13 14/14/14 15/15/15
f 15/15/15 14/14/14 16/16/16
f 15/15/15 16/16/16 17/17/17
f 17/17/17 16/16/16 18/18/18
f 17/17/17 18/18/18 19/19/19
f 19/19/19 18/18/18 20/20/20
f 19/19/19 20/20/20 21/21/21
f 21/21/21 20/20/20 22/22/22
f 21/21/21 22/22/22 23/23/23
f 23/23/23 22/22/22 24/24/24
f 23/23/23 24/24/24 25/25/25
f 25/25/25 24/24/24 26/26/26
f 25/25/25 26/26/26 27/27/27
f 27/27/27 26/26/26 28/28/28
f 27/27/27 28/28/28 29/29/29
f 29/29/29 28/28/28 30/30/30
f 29/29/29 30/30/30 31/31/31
f 31/31/31 30/30/30 32/32/32
f 31/31/31 32/32/32 33/33/33
f 33/33/33 32/32/32 34/34/34
f 33/33/33 34/34/34 35/35/35
f 35/35/35 34/34/34 36/36/36
f 35/35/35 36/36/36 37/37/37
f 37/37/37 36/36/36 38/38/38
f 37/37/37 38/38/38 39/39/39
f 39/39/39 38/38/38 40/40/40
f 39/39/39 40/40/40 41/41/41
f 41/41/41 40/40/40 42/42/42
f 41/41/41 42/42/42 43/43/43
f 43/43/43 42/42/42 44/44/44
f 43/43/43 44/44/44 45/45/45
f 45/45/45 44/44/44 46/46/46
f 45/45/45 46/46/46 47/47/47
f 47/47/47 46/46/46 48/48/48
f 47/47/47 48/48/48 49/49/49
f 49/49/49 48/48/48 50/50/50
g default
v 4.230376 3.234252 0.000000
v 4.196780 5.233970 0.000000
v 3.919487 3.224468 0.000000
v 3.827899 5.222370 0.000000
v 3.581190 3.203475 0.000000
v 3.425694 5.197422 0.000000
v 3.215993 3.168496 0.000000
v 2.990803 5.155778 0.000000
v 2.880353 3.124869 0.000000
v 2.590703 5.103784 0.000000
v 2.518627 3.065323 0.000000
v 2.159355 5.032789 0.000000
v 2.186722 2.999058 0.000000
v 1.763689 4.953807 0.000000
v 1.829593 2.915126 0.000000
v 1.338384 4.853866 0.000000
v 1.502416 2.826564 0.000000
v 0.949404 4.748588 0.000000
v 1.150894 2.718798 0.000000
v 0.532472 4.620785 0.000000
v 0.829295 2.608614 0.000000
v 0.152188 4.490508 0.000000
v 0.484202 2.477917 0.000000
v -0.254376 4.336546 0.000000
v 0.168836 2.347092 0.000000
v -0.624320 4.183094 0.000000
v -0.169256 2.194676 0.000000
v -1.018973 4.005196 0.000000
v -0.478005 2.044454 0.000000
v -1.377387 3.830822 0.000000
v -0.808858 1.871787 0.000000
v -1.759101 3.631627 0.000000
v -1.110963 1.703621 0.000000
v -2.105273 3.438945 0.000000
v -1.434797 1.512372 0.000000
v -2.473530 3.221475 0.000000
v -1.730739 1.327877 0.000000
v -2.807208 3.013467 0.000000
v -2.048461 1.119862 0.000000
v -3.161961 2.781223 0.000000
v -2.339548 0.920767 0.000000
v -3.483283 2.561459 0.000000
v -2.653284 0.697902 0.000000
v -3.824832 2.318851 0.000000
v -2.942442 0.485996 0.000000
v -4.134135 2.092192 0.000000
v -3.257033 0.250194 0.000000
v -4.462718 1.845914 0.000000
v -3.576201 0.008299 0.000000
v -4.784147 1.602309 0.000000
vt 0.000000 0.000000
vt 0.091575 0.000000
vt 0.000000 0.041667
vt 0.091575 0.041667
vt 0.000000 0.083333
vt 0.091575 0.083333
vt 0.000000 0.125000
vt 0.091575 0.125000
vt 0.000000 0.166667
vt 0.091575 0.166667
vt 0.000000 0.208333
vt 0.091575 0.208333
vt 0.000000 0.250000
vt 0.091575 0.250000
vt 0.000000 0.291667
vt 0.091575 0.291667
vt 0.000000 0.333333
vt 0.091575 0.333333
vt 0.000000 0.375000
vt 0.091575 0.375000
vt 0.000000 0.416667
vt 0.091575 0.416667
vt 0.000000 0.458333
vt 0.091575 0.458333
vt 0.000000 0.500000
vt 0.091575 0.500000
vt 0.000000 0.541667
vt 0.091575 0.541667
vt 0.000000 0.583333
vt 0.091575 0.583333
vt 0.000000 0.625000
vt 0.091575 0.625000
vt 0.000000 0.666667
vt 0.091575 0.666667
vt 0.000000 0.708333
vt 0.091575 0.708333
vt 0.000000 0.750000
vt 0.091575 0.750000
vt 0.000000 0.791667
vt 0.091575 0.791667
vt 0.000000 0.833333
vt 0.091575 0.833333
vt 0.000000 0.875000
vt 0.091575 0.875000
vt 0.000000 0.916667
vt 0.091575 0.916667
vt 0.000000 0.958333
vt 0.091575 0.958333
vt 0.000000 1.000000
vt 0.091575 1.000000
vn 0.000000 0.000000 1.000000
vn 0.000000 0.000000 1.000000
vn 0.000000 0.000000 1.000000
vn 0.000000 0.000000 1.000000
vn 0.000000 0.000000 1.000000
vn 0.000000 0.000000 1.000000
vn 0.000000 0.000000 1.000000
vn 0.000000 0.000000 1.000000
vn 0.000000 0.000000 1.000000
vn 0.000000 0.000000 1.000000
vn 0.000000 0.000000 1.000000
vn 0.000000 0.000000 1.000000
vn 0.000000 0.000000 1.000000
vn 0.000000 0.000000 1.000000
vn 0.000000 0.000000 1.000000
vn 0.000000 0.000000 1.000000
vn 0.000000 0.000000 1.000000
vn 0.000000 0.000000 1.000000
vn 0.000000 0.000000 1.000000
vn 0.000000 0.000000 1.000000
vn 0.000000 0.000000 1.000000
vn 0.000000 0.000000 1.000000
vn 0.000000 0.000000 1.000000
vn 0.000000 0.000000 1.000000
vn 0.000000 0.000000 1.000000
vn 0.000000 0.000000 1.000000
vn 0.000000 0.000000 1.000000
vn 0.000000 0.000000 1.000000
vn 0.000000 0.000000 1.000000
vn 0.000000 0.000000 1.000000
vn 0.000000 0.000000 1.000000
vn 0.000000 0.000000 1.000000
vn 0.000000 0.000000 1.000000
vn 0.000000 0.000000 1.000000
vn 0.000000 0.000000 1.000000
vn 0.000000 0.000000 1.000000
vn 0.000000 0.000000 1.000000
vn 0.000000 0.000000 1.000000
vn 0.000000 0.000000 1.000000
vn 0.000000 0.000000 1.000000
vn 0.000000 0.000000 1.000000
vn 0.000000 0.000000 1.000000
vn 0.000000 0.000000 1.000000
vn 0.000000 0.000000 1.000000
vn 0.000000 0.000000 1.000000
vn 0.000000 0.000000 1.000000
vn 0.000000 0.000000 1.000000
vn 0.000000 0.000000 1.000000
vn 0.000000 0.000000 1.000000
vn 0.000000 0.000000 1.000000
s 1
g Trail
f 51/51/51 52/52/52 53/53/53
f 53/53/53 52/52/52 54/54/54
f 53/53/53 54/54/54 55/55/55
f 55/55/55 54/54/54 56/56/56
f 55/55/55 56/56/56 57/57/57
f 57/57/57 56/56/56 58/58/58
f 57/57/57 58/58/58 59/59/59
f 59/59/59 58/58/58 60/60/60
f 59/59/59 60/60/60 61/61/61
f 61/61/61 60/60/60 62/62/62
f 61/61/61 62/62/62 63/63/63
f 63/63/63 62/62/62 64/64/64
f 63/63/63 64/64/64 65/65/65
f 65/65/65 64/64/64 66/66/66
f 65/65/65 66/66/66 67/67/67
f 67/67/67 66/66/66 68/68/68
f 67/67/67 68/68/68 69/69/69
f 69/69/69 68/68/68 70/70/70
f 69/69/69 70/70/70 71/71/71
f 71/71/71 70/70/70 72/72/72
f 71/71/71 72/72/72 73/73/73
f 73/73/73 72/72/72 74/74/74
f 73/73/73 74/74/74 75/75/75
f 75/75/75 74/74/74 76/76/76
f 75/75/75 76/76/76 77/77/77
f 77/77/77 76/76/76 78/78/78
f 77/77/77 78/78/78 79/79/79
f 79/79/79 78/78/78 80/80/80
f 79/79/79 80/80/80 81/81/81
f 81/81/81 80/80/80 82/82/82
f 81/81/81 82/82/82 83/83/83
f 83/83/83 82/82/82 84/84/84
f 83/83/83 84/84/84 85/85/85
f 85/85/85 84/84/84 86/86/86
f 85/85/85 86/86/86 87/87/87
f 87/87/87 86/86/86 88/88/88
f 87/87/87 88/88/88 89/89/89
f 89/89/89 88/88/88 90/90/90
f 89/89/89 90/90/90 91/91/91
f 91/91/91 90/90/90 92/92/92
f 91/91/91 92/92/92 93/93/93
f 93/93/93 92/92/92 94/94/94
f 93/93/93 94/94/94 95/95/95
f 95/95/95 94/94/94 96/96/96
f 95/95/95 96/96/96 97/97/97
f 97/97/97 96/96/96 98/98/98
f 97/97/97 98/98/98 99/99/99
f 99/99/99 98/98/98 100/100/100
